<ttFont>
          <CharString index="0">
            -46 231 -44 307 0 vvcurveto
            -8 -1 -56 -17 -248 -511 -28 -58 -21 -16 -37 -4 rlinecurve
            -13 -45 rlineto
            0 60 3 45 64 68 -7 0 vhcurveto
            10 41 rlineto
            3 -56 vlineto
            -37 -16 11 25 13 4 12 10 21 hvcurveto
            49 108 rlineto
            3 24 45 5 38 hhcurveto
            27 49 0 -1 24 hvcurveto
            18 -113 rlineto
            2 -13 2 -15 -10 vvcurveto
            -35 -18 -10 -74 -5 vhcurveto
            -8 -36 return
          </CharString>
          <CharString index="1">
            -101 callsubr
            hintmask 10100000
            0 60 7 61 29 58 -29 callsubr
            9 35 -2 3 -42 4 -15 12 -8 40 rlinecurve
            -137 324 rmoveto
            7 hlineto
            34 -197 rlineto
            -2 -18 -32 -2 -20 hhcurveto
            -66 hlineto
            return
          </CharString>
          <CharString index="2">
            185 80 rmoveto
            34 15 72 16 112 vhcurveto
            3 16 30 4 28 hhcurveto
            53 82 -3 0 hvcurveto
            20 56 -3 -30 callsubr
            -84 -11 -34 vhcurveto
            -29 -49 1 -21 hhcurveto
            31 199 rlineto
            38 6 4 1 63 hhcurveto
            117 25 -4 -46 -26 37 callsubr
            44 4 rlineto
            17 92 25 72 -34 callgsubr
            rlineto
            -9 -64 -71 -3 -154 hhcurveto
            -57 -74 3 0 hvcurveto
            -11 -42 1 -3 rlineto
            return
          </CharString>
          <CharString index="3">
            hstemhm
            hintmask 10110100
            -105 callsubr
            hintmask 01101100
            -82 callsubr
            return
          </CharString>
          <CharString index="4">
            311 35 rmoveto
            -111 -73 99 151 175 103 133 138 114 75 -99 -151 -177 -104 -131 -142 hvcurveto
            -25 -47 rmoveto
            196 162 177 217 156 -101 110 -146 -193 -159 -178 -216 -157 99 -109 142 hvcurveto
            return
          </CharString>
          <CharString index="5">
            rmoveto
            31 25 26 29 20 -12 18 -24 -30 -25 -26 -29 -19 11 -19 24 hvcurveto
            -160 hmoveto
            31 25 26 29 20 -12 18 -24 -31 -24 -26 -29 -19 11 -19 24 hvcurveto
            endchar
          </CharString>
          <CharString index="6">
            -8 callgsubr
            401 92 rmoveto
            -106 callgsubr
            rlineto
            hintmask 01100000
            2 -5 rlineto
            return
          </CharString>
          <CharString index="7">
            hstemhm
            hintmask 01110000
            195 567 rmoveto
            24 12 8 66 6 vhcurveto
            8 33 -2 7 rlineto
            0 -82 -9 -55 -44 -59 4 0 vhcurveto
            -11 -36 2 -4 76 -7 2 -26 29 -84 rlinecurve
            63 -182 18 -49 0 -26 -4 -40 rlinecurve
            -5 -45 -8 -75 -10 -20 -70 -15 -37 callsubr
            hintmask 10110000
            0 61 12 48 41 78 -46 callsubr
            14 43 -2 -30 callsubr
            -28 -3 -19 -35 -5 17 52 7 vhcurveto
            16 113 1 34 27 37 117 175 rcurveline
            65 97 9 21 68 12 11 35 rcurveline
            -3 -51 callgsubr
            -52 -4 -37 vhcurveto
            -35 -70 8 1 hhcurveto
            -11 -37 -53 callsubr
            39 -3 18 -9 -16 vvcurveto
            -13 -8 -20 -13 -20 vhcurveto
            -139 -218 rlineto
            -4 hlineto
            -2 -77 229 36 vvcurveto
            return
          </CharString>
          <CharString index="8">
            520 134 rmoveto
            0 -135 243 -130 263 vhcurveto
            0 -31 -4 -31 -26 -55 5 0 vhcurveto
            -11 -34 38 callsubr
            -2 vvcurveto
            64 -7 18 -14 -5 -40 -67 -443 rcurveline
            -6 -41 -21 -17 -40 -5 -11 -43 rcurveline
            0 52 8 37 42 58 -4 0 vhcurveto
            14 43 -2 3 rlineto
            -49 hlineto
            -22 -7 9 30 4 hvcurveto
            60 441 rlineto
            4 hlineto
            0 141 -253 152 -311 vhcurveto
            25 14 82 566 6 39 23 18 45 6 rlinecurve
            return
          </CharString>
          <CharString index="9">
            rmoveto
            -9 1 -125 -65 -109 65 -10 -1 -16 -22 120 -111 rlineto
            13 hlineto
            148 111 rlineto
            endchar
          </CharString>
          <CharString index="10">
            -20 hstem
            -66 callgsubr
            -97 callgsubr
            9 39 rlineto
            -81 callgsubr
            return
          </CharString>
          <CharString index="11">
            rmoveto
            9 -1 125 65 110 -65 9 1 17 22 -120 111 rlineto
            -14 hlineto
            -147 -111 rlineto
            endchar
          </CharString>
          <CharString index="12">
            hstem
            47 85 vstem
            263 -9 rmoveto
            95 65 31 43 callsubr
            12 57 24 74 0 vvcurveto
            -46 -4 rlineto
            -83 -29 -45 -37 -68 hhcurveto
            -91 -54 71 112 144 77 91 113 68 33 -21 -42 -15 -7 -33 -11 callsubr
            74 23 60 -55 callsubr
            0 -81 19 -65 -176 -127 -129 -178 -129 86 -80 130 vhcurveto
            return
          </CharString>
          <CharString index="13">
            0 55 9 41 37 69 19 callgsubr
            -21 -2 -19 -20 -9 8 25 33 31 188 23 130 vhcurveto
            return
          </CharString>
          <CharString index="14">
            -20 hstemhm
            hintmask 10101000
            184 438 rmoveto
            18 11 7 50 4 vhcurveto
            7 31 -6 callgsubr
            -72 -7 -44 -35 -54 -63 callgsubr
            -10 -34 2 -4 59 -7 4 -20 23 -60 rlinecurve
            54 -144 15 -37 0 -20 -3 -30 rlinecurve
            -3 -32 -6 -56 -9 -15 -59 -11 rlinecurve
            -10 -39 rlineto
            hintmask 01101000
            0 58 9 41 35 71 -46 callsubr
            11 40 -1 -23 callsubr
            -23 -2 -16 -29 -5 13 40 6 vhcurveto
            11 79 1 25 21 29 94 137 rcurveline
            50 71 11 19 53 11 10 33 rcurveline
            -3 5 rlineto
            0 -43 -3 -32 vhcurveto
            hintmask 10011000
            -30 -56 6 -4 hhcurveto
            -10 -34 22 callgsubr
            -6 -12 vvcurveto
            -10 -7 -15 -10 -15 vhcurveto
            -104 -158 rlineto
            -5 hlineto
            -1 4 -59 161 26 vvcurveto
            return
          </CharString>
          <CharString index="15">
            0 23 1 10 22 3 -6 -36 -2 vhcurveto
            0 -21 -198 -7 -54 vhcurveto
            -82 -9 -49 -43 -82 hhcurveto
            -70 -37 41 74 11 0 13 2 13 hvcurveto
            return
          </CharString>
          <CharString index="16">
            -33 -60 3 -4 5 callsubr
            38 callsubr
            -1 vvcurveto
            0 21 1 11 24 4 -9 -32 -4 vhcurveto
            -40 -322 -5 -43 -16 -15 -49 -9 rlinecurve
            -10 -39 rlineto
            return
          </CharString>
          <CharString index="17">
            0 63 12 48 46 79 -46 callsubr
            14 44 -2 37 callgsubr
            -26 -11 10 33 42 39 239 31 180 vhcurveto
            return
          </CharString>
          <CharString index="18">
            rmoveto
            -41 -4 10 -16 32 hhcurveto
            87 101 72 66 38 -24 26 -50 15 hvcurveto
            1 5 rlineto
            47 21 32 37 38 vvcurveto
            40 -35 27 -47 -44 -56 -36 -7 -12 vhcurveto
            6 -37 rlineto
            7 hlineto
            17 22 30 11 21 hhcurveto
            22 14 -14 -21 -28 -25 -28 -33 -16 hvcurveto
            -42 -9 rlineto
            -32 vlineto
            hintmask 11000000
            5 -5 rlineto
            62 29 -16 -36 -42 -44 -30 -55 -17 -17 3 5 -16 hvcurveto
            endchar
          </CharString>
          <CharString index="19">
            78 134 -7 0 hvcurveto
            38 callgsubr
            81 23 74 0 vvcurveto
            -1 5 callgsubr
            2 vvcurveto
            -43 -5 rlineto
            -97 -27 -19 -15 -88 hhcurveto
            -47 -11 7 30 27 32 206 16 85 hvcurveto
            12 59 4 3 47 7 8 40 rcurveline
            return
          </CharString>
          <CharString index="20">
            rmoveto
            54 -43 29 -94 10 vhcurveto
            15 77 rlineto
            68 60 -5 0 hvcurveto
            7 6 27 85 -30 -3 -9 -19 -9 -5 -24 -1 rlinecurve
            -120 -4 -6 -5 rlineto
            0 -14 -87 -17 -81 vhcurveto
            hintmask 11010000
            4 -7 rlineto
            79 -4 35 -19 -38 vvcurveto
            -43 -42 -32 -58 -18 -16 3 5 -16 vhcurveto
            -8 -7 rlineto
            -41 -2 12 -16 31 hhcurveto
            87 101 75 73 hvcurveto
            endchar
          </CharString>
          <CharString index="21">
            0 -77 -6 -48 -56 -91 1 0 vhcurveto
            -16 -45 5 -9 rlineto
            0 82 1 56 vhcurveto
            137 1 13 47 rlineto
            endchar
          </CharString>
          <CharString index="22">
            rmoveto
            7 -28 5 -3 rlineto
            0 242 65 204 vvcurveto
            67 -41 48 -63 -85 -58 -61 -75 -49 31 -45 62 vhcurveto
            17 1 29 16 16 10 2 -3 rcurveline
            -49 -107 -115 -40 0 vvcurveto
            126 171 rmoveto
            -34 -20 27 35 48 24 30 41 33 19 -29 -45 -13 -2 -16 -5 -18 hvcurveto
            -6 -10 -23 -13 -23 hhcurveto
            endchar
          </CharString>
          <CharString index="23">
            303 276 rmoveto
            80 -197 rlineto
            -57 24 34 -38 32 hhcurveto
            81 11 9 32 -3 3 rlineto
            -53 -26 22 63 -31 hvcurveto
            -85 178 rlineto
            105 46 52 76 88 vvcurveto
            84 -75 53 -108 vhcurveto
            0 -75 -4 -32 -36 -69 4 0 vhcurveto
            -12 -42 1 callsubr
            28 6 -11 -44 -5 vhcurveto
            -52 -424 return
          </CharString>
          <CharString index="24">
            89 166 -9 0 hvcurveto
            5 5 rlineto
            23 97 28 89 0 5 callgsubr
            1 vvcurveto
            -42 -4 rlineto
            -123 -35 -23 -18 -113 hhcurveto
            -62 -14 9 41 33 41 272 21 112 hvcurveto
            16 83 3 4 56 9 8 42 rcurveline
            return
          </CharString>
          <CharString index="25">
            0 22 2 11 29 5 -11 -43 25 callgsubr
            -57 -19 -19 -59 -8 -37 callsubr
            return
          </CharString>
          <CharString index="26">
            5 2 90 7 56 hhcurveto
            33 45 -2 -1 hvcurveto
            14 44 rlineto
            5 callgsubr
            1 vvcurveto
            0 -25 -3 -19 -24 -8 5 20 -3 vhcurveto
            -4 22 9 47 5 37 17 120 rcurveline
            0 132 11 30 45 103 -1 0 vhcurveto
            -18 -154 -11 -90 -17 -17 -59 -1 rlinecurve
            -13 -43 rlineto
            -1 39 3 36 vhcurveto
            31 hlineto
            42 77 -3 0 hvcurveto
            13 44 rlineto
            1 5 callgsubr
            0 vvcurveto
            0 -25 -3 -19 -26 -10 10 33 return
          </CharString>
          <CharString index="27">
            rmoveto
            36 29 30 35 23 -14 22 -28 -37 -29 -30 -35 -23 13 -22 30 hvcurveto
            endchar
          </CharString>
          <CharString index="28">
            44 -24 27 -30 -22 -23 -16 -10 -13 vhcurveto
            return
          </CharString>
          <CharString index="29">
            177 -12 47 -14 -21 596 44 hstemhm
            577 86 hintmask 10110000
            296 -12 rmoveto
            201 166 177 211 157 -120 107 -171 hvcurveto
            0 -92 -4 -44 -37 -63 -19 callgsubr
            1 -4 rlineto
            0 22 2 12 28 -52 callsubr
            -24 -199 rlineto
            -133 hlineto
            -11 -32 6 -7 rlineto
            133 hlineto
            -23 -187 -7 -56 -18 -18 -62 -12 -37 callsubr
            hintmask 01110000
            0 64 12 48 vhcurveto
            hintmask 10110000
            48 98 -12 0 hvcurveto
            12 608 rmoveto
            175 94 -87 -153 -189 -104 -132 -158 -86 -28 15 57 21 10 67 17 109 hvcurveto
            162 hlineto
            10 32 -4 7 rlineto
            -162 hlineto
            38 231 rlineto
            18 3 7 4 26 hhcurveto
            endchar
          </CharString>
          <CharString index="30">
            hstem
            447 13 rmoveto
            16 95 33 107 0 vvcurveto
            -43 -5 -36 -115 -46 -51 -66 -1 rlinecurve
            -199 -7 49 67 179 245 214 254 rlinecurve
            -7 28 -244 7 -167 11 -11 -9 rlineto
            -13 -91 -28 -101 0 vvcurveto
            44 4 23 102 36 35 88 2 rlinecurve
            170 6 -429 -568 8 -31 69 6 344 -6 rlineto
            return
          </CharString>
          <CharString index="31">
            0 54 7 36 31 55 -29 callsubr
            11 36 -1 32 callsubr
            -15 -17 -7 8 21 24 23 162 12 61 vhcurveto
            return
          </CharString>
          <CharString index="32">
            -20 -25 callsubr
            108 -82 rmoveto
            2 -10 27 -6 55 104 rlineto
            -11 29 31 -7 34 hhcurveto
            196 162 177 217 108 -50 87 -79 42 hvcurveto
            38 70 -3 12 -29 7 -39 -74 rlineto
            9 -26 -29 5 -30 hhcurveto
            -193 -159 -178 -216 -105 44 -84 72 -44 hvcurveto
            150 14 rmoveto
            -34 -30 9 17 -26 hvcurveto
            258 491 rlineto
            49 -43 29 -73 -93 vvcurveto
            -177 -104 -131 -142 vhcurveto
            -184 250 rmoveto
            175 103 133 138 30 28 -8 -13 24 vhcurveto
            -256 -488 rlineto
            -42 43 -25 70 88 vvcurveto
            return
          </CharString>
          <CharString index="33">
            -20 -42 callgsubr
            90 -62 rmoveto
            2 -8 25 -7 48 83 rlineto
            -9 25 27 -6 31 hhcurveto
            163 128 134 173 85 -39 66 -63 34 hvcurveto
            30 52 -2 10 -27 8 -32 -57 rlineto
            7 -22 -24 4 -26 hhcurveto
            -162 -125 -134 -173 -81 34 -63 56 -35 hvcurveto
            132 16 rmoveto
            -28 -25 7 14 -21 hvcurveto
            205 362 rlineto
            34 -31 20 -52 -64 vvcurveto
            -141 -77 -95 -108 vhcurveto
            -141 181 rmoveto
            139 77 97 105 23 22 -6 -9 18 vhcurveto
            -202 -358 rlineto
            -27 31 -16 47 59 vvcurveto
            return
          </CharString>
          <CharString index="34">
            27 77 -33 32 hhcurveto
            16 4 83 79 rlineto
            5 vlineto
            -19 21 rlineto
            -6 hlineto
            0 -44 -45 -22 vhcurveto
            return
          </CharString>
          <CharString index="35">
            228 422 rmoveto
            5 29 12 9 43 5 9 40 rcurveline
            return
          </CharString>
          <CharString index="36">
            -86 callgsubr
            -162 105 -103 157 vhcurveto
            return
          </CharString>
          <CharString index="37">
            14 43 -2 -30 callsubr
            -20 -3 -35 -33 -14 15 36 38 58 378 20 94 vhcurveto
            142 -7 3 -3 3 -119 44 4 rcurveline
            0 -2 81 8 83 vhcurveto
            -8 7 return
          </CharString>
          <CharString index="38">
            0 -55 -9 -40 -32 -57 4 0 vhcurveto
            -14 -42 -53 callsubr
            -1 20 1 17 hhcurveto
            20 10 -14 -29 -3 hvcurveto
            -52 -418 rlineto
            return
          </CharString>
          <CharString index="39">
            200 421 rmoveto
            5 29 11 10 39 5 8 39 rcurveline
            return
          </CharString>
          <CharString index="40">
            12 40 -2 32 callsubr
            -27 -27 -12 12 28 34 46 285 13 63 vhcurveto
            97 -3 13 2 2 -101 44 4 rcurveline
            0 0 70 6 68 vhcurveto
            -7 7 return
          </CharString>
          <CharString index="41">
            rmoveto
            -41 -33 22 44 -11 hvcurveto
            -8 hlineto
            -17 -10 rlineto
            -57 6 29 -57 68 hhcurveto
            67 43 57 57 20 hvcurveto
            -14 10 rlineto
            -9 hlineto
            -44 -21 -39 -22 -40 hhcurveto
            endchar
          </CharString>
          <CharString index="42">
            rmoveto
            -12 -94 -23 -38 -69 -39 -2 -7 rcurveline
            12 -27 98 36 49 60 13 106 rlinecurve
            9 69 30 195 12 70 6 32 7 6 37 5 8 39 rcurveline
            return
          </CharString>
          <CharString index="43">
            111 97 rmoveto
            -5 -44 -12 -10 -49 -6 -13 -38 rcurveline
            0 55 1 40 35 66 19 callgsubr
            -19 -2 -16 -27 -7 11 42 6 vhcurveto
            50 328 5 29 13 11 40 6 rlinecurve
            8 40 rlineto
            return
          </CharString>
          <CharString index="44">
            -19 0 41 -28 -21 241 45 175 44 -37 -20 return
          </CharString>
          <CharString index="45">
            0 69 10 74 99 194 -5 -2 -2 vhcurveto
            5 6 rlineto
            19 84 28 83 -17 callsubr
            5 -44 -5 rlineto
            -110 -29 -18 -12 -138 hhcurveto
            -53 -20 18 50 -1 hvcurveto
            -6 171 108 9 83 2 19 52 -4 5 -90 -13 -116 -11 -2 230 rlineto
            23 10 8 59 124 22 -7 -44 -25 -9 -38 0 vhcurveto
            47 4 rlineto
            17 92 25 73 0 vvcurveto
            return
          </CharString>
          <CharString index="46">
            0 41 -30 -21 315 46 239 46 -40 -20 return
          </CharString>
          <CharString index="47">
            0 58 7 62 92 155 -4 -1 -1 vhcurveto
            5 5 rlineto
            15 70 23 66 -17 callsubr
            5 -45 -4 rlineto
            -84 -23 -15 -10 -105 hhcurveto
            -41 -14 15 38 -1 hvcurveto
            -5 121 81 7 70 3 16 49 -5 6 -75 -12 -88 -9 -3 166 rlineto
            17 8 7 44 96 16 -6 -34 -18 -7 -29 0 vhcurveto
            49 4 -7 callgsubr
            20 62 0 vvcurveto
            return
          </CharString>
          <CharString index="48">
            -227 -93 -21 574 -20 58 3 callgsubr
            hintmask 11010000
            102 91 -65 callsubr
            hintmask 11100000
            0 -60 -6 -38 vhcurveto
            -43 callsubr
            endchar
          </CharString>
          <CharString index="49">
            -66 9 -9 -7 rlineto
            -10 -68 -18 -74 0 vvcurveto
            44 4 26 98 12 -3 105 3 rlinecurve
            return
          </CharString>
          <CharString index="50">
            -67 callgsubr
            7 callgsubr
            return
          </CharString>
          <CharString index="51">
            -88 -90 -64 41 -38 48 -29 vhcurveto
            -49 -23 -95 -54 -102 vvcurveto
            177 -79 rmoveto
            -62 -40 50 55 82 66 38 36 15 hvcurveto
            hintmask 11110000
            59 -33 60 -30 -61 vvcurveto
            -66 -59 -50 -60 vhcurveto
            -48 425 rmoveto
            49 41 47 58 vhcurveto
            hintmask 11101000
            47 34 -32 -60 -70 -40 -35 -31 -18 hvcurveto
            -55 33 -54 30 56 vvcurveto
            endchar
          </CharString>
          <CharString index="52">
            -17 callsubr
            6 rlineto
            return
          </CharString>
          <CharString index="53">
            rmoveto
            -22 13 -18 22 27 vvcurveto
            34 32 40 40 25 vhcurveto
            10 vlineto
            -18 15 rlineto
            -55 -29 -73 -54 -72 vvcurveto
            -44 24 -27 30 22 23 16 10 13 vhcurveto
            return
          </CharString>
          <CharString index="54">
            2 -4 rlineto
            return
          </CharString>
          <CharString index="55">
            5 -39 callgsubr
            return
          </CharString>
          <CharString index="56">
            -50 callgsubr
            -27 callsubr
            23 -20 return
          </CharString>
          <CharString index="57">
            -27 -78 33 -32 hhcurveto
            -15 -4 -84 -89 -1 -5 19 -21 rlineto
            endchar
          </CharString>
          <CharString index="58">
            0 vvcurveto
            endchar
          </CharString>
          <CharString index="59">
            126 118 rmoveto
            -7 -57 -15 -13 -61 -6 -15 -43 rcurveline
            0 62 1 47 43 74 -46 callsubr
            15 44 -2 -30 callsubr
            -25 -3 -19 -34 -9 14 53 8 vhcurveto
            65 434 6 38 17 15 49 7 rlinecurve
            8 43 rlineto
            return
          </CharString>
          <CharString index="60">
            -34 callsubr
            23 4 return
          </CharString>
          <CharString index="61">
            -3 0 vhcurveto
            return
          </CharString>
          <CharString index="62">
            rmoveto
            -186 -173 -2 -15 144 -166 24 15 3 10 -83 155 120 149 rlineto
            10 vlineto
            return
          </CharString>
          <CharString index="63">
            -79 callsubr
            endchar
          </CharString>
          <CharString index="64">
            -88 -1 -10 -36 1 -4 rlineto
            0 27 3 11 36 callsubr
            return
          </CharString>
          <CharString index="65">
            hvcurveto
            -56 callgsubr
            return
          </CharString>
          <CharString index="66">
            671 -39 callsubr
          </CharString>
          <CharString index="67">
            hstem
            45 87 vstem
            307 -12 rmoveto
            return
          </CharString>
          <CharString index="68">
            -82 callgsubr
            endchar
          </CharString>
          <CharString index="69">
            145 -12 53 555 40 return
          </CharString>
          <CharString index="70">
            rlinecurve
            -11 -43 rlineto
            return
          </CharString>
          <CharString index="71">
            56 136 182 -56 56 30 -17 callgsubr
            245 return
          </CharString>
          <CharString index="72">
            0 -60 -8 -36 vhcurveto
            return
          </CharString>
          <CharString index="73">
            0 17 1 9 return
          </CharString>
          <CharString index="74">
            12 -21 30 -21 return
          </CharString>
          <CharString index="75">
            rmoveto
            41 29 32 37 28 -17 22 -33 -40 -28 -32 -37 -26 14 -24 34 hvcurveto
            endchar
          </CharString>
          <CharString index="76">
            7 -8 rlineto
            20 33 12 7 1 hvcurveto
            return
          </CharString>
          <CharString index="77">
            4 rlineto
            0 return
          </CharString>
          <CharString index="78">
            -2 0 vhcurveto
            return
          </CharString>
          <CharString index="79">
            rmoveto
            42 28 32 37 28 -17 22 -32 -41 -28 -32 -37 -26 15 -24 33 hvcurveto
            return
          </CharString>
          <CharString index="80">
            -20 57 -20 return
          </CharString>
          <CharString index="81">
            -63 callgsubr
            -11 -37 3 -4 rlineto
            return
          </CharString>
          <CharString index="82">
            hstem
            -10 callgsubr
            vstem
            return
          </CharString>
          <CharString index="83">
            -272 -21 226 return
          </CharString>
          <CharString index="84">
            3 rlineto
            0 return
          </CharString>
          <CharString index="85">
            0 41 -28 -21 468 16 callgsubr
            return
          </CharString>
          <CharString index="86">
            -54 callgsubr
            18 return
          </CharString>
          <CharString index="87">
            0 -69 -9 -49 -29 23 callgsubr
            return
          </CharString>
          <CharString index="88">
            47 -9 50 419 return
          </CharString>
          <CharString index="89">
            -86 -143 1 0 vhcurveto
            -17 -49 5 -9 rlineto
            0 133 1 return
          </CharString>
          <CharString index="90">
            0 vvcurveto
            -3 return
          </CharString>
          <CharString index="91">
            vhcurveto
            51 17 53 46 0 vvcurveto
            return
          </CharString>
          <CharString index="92">
            633 546 rmoveto
            7 38 14 12 49 7 8 43 rcurveline
            return
          </CharString>
          <CharString index="93">
            0 -71 -4 -43 25 callsubr
            return
          </CharString>
          <CharString index="94">
            43 140 48 154 -20 hstem
            285 return
          </CharString>
          <CharString index="95">
            8 0 callsubr
            return
          </CharString>
          <CharString index="96">
            0 hvcurveto
            46 4 rlineto
            14 return
          </CharString>
          <CharString index="97">
            51 11 -21 31 -21 return
          </CharString>
          <CharString index="98">
            -107 -99 callgsubr
            return
          </CharString>
          <CharString index="99">
            hstemhm
            hintmask 01100000
            return
          </CharString>
          <CharString index="100">
            -4 1 rcurveline
            22 146 39 164 -54 callgsubr
            return
          </CharString>
          <CharString index="101">
            -21 526 72 4 -20 hstemhm
            hintmask 11000000
            return
          </CharString>
          <CharString index="102">
            -12 48 249 59 254 -20 hstem
            return
          </CharString>
          <CharString index="103">
            563 rmoveto
            -7 30 -6 5 rlineto
            0 return
          </CharString>
          <CharString index="104">
            -33 callsubr
            497 -20 26 -20 return
          </CharString>
          <CharString index="105">
            -8 0 hvcurveto
            7 6 38 118 -34 -4 -14 -30 return
          </CharString>
          <CharString index="106">
            rlineto
            84 47 80 40 0 vvcurveto
            return
          </CharString>
          <CharString index="107">
            0 vhcurveto
            -12 -41 -53 callsubr
            return
          </CharString>
          <CharString index="108">
            2 -4 -33 callgsubr
            11 return
          </CharString>
          <CharString index="109">
            43 4 rlineto
            17 return
          </CharString>
          <CharString index="110">
            0 vvcurveto
            -2 return
          </CharString>
          <CharString index="111">
            61 0 vvcurveto
            return
          </CharString>
          <CharString index="112">
            hhcurveto
            -10 -37 return
          </CharString>
          <CharString index="113">
            2 153 hhcurveto
            14 51 rlineto
            endchar
          </CharString>
          <CharString index="114">
            40 43 67 23 hhcurveto
            12 8 -10 -14 hvcurveto
            -38 -46 -111 -36 vvcurveto
            -15 8 -8 18 return
          </CharString>
          <CharString index="115">
            -7 0 hvcurveto
            13 7 rlineto
            16 73 33 86 0 vvcurveto
            -41 -5 rlineto
            -76 -29 -20 -15 return
          </CharString>
          <CharString index="116">
            56 124 205 -52 52 -8 callgsubr
            23 return
          </CharString>
          <CharString index="117">
            184 19 callsubr
            return
          </CharString>
          <CharString index="118">
            hlineto
            -63 17 callgsubr
            return
          </CharString>
          <CharString index="119">
            -21 254 59 249 48 hstem
            return
          </CharString>
          <CharString index="120">
            -27 callsubr
            23 -20 25 -20 hstemhm
            return
          </CharString>
          <CharString index="121">
            31 24 26 29 20 -11 18 -24 -31 -25 -26 -29 -19 12 -19 24 hvcurveto
            return
          </CharString>
          <CharString index="122">
            20 31 23 53 50 vhcurveto
            -10 19 -9 1 rlineto
            -29 -34 -6 -5 -6 hhcurveto
            return
          </CharString>
          <CharString index="123">
            133 -12 45 219 47 295 54 return
          </CharString>
          <CharString index="124">
            -8 -9 -8 rlineto
            0 -22 -126 -24 -118 vhcurveto
            7 -11 rlineto
            return
          </CharString>
          <CharString index="125">
            216 0 42 -33 -21 316 42 return
          </CharString>
          <CharString index="126">
            -21 -21 42 24 callsubr
            return
          </CharString>
          <CharString index="127">
            -36 -21 63 -20 -8 callsubr
            return
          </CharString>
          <CharString index="128">
            444 43 callgsubr
            return
          </CharString>
          <CharString index="129">
            8 -9 46 418 52 return
          </CharString>
          <CharString index="130">
            rmoveto
            0 44 55 23 vhcurveto
            return
          </CharString>
          <CharString index="131">
            42 552 -20 21 41 return
          </CharString>
          <CharString index="132">
            vhcurveto
            -6 -32 rlineto
            24 hlineto
            return
          </CharString>
          <CharString index="133">
            -71 -9 rlineto
            -245 hlineto
            return
          </CharString>
          <CharString index="134">
            169 0 43 -29 -21 212 40 206 47 -39 -20 return
          </CharString>
          <CharString index="135">
            -84 -21 194 54 361 -20 21 -20 hstemhm
            hintmask 11010000
            return
          </CharString>
          <CharString index="136">
            34 -54 -82 -19 -3 -27 -7 -30 hvcurveto
            -11 -17 -42 -26 return
          </CharString>
          <CharString index="137">
            -16 -49 rlineto
            hintmask 01100000
            4 -9 rlineto
            return
          </CharString>
          <CharString index="138">
            0 57 10 72 vhcurveto
            return
          </CharString>
          <CharString index="139">
            -23 callsubr
            -17 -2 return
          </CharString>
          <CharString index="140">
            10 -21 192 56 224 -20 158 -20 hstem
            return
          </CharString>
          <CharString index="141">
            64 -31 64 22 -20 hstemhm
            return
          </CharString>
          <CharString index="142">
            96 -12 45 561 54 return
          </CharString>
          <CharString index="143">
            22 5 39 callgsubr
            return
          </CharString>
          <CharString index="144">
            -9 -39 0 hvcurveto
            return
          </CharString>
          <CharString index="145">
            rlineto
            -2 1 -1 return
          </CharString>
          <CharString index="146">
            80 vstem
            26 -70 rmoveto
            8 -30 6 -5 rlineto
            0 return
          </CharString>
          <CharString index="147">
            -124 -93 -98 -110 -71 46 -77 101 28 return
          </CharString>
          <CharString index="148">
            rmoveto
            9 hlineto
            -28 -224 rlineto
            return
          </CharString>
          <CharString index="149">
            0 52 8 62 vhcurveto
            return
          </CharString>
          <CharString index="150">
            0 hvcurveto
            6 8 rlineto
            return
          </CharString>
          <CharString index="151">
            83 -8 -21 50 -21 460 -27 callsubr
            return
          </CharString>
          <CharString index="152">
            -58 -73 -42 vhcurveto
            5 -45 rlineto
            9 hlineto
            70 return
          </CharString>
          <CharString index="153">
            -47 -64 -41 vhcurveto
            6 -45 rlineto
            9 hlineto
            54 return
          </CharString>
          <CharString index="154">
            -20 -8 callgsubr
            return
          </CharString>
          <CharString index="155">
            52 6 -20 hstemhm
            return
          </CharString>
        <CharString name=".notdef">
          -315 endchar
        </CharString>
        <CharString name="A">
          45 11 -21 31 -21 649 -20 -102 callgsubr
          hintmask 01100000
          0 70 10 73 32 69 -46 callsubr
          11 39 -2 3 -55 6 -19 15 -10 51 rlinecurve
          -152 433 rmoveto
          7 hlineto
          44 -267 rlineto
          -3 -22 -43 -3 -26 hhcurveto
          -85 hlineto
          endchar
        </CharString>
        <CharString name="AE">
          271 0 44 -33 -21 598 49 -42 -20 74 -20 hstemhm
          366 72 hintmask 01100100
          266 35 rmoveto
          -6 -38 1 -7 rlineto
          hintmask 10100100
          -62 callsubr
          hintmask 10011100
          -2 6 rlineto
          hintmask 10100100
          -9 -57 -76 -3 -155 hhcurveto
          -71 -82 2 1 hvcurveto
          -13 -43 -53 callsubr
          hintmask 10011100
          4 callgsubr
          12 14 6 -5 -11 2 vhcurveto
          -291 -458 rlineto
          -35 -56 -36 -35 0 vvcurveto
          2 -34 rlineto
          0 44 4 22 61 71 -7 0 vhcurveto
          11 46 rlineto
          -54 hlineto
          -36 -13 8 22 13 4 10 17 28 hvcurveto
          84 140 89 9 96 8 2 -124 rlineto
          -36 vlineto
          -47 -38 -31 -63 -4 vhcurveto
          -53 275 rmoveto
          141 230 rlineto
          9 hlineto
          1 -219 -71 -6 rlineto
          endchar
        </CharString>
        <CharString name="AEacute">
          274 0 44 -33 -21 598 49 -42 -20 315 -20 hstemhm
          366 72 hintmask 01101100
          266 35 rmoveto
          -6 -38 1 -7 rlineto
          hintmask 10101100
          -62 callsubr
          -2 6 rlineto
          -9 -57 -76 -3 -155 hhcurveto
          -71 -82 2 1 hvcurveto
          -13 -43 -53 callsubr
          hintmask 10011100
          4 callgsubr
          12 14 6 -5 -11 2 vhcurveto
          -291 -458 rlineto
          -35 -56 -36 -35 0 vvcurveto
          2 -34 rlineto
          0 44 4 22 61 71 -7 0 vhcurveto
          11 46 rlineto
          -54 hlineto
          -36 -13 8 22 13 4 10 17 28 hvcurveto
          84 140 89 9 96 8 2 -124 rlineto
          -36 vlineto
          -47 -38 -31 -63 -4 vhcurveto
          -53 275 rmoveto
          141 230 rlineto
          9 hlineto
          1 -219 -71 -6 rlineto
          346 532 -43 callgsubr
        </CharString>
        <CharString name="Aacute">
          -10 callsubr
          841 -20 -102 callgsubr
          hintmask 01100000
          0 70 10 73 32 69 -46 callsubr
          11 39 -2 3 -55 6 -19 15 -10 51 rlinecurve
          -152 433 rmoveto
          7 hlineto
          44 -267 rlineto
          -3 -22 -43 -3 -26 hhcurveto
          -85 hlineto
          333 516 rmoveto
          -16 48 -9 -51 callgsubr
          -105 -60 -94 -49 vhcurveto
          6 -24 8 -5 rlineto
          105 40 101 34 -49 callsubr
        </CharString>
        <CharString name="Abreve">
          -10 callsubr
          710 58 50 -20 hstemhm
          hintmask 01110000
          456 111 rmoveto
          -107 callsubr
          rlineto
          hintmask 10110000
          2 -7 rlineto
          hintmask 01110000
          0 70 10 73 32 69 -46 callsubr
          11 39 -2 3 -55 6 -19 15 -10 51 rlinecurve
          -152 433 rmoveto
          7 hlineto
          44 -267 rlineto
          -3 -22 -43 -3 -26 hhcurveto
          -85 hlineto
          174 497 -91 callgsubr
        </CharString>
        <CharString name="Acircumflex">
          -10 callsubr
          846 -20 -102 callgsubr
          hintmask 01100000
          0 70 10 73 32 69 -46 callsubr
          11 39 -2 3 -55 6 -19 15 -10 51 rlinecurve
          -152 433 rmoveto
          7 hlineto
          44 -267 rlineto
          -3 -22 -43 -3 -26 hhcurveto
          -85 hlineto
          42 442 -96 callsubr
        </CharString>
        <CharString name="Adieresis">
          -10 callsubr
          725 93 -102 callgsubr
          hintmask 01100000
          0 70 10 73 32 69 -46 callsubr
          11 39 -2 3 -55 6 -19 15 -10 51 rlinecurve
          -152 433 rmoveto
          7 hlineto
          44 -267 rlineto
          -3 -22 -43 -3 -26 hhcurveto
          -85 hlineto
          245 454 -102 callsubr
        </CharString>
        <CharString name="Agrave">
          -10 callsubr
          841 -20 -102 callgsubr
          hintmask 01100000
          0 70 10 73 32 69 -46 callsubr
          11 39 -2 3 -55 6 -19 15 -10 51 rlinecurve
          -152 433 rmoveto
          7 hlineto
          44 -267 rlineto
          -3 -22 -43 -3 -26 hhcurveto
          -85 hlineto
          30 506 -94 callgsubr
        </CharString>
        <CharString name="Amacron">
          -10 callsubr
          730 52 6 -20 -102 callgsubr
          hintmask 01010000
          0 70 10 73 32 69 -46 callsubr
          11 39 -2 3 -55 6 -19 15 -10 51 rlinecurve
          -152 433 rmoveto
          7 hlineto
          44 -267 rlineto
          -3 -22 -43 -3 -26 hhcurveto
          -85 hlineto
          314 517 rmoveto
          hintmask 01100000
          -86 callsubr
        </CharString>
        <CharString name="Aogonek">
          51 -242 59 204 -21 649 -20 hstem
          519 -160 -31 callgsubr
          42 23 30 65 62 vhcurveto
          50 -2 11 39 -2 3 -55 6 -19 15 -10 51 rlinecurve
          -107 callsubr
          2 -7 rlineto
          0 70 10 73 vhcurveto
          9 11 callsubr
          -225 723 rmoveto
          7 hlineto
          44 -267 rlineto
          -3 -22 -43 -3 -26 hhcurveto
          -85 hlineto
          endchar
        </CharString>
        <CharString name="Aring">
          -10 callsubr
          674 164 -102 callgsubr
          hintmask 01100000
          0 70 10 73 32 69 -46 callsubr
          11 39 -2 3 -55 6 -19 15 -10 51 rlinecurve
          -152 433 rmoveto
          7 hlineto
          44 -267 rlineto
          -3 -22 -43 -3 -26 hhcurveto
          -85 hlineto
          170 441 -77 callgsubr
        </CharString>
        <CharString name="Aringacute">
          -10 callsubr
          669 148 125 -20 hstemhm
          hintmask 01110000
          456 111 rmoveto
          -107 callsubr
          rlineto
          hintmask 10110000
          2 -7 rlineto
          hintmask 01110000
          0 70 10 73 32 69 -46 callsubr
          11 39 -2 3 -55 6 -19 15 -10 51 rlinecurve
          -152 433 rmoveto
          7 hlineto
          44 -267 rlineto
          -3 -22 -43 -3 -26 hhcurveto
          -85 hlineto
          176 433 12 callgsubr
          8 callgsubr
          129 -16 callgsubr
        </CharString>
        <CharString name="Atilde">
          -10 callsubr
          711 26 callgsubr
          hintmask 01101000
          456 111 rmoveto
          -107 callsubr
          rlineto
          hintmask 10101000
          2 -7 rlineto
          hintmask 01010000
          0 70 10 73 32 69 -46 callsubr
          11 39 -2 3 -55 6 -19 15 -10 51 rlinecurve
          -152 433 rmoveto
          7 hlineto
          44 -267 rlineto
          -3 -22 -43 -3 -26 hhcurveto
          -85 hlineto
          38 428 2 callgsubr
          hintmask 01101000
          -73 callsubr
          hintmask 01010000
          -60 callgsubr
        </CharString>
        <CharString name="B">
          64 -10 47 -28 -21 33 -21 596 -20 64 -20 hstemhm
          433 81 hintmask 00111100
          138 hmoveto
          hintmask 10011100
          49 45 -10 43 hhcurveto
          126 113 98 108 68 -49 52 -84 19 hvcurveto
          82 34 51 62 77 vvcurveto
          85 -70 47 -111 vhcurveto
          0 -67 -4 -35 -36 -68 3 0 vhcurveto
          -12 -41 1 callsubr
          29 -52 callsubr
          -52 -424 -7 -57 -18 -18 -62 -12 rlinecurve
          hintmask 01011100
          -10 -43 rlineto
          hintmask 00111100
          0 60 12 49 vhcurveto
          178 302 rmoveto
          78 -14 39 -43 -65 vvcurveto
          hintmask 10011100
          -86 -56 -57 -86 -81 -28 19 52 6 vhcurveto
          28 192 rlineto
          7 49 rmoveto
          13 88 13 75 11 67 rrcurveto
          18 4 3 5 14 hhcurveto
          106 50 -36 -75 -125 -109 -25 0 -13 -92 8 0 hvcurveto
          endchar
        </CharString>
        <CharString name="C">
          97 -12 45 561 54 -95 callgsubr
          endchar
        </CharString>
        <CharString name="Cacute">
          35 callsubr
          193 -20 -95 callgsubr
          249 799 rmoveto
          -16 48 -9 -51 callgsubr
          -105 -60 -94 -49 vhcurveto
          6 -24 8 -5 rlineto
          105 40 101 34 -49 callsubr
        </CharString>
        <CharString name="Ccaron">
          35 callsubr
          190 -20 -95 callgsubr
          246 849 -98 callsubr
        </CharString>
        <CharString name="Ccedilla">
          96 -24 callgsubr
          150 44 561 54 hstemhm
          45 87 hintmask 01111100
          254 -85 rmoveto
          -75 callgsubr
          hintmask 10111100
          -57 callgsubr
          17 39 rlineto
          105 4 69 35 0 vvcurveto
          6 9 rlineto
          15 70 31 90 0 vvcurveto
          -43 -4 rlineto
          -109 -38 -60 -51 -88 hhcurveto
          -119 -71 99 150 187 104 125 147 88 43 -28 -56 -20 37 callsubr
          -86 callgsubr
          -154 95 -101 144 -9 vhcurveto
          endchar
        </CharString>
        <CharString name="Ccircumflex">
          35 callsubr
          229 -20 -95 callgsubr
          -42 714 -87 callgsubr
        </CharString>
        <CharString name="Cdotaccent">
          35 callsubr
          71 110 -95 callgsubr
          101 731 -80 callsubr
        </CharString>
        <CharString name="D">
          168 -12 47 -14 -21 596 44 hstemhm
          567 86 hintmask 10110000
          286 -12 rmoveto
          201 166 177 211 157 -120 107 -171 hvcurveto
          0 -92 -4 -44 -37 -63 -19 callgsubr
          1 -4 rlineto
          0 22 2 12 28 -52 callsubr
          -52 -425 -7 -56 -18 -18 -62 -12 -37 callsubr
          hintmask 01110000
          0 64 12 48 vhcurveto
          hintmask 10110000
          48 98 -12 0 hvcurveto
          12 608 rmoveto
          175 94 -87 -153 -189 -104 -132 -158 -86 -28 15 57 36 27 156 44 275 hvcurveto
          18 3 7 4 26 hhcurveto
          endchar
        </CharString>
        <CharString name="Dcaron">
          167 -12 47 -14 -21 596 44 198 -20 hstemhm
          567 86 hintmask 10111000
          286 -12 rmoveto
          201 166 177 211 157 -120 107 -171 hvcurveto
          0 -92 -4 -44 -37 -63 -19 callgsubr
          1 -4 rlineto
          0 22 2 12 28 -52 callsubr
          -52 -425 -7 -56 -18 -18 -62 -12 -37 callsubr
          hintmask 01111000
          0 64 12 48 vhcurveto
          hintmask 10111000
          48 98 -12 0 hvcurveto
          12 608 rmoveto
          175 94 -87 -153 -189 -104 -132 -158 -86 -28 15 57 36 27 156 44 275 hvcurveto
          18 3 7 4 26 hhcurveto
          227 241 -98 callsubr
        </CharString>
        <CharString name="Dcroat">
          -78 callsubr
        </CharString>
        <CharString name="Delta">
          13 0 57 592 -20 hstem
          -10 hmoveto
          466 hlineto
          8 7 rlineto
          -45 225 -62 417 0 vvcurveto
          -8 hlineto
          -68 -17 -299 -619 rlineto
          315 527 rmoveto
          76 -483 rlineto
          -309 hlineto
          226 483 rlineto
          endchar
        </CharString>
        <CharString name="E">
          60 -61 callsubr
          72 -17 callgsubr
          185 80 rmoveto
          34 15 72 16 112 vhcurveto
          3 16 30 4 28 hhcurveto
          53 82 -3 0 hvcurveto
          20 56 -3 -30 callsubr
          -84 -11 -34 vhcurveto
          -29 -49 1 -21 hhcurveto
          31 199 rlineto
          38 6 4 1 63 hhcurveto
          117 25 -4 -46 -26 37 callsubr
          44 4 rlineto
          17 92 25 72 0 vvcurveto
          hintmask 10101100
          7 callgsubr
          hintmask 10110000
          -9 -64 -71 -3 -154 hhcurveto
          -57 -74 3 0 hvcurveto
          -11 -42 1 -3 rlineto
          hintmask 01101100
          -82 callsubr
          hintmask 10110000
          0 60 10 72 90 199 -7 0 vhcurveto
          38 callgsubr
          84 28 82 -34 callgsubr
          -41 -5 rlineto
          -111 -29 -19 -12 -154 hhcurveto
          -56 -16 4 35 hvcurveto
          endchar
        </CharString>
        <CharString name="Eacute">
          61 -61 callsubr
          265 -20 -104 callsubr
          hintmask 10110100
          0 60 10 72 90 199 -7 0 vhcurveto
          38 callgsubr
          84 28 82 -34 callgsubr
          -41 -5 rlineto
          -111 -29 -19 -12 -154 hhcurveto
          -56 -16 4 35 hvcurveto
          300 707 rmoveto
          -16 48 -9 -51 callgsubr
          -105 -60 -94 -49 vhcurveto
          6 -24 8 -5 rlineto
          105 40 101 34 -49 callsubr
        </CharString>
        <CharString name="Ebreve">
          61 -61 callsubr
          147 58 66 -20 hstemhm
          hintmask 10110110
          -105 callsubr
          hintmask 01101110
          -82 callsubr
          hintmask 10110110
          0 60 10 72 90 199 -7 0 vhcurveto
          38 callgsubr
          84 28 82 -34 callgsubr
          -41 -5 rlineto
          -111 -29 -19 -12 -154 hhcurveto
          -56 -16 4 35 hvcurveto
          183 701 -66 callsubr
        </CharString>
        <CharString name="Ecaron">
          61 -61 callsubr
          262 -20 -104 callsubr
          hintmask 10110100
          0 60 10 72 90 199 -7 0 vhcurveto
          38 callgsubr
          84 28 82 -34 callgsubr
          -41 -5 rlineto
          -111 -29 -19 -12 -154 hhcurveto
          -56 -16 4 35 hvcurveto
          319 757 -98 callsubr
        </CharString>
        <CharString name="Ecircumflex">
          61 -61 callsubr
          270 -20 -104 callsubr
          hintmask 10110100
          0 60 10 72 90 199 -7 0 vhcurveto
          38 callgsubr
          84 28 82 -34 callgsubr
          -41 -5 rlineto
          -111 -29 -19 -12 -154 hhcurveto
          -56 -16 4 35 hvcurveto
          51 633 -96 callsubr
        </CharString>
        <CharString name="Edieresis">
          61 -61 callsubr
          149 93 -104 callsubr
          hintmask 10110100
          0 60 10 72 90 199 -7 0 vhcurveto
          38 callgsubr
          84 28 82 -34 callgsubr
          -41 -5 rlineto
          -111 -29 -19 -12 -154 hhcurveto
          -56 -16 4 35 hvcurveto
          254 645 -102 callsubr
        </CharString>
        <CharString name="Edotaccent">
          61 -61 callsubr
          143 110 -104 callsubr
          hintmask 10110100
          0 60 10 72 90 199 -7 0 vhcurveto
          38 callgsubr
          84 28 82 -34 callgsubr
          -41 -5 rlineto
          -111 -29 -19 -12 -154 hhcurveto
          -56 -16 4 35 hvcurveto
          174 639 -80 callsubr
        </CharString>
        <CharString name="Egrave">
          61 -61 callsubr
          265 -20 -104 callsubr
          hintmask 10110100
          0 60 10 72 90 199 -7 0 vhcurveto
          38 callgsubr
          84 28 82 -34 callgsubr
          -41 -5 rlineto
          -111 -29 -19 -12 -154 hhcurveto
          -56 -16 4 35 hvcurveto
          39 697 -94 callgsubr
        </CharString>
        <CharString name="Emacron">
          61 -61 callsubr
          154 52 6 -20 -104 callsubr
          hintmask 10110010
          0 60 10 72 90 199 -7 0 vhcurveto
          38 callgsubr
          84 28 82 -34 callgsubr
          -41 -5 rlineto
          -111 -29 -19 -12 -154 hhcurveto
          -56 -16 4 35 hvcurveto
          323 708 rmoveto
          hintmask 10110100
          -86 callsubr
        </CharString>
        <CharString name="Eng">
          184 -133 -21 154 44 549 44 8 -20 hstemhm
          hintmask 11100000
          189 637 rmoveto
          -21 -58 5 0 hvcurveto
          -12 -37 3 -5 65 -10 15 -13 -5 -39 rlinecurve
          -62 -414 -11 -64 -16 -18 -44 -4 rlinecurve
          -11 -46 rlineto
          0 47 8 39 46 63 -4 0 vhcurveto
          14 46 -2 -30 callsubr
          -39 -2 -9 -23 -6 10 30 4 vhcurveto
          57 427 rlineto
          5 hlineto
          0 122 -222 140 -281 vhcurveto
          -23 -55 -38 -37 -71 -29 -4 -8 rcurveline
          13 -33 121 42 56 69 21 129 rlinecurve
          64 450 6 39 20 18 47 6 rlinecurve
          hintmask 11010000
          10 46 rlineto
          hintmask 11100000
          0 -56 -8 -41 -31 -61 4 0 vhcurveto
          -15 -45 -53 callsubr
          0 19 1 17 22 8 -14 -29 -3 vhcurveto
          -50 -405 rlineto
          -5 hlineto
          0 -151 274 -107 222 vhcurveto
          0 -56 -4 -15 vhcurveto
          endchar
        </CharString>
        <CharString name="Eogonek">
          61 -241 59 182 41 264 46 239 46 -40 -20 72 -20 hstemhm
          hintmask 11110000
          447 -159 -31 callgsubr
          41 22 29 60 59 vhcurveto
          28 -1 19 -1 0 vvcurveto
          38 callgsubr
          84 28 82 -34 callgsubr
          -41 -5 rlineto
          -111 -29 -19 -12 -154 hhcurveto
          -56 -16 4 35 34 15 72 16 112 hvcurveto
          3 16 30 4 28 hhcurveto
          53 82 -3 0 hvcurveto
          20 56 -3 -30 callsubr
          -84 -11 -34 vhcurveto
          -29 -49 1 -21 hhcurveto
          31 199 rlineto
          38 6 4 1 63 hhcurveto
          117 25 -4 -46 -26 37 callsubr
          44 4 rlineto
          17 92 25 72 0 vvcurveto
          hintmask 11101100
          7 callgsubr
          hintmask 11110000
          -9 -64 -71 -3 -154 hhcurveto
          -57 -74 3 0 hvcurveto
          -11 -42 1 -3 rlineto
          hintmask 11101100
          -82 callsubr
          0 60 10 72 50 85 -2 -2 65 vhcurveto
          -59 -55 -45 -48 -51 -48 callgsubr
          endchar
        </CharString>
        <CharString name="Eth">
          -78 callsubr
        </CharString>
        <CharString name="Euro">
          57 -9 46 133 153 -38 222 -52 52 -8 callgsubr
          352 210 rmoveto
          -175 -4 rlineto
          -6 14 hlineto
          23 2 22 4 20 vhcurveto
          187 1 7 30 -5 9 -175 -4 rlineto
          -5 hlineto
          hintmask 11010000
          84 27 64 50 84 hhcurveto
          68 33 -21 -42 -15 -7 -33 -11 callsubr
          74 23 60 -55 callsubr
          0 -81 19 -65 -133 -105 -74 -112 -43 vhcurveto
          -82 hlineto
          -8 -29 rlineto
          hintmask 10100000
          4 -7 rlineto
          74 hlineto
          -6 -25 -4 -27 -27 vvcurveto
          -74 hlineto
          -8 -29 rlineto
          hintmask 11010000
          4 -7 rlineto
          79 hlineto
          -111 13 82 -68 120 hhcurveto
          95 65 31 43 callsubr
          12 57 24 74 0 vvcurveto
          -46 -4 rlineto
          -83 -29 -45 -37 -68 hhcurveto
          -77 -50 50 83 -14 hvcurveto
          175 1 7 30 rlineto
          endchar
        </CharString>
        <CharString name="F">
          -17 0 40 -31 -21 299 47 256 46 -40 -20 72 -17 callgsubr
          213 280 rmoveto
          3 17 29 4 29 hhcurveto
          45 74 -3 0 hvcurveto
          19 57 -2 -30 callsubr
          -72 -11 -30 vhcurveto
          -99 1 33 216 rlineto
          38 6 4 1 63 hhcurveto
          100 24 -4 -45 -27 -9 -42 0 hvcurveto
          2 callsubr
          92 26 75 0 vvcurveto
          hintmask 10101100
          7 callgsubr
          hintmask 10110000
          -9 -62 -77 -3 -132 hhcurveto
          -57 -74 3 0 hvcurveto
          -11 -42 1 -3 rlineto
          hintmask 01101100
          0 22 2 11 29 5 -11 -43 25 callgsubr
          -56 -17 -18 -62 -12 rlinecurve
          -10 -43 rlineto
          hintmask 10110000
          0 61 12 47 51 91 -4 0 vhcurveto
          13 43 -1 -30 callsubr
          -49 -3 -20 -33 -8 21 47 7 vhcurveto
          endchar
        </CharString>
        <CharString name="G">
          16 callsubr
          -101 callgsubr
          endchar
        </CharString>
        <CharString name="Gbreve">
          16 callsubr
          82 58 50 -20 -101 callgsubr
          97 800 -91 callgsubr
        </CharString>
        <CharString name="Gcircumflex">
          16 callsubr
          229 -20 -101 callgsubr
          -55 714 -87 callgsubr
        </CharString>
        <CharString name="Gcommaaccent">
          133 -24 callsubr
          55 0 45 0 219 0 47 295 54 -101 callgsubr
          -76 -95 -99 callgsubr
          -44 callsubr
        </CharString>
        <CharString name="Gdotaccent">
          16 callsubr
          71 110 -101 callgsubr
          88 731 -80 callsubr
        </CharString>
        <CharString name="H">
          18 callsubr
          250 40 10 -20 hstemhm
          hintmask 10101000
          -15 callsubr
          hintmask 10110000
          -46 callgsubr
          hintmask 10101000
          8 43 rlineto
          hintmask 01110000
          0 -60 -10 -40 -37 -69 -53 callgsubr
          -48 -391 -8 -83 -10 -22 -73 -15 -37 callsubr
          hintmask 10110000
          -81 callsubr
          42 38 237 30 183 vhcurveto
          endchar
        </CharString>
        <CharString name="Hbar">
          18 callsubr
          103 46 101 40 10 -20 hstemhm
          hintmask 10110100
          -15 callsubr
          hintmask 10111000
          0 -71 -10 -45 -33 -58 3 1 1 vhcurveto
          -13 -43 2 -3 -33 callgsubr
          12 28 8 -11 -43 -7 vhcurveto
          -6 -46 rlineto
          -1 -46 -49 0 -41 hhcurveto
          -167 hlineto
          3 16 11 72 6 11 58 9 rlinecurve
          hintmask 10110100
          8 43 rlineto
          hintmask 01111000
          0 -60 -10 -40 -37 -69 -53 callgsubr
          -6 -47 rlineto
          -59 -46 1 0 hvcurveto
          -7 -39 9 -9 rlineto
          97 hlineto
          -36 -297 -8 -83 -10 -22 -73 -15 -37 callsubr
          hintmask 10111000
          -81 callsubr
          35 26 169 26 161 vhcurveto
          104 1 4 37 -13 13 rlineto
          0 -37 -2 -50 -1 vhcurveto
          2 17 3 16 3 16 rrcurveto
          -241 -97 rmoveto
          152 hlineto
          -12 -93 rlineto
          -7 -58 -38 -3 -49 -54 -55 1 -54 hhcurveto
          16 102 rlineto
          endchar
        </CharString>
        <CharString name="Hcircumflex">
          18 callsubr
          250 40 267 -20 hstemhm
          hintmask 01111000
          -15 callsubr
          -46 callgsubr
          8 43 rlineto
          0 -60 -10 -40 -37 -69 -53 callgsubr
          -48 -391 -8 -83 -10 -22 -73 -15 -37 callsubr
          hintmask 10111000
          -81 callsubr
          42 38 237 30 183 vhcurveto
          -332 182 -87 callgsubr
        </CharString>
        <CharString name="I">
          -161 0 42 -33 -21 608 -11 callgsubr
          hintmask 10001000
          256 546 rmoveto
          6 38 16 12 54 7 10 43 rcurveline
          hintmask 10100000
          0 -66 -10 -44 vhcurveto
          hintmask 10010000
          -39 -76 4 2 -70 callgsubr
          hintmask 01100000
          -84 callgsubr
          hintmask 10100000
          -90 callsubr
          endchar
        </CharString>
        <CharString name="IJ">
          153 -122 -21 143 42 553 -20 21 -11 callgsubr
          hintmask 11100100
          256 546 rmoveto
          6 38 16 12 54 7 10 43 rcurveline
          hintmask 11110000
          0 -66 -10 -44 vhcurveto
          hintmask 11101000
          -39 -76 4 2 -70 callgsubr
          hintmask 11110000
          -84 callgsubr
          -90 callsubr
          205 -432 -58 callgsubr
          -38 callgsubr
          endchar
        </CharString>
        <CharString name="Iacute">
          -52 callgsubr
          221 -20 -88 callgsubr
          hintmask 10101000
          -90 callsubr
          135 241 rmoveto
          -16 48 -9 -51 callgsubr
          -105 -60 -94 -49 vhcurveto
          6 -24 8 -5 rlineto
          105 40 101 34 -49 callsubr
        </CharString>
        <CharString name="Ibreve">
          -52 callgsubr
          100 58 50 -20 hstemhm
          hintmask 10101100
          256 546 rmoveto
          6 38 16 12 54 7 10 43 rcurveline
          0 -66 -10 -44 vhcurveto
          hintmask 10011100
          -39 -76 4 2 -70 callgsubr
          hintmask 01101100
          -84 callgsubr
          hintmask 10101100
          -90 callsubr
          -19 232 -91 callgsubr
        </CharString>
        <CharString name="Icircumflex">
          -52 callgsubr
          226 -20 -88 callgsubr
          hintmask 10101000
          -90 callsubr
          -146 167 -96 callsubr
        </CharString>
        <CharString name="Idieresis">
          -52 callgsubr
          105 93 -88 callgsubr
          hintmask 10101000
          -90 callsubr
          57 179 -102 callsubr
        </CharString>
        <CharString name="Idotaccent">
          -52 callgsubr
          99 110 -88 callgsubr
          hintmask 10101000
          -90 callsubr
          -23 173 -80 callsubr
        </CharString>
        <CharString name="Igrave">
          -52 callgsubr
          221 -20 -88 callgsubr
          hintmask 10101000
          -90 callsubr
          -158 231 -94 callgsubr
        </CharString>
        <CharString name="Imacron">
          -52 callgsubr
          110 52 6 -20 -88 callgsubr
          hintmask 10100100
          -90 callsubr
          126 242 rmoveto
          hintmask 10101000
          -86 callsubr
        </CharString>
        <CharString name="Iogonek">
          -160 -242 59 183 42 554 -11 callgsubr
          hintmask 11001000
          258 -160 -31 callgsubr
          42 23 30 64 62 vhcurveto
          23 -1 20 -1 0 vvcurveto
          14 44 -2 37 callgsubr
          -26 -11 10 33 42 39 239 31 180 vhcurveto
          6 38 16 12 54 7 10 43 rcurveline
          hintmask 11100000
          0 -66 -10 -44 vhcurveto
          hintmask 11010000
          -39 -76 4 2 -70 callgsubr
          hintmask 11100000
          -84 callgsubr
          0 63 12 48 vhcurveto
          40 hlineto
          -62 17 callgsubr
          endchar
        </CharString>
        <CharString name="Itilde">
          -52 callgsubr
          128 34 callsubr
          hintmask 10101010
          256 546 rmoveto
          6 38 16 12 54 7 10 43 rcurveline
          0 -66 -10 -44 vhcurveto
          hintmask 10011010
          -39 -76 4 2 -70 callgsubr
          hintmask 01101010
          -84 callgsubr
          hintmask 10100110
          -90 callsubr
          -153 180 23 callsubr
          hintmask 10101010
          -59 callgsubr
          hintmask 10100110
          -50 callsubr
        </CharString>
        <CharString name="J">
          -194 -122 -21 738 41 9 47 callsubr
          114 114 -58 callgsubr
          hintmask 11000000
          -38 callgsubr
          endchar
        </CharString>
        <CharString name="Jcircumflex">
          -193 -122 -21 738 41 241 -20 hstem
          114 114 -58 callgsubr
          -38 callgsubr
          -65 160 -87 callgsubr
        </CharString>
        <CharString name="K">
          94 0 42 -35 -21 610 40 10 -20 hstemhm
          hintmask 10010000
          -48 callsubr
          hintmask 01100000
          0 -60 -10 -41 -37 -68 -53 callgsubr
          64 -227 rmoveto
          140 -243 rlineto
          -53 31 35 -33 31 hhcurveto
          10 69 12 0 hvcurveto
          9 32 -3 3 rlineto
          -45 -29 23 62 -39 hvcurveto
          -136 221 178 174 66 62 21 14 34 6 rlinecurve
          10 39 -6 callgsubr
          -50 -4 -37 -36 -68 -12 callsubr
          39 -3 18 -9 -16 vvcurveto
          -14 -11 -16 -25 -24 vhcurveto
          -198 -189 rlineto
          endchar
        </CharString>
        <CharString name="Kcommaaccent">
          98 -24 callsubr
          67 0 42 554 40 10 -20 hstemhm
          hintmask 10101000
          -48 callsubr
          hintmask 11010000
          0 -60 -10 -41 -37 -68 -53 callgsubr
          64 -227 rmoveto
          140 -243 rlineto
          -53 31 35 -33 31 hhcurveto
          10 69 12 0 hvcurveto
          9 32 -3 3 rlineto
          -45 -29 23 62 -39 hvcurveto
          -136 221 178 174 66 62 21 14 34 6 rlinecurve
          10 39 -6 callgsubr
          -50 -4 -37 -36 -68 -12 callsubr
          39 -3 18 -9 -16 vvcurveto
          -14 -11 -16 -25 -24 vhcurveto
          -198 -189 rlineto
          -24 -435 -99 callgsubr
          -44 callsubr
        </CharString>
        <CharString name="L">
          -22 0 41 -30 -21 606 -11 callgsubr
          hintmask 10001000
          167 hmoveto
          -83 callsubr
          hintmask 10100000
          32 callgsubr
          hintmask 10010000
          -36 -71 4 1 -70 callgsubr
          hintmask 01100000
          -62 callgsubr
          hintmask 10100000
          31 callsubr
          endchar
        </CharString>
        <CharString name="Lacute">
          -19 0 41 -30 -21 606 40 4 -20 221 -20 hstemhm
          hintmask 10101000
          167 hmoveto
          -83 callsubr
          32 callgsubr
          hintmask 10011000
          -36 -71 4 1 -70 callgsubr
          hintmask 01101000
          -62 callgsubr
          hintmask 10101000
          31 callsubr
          240 787 rmoveto
          -16 48 -9 -51 callgsubr
          -105 -60 -94 -49 vhcurveto
          6 -24 8 -5 rlineto
          105 40 101 34 -49 callsubr
        </CharString>
        <CharString name="Lcaron">
          -19 0 41 -30 -21 606 -11 callgsubr
          hintmask 10010000
          496 634 rmoveto
          -70 -14 rlineto
          0 10 -108 -4 -110 vhcurveto
          11 -2 25 14 rlineto
          hintmask 10001000
          21 102 14 110 0 vvcurveto
          -336 -626 rmoveto
          -83 callsubr
          hintmask 10100000
          32 callgsubr
          hintmask 10010000
          -36 -71 4 1 -70 callgsubr
          hintmask 01100000
          -62 callgsubr
          hintmask 10100000
          31 callsubr
          endchar
        </CharString>
        <CharString name="Lcommaaccent">
          -19 -24 callsubr
          67 0 41 555 -11 callgsubr
          hintmask 10100100
          167 hmoveto
          -83 callsubr
          hintmask 11010000
          32 callgsubr
          hintmask 11001000
          -36 -71 4 1 -70 callgsubr
          hintmask 10110000
          -62 callgsubr
          31 callsubr
          23 -9 callsubr
          hintmask 11010000
          -44 callsubr
        </CharString>
        <CharString name="Ldot">
          -19 0 41 -30 -21 423 119 64 -11 callgsubr
          hintmask 10100100
          167 hmoveto
          -83 callsubr
          hintmask 10110000
          32 callgsubr
          hintmask 10101000
          -36 -71 4 1 -70 callgsubr
          hintmask 01110000
          -62 callgsubr
          hintmask 10110000
          31 callsubr
          268 413 -32 callsubr
        </CharString>
        <CharString name="Lslash">
          -19 0 41 -30 -21 606 -11 callgsubr
          hintmask 10001000
          167 hmoveto
          89 166 -9 0 hvcurveto
          5 5 rlineto
          23 97 28 89 0 5 callgsubr
          1 vvcurveto
          -42 -4 rlineto
          -123 -35 -23 -18 -113 hhcurveto
          -62 -14 9 41 21 16 115 17 111 hvcurveto
          163 80 -5 31 -8 5 -143 -71 22 125 16 83 3 4 56 9 rlinecurve
          8 42 rlineto
          hintmask 10100000
          32 callgsubr
          hintmask 10010000
          -36 -71 4 1 -70 callgsubr
          hintmask 01100000
          0 22 2 11 27 7 -10 -44 -5 vhcurveto
          -24 -189 -120 -60 5 -32 9 -3 101 50 -24 -191 -7 -57 -18 -19 -50 -8 rlinecurve
          -12 -43 rlineto
          hintmask 10100000
          31 callsubr
          endchar
        </CharString>
        <CharString name="M">
          306 0 41 -39 -21 661 47 callsubr
          374 -13 rmoveto
          84 176 85 179 85 187 rrcurveto
          5 hlineto
          0 -17 -410 -4 -34 vhcurveto
          -4 -29 -19 -16 -40 -5 -9 -43 rcurveline
          0 56 8 42 35 55 -46 callsubr
          14 43 rlineto
          1 48 callgsubr
          0 -16 -2 -11 -31 -7 17 79 2 vhcurveto
          3 143 15 242 3 27 3 33 22 15 57 7 9 34 rcurveline
          5 callgsubr
          1 vvcurveto
          0 -77 -6 -28 -18 -43 5 -2 1 vhcurveto
          -125 -296 -99 -209 0 vvcurveto
          -4 hlineto
          0 -56 207 -54 299 vhcurveto
          0 -35 -4 -28 -30 -73 5 0 vhcurveto
          -11 -32 -53 callsubr
          54 -4 24 -15 -31 vvcurveto
          -23 -75 -341 -16 -78 vhcurveto
          -12 -54 -18 -18 -40 -6 -11 -43 rcurveline
          0 44 8 38 32 60 -4 0 vhcurveto
          14 43 rlineto
          1 48 callgsubr
          0 -30 -1 -10 -18 -8 8 17 20 89 443 0 vhcurveto
          4 hlineto
          hintmask 01100000
          41 -187 41 -183 40 -178 rrcurveto
          endchar
        </CharString>
        <CharString name="N">
          182 19 callsubr
          9 -20 hstemhm
          hintmask 11110000
          -99 callsubr
          hintmask 11101000
          10 44 rlineto
          hintmask 11110000
          -69 callsubr
          endchar
        </CharString>
        <CharString name="Nacute">
          10 callsubr
          205 -20 hstem
          -99 callsubr
          10 44 rlineto
          -69 callsubr
          54 653 rmoveto
          -16 48 -9 -51 callgsubr
          -105 -60 -94 -49 vhcurveto
          6 -24 8 -5 rlineto
          105 40 101 34 -49 callsubr
        </CharString>
        <CharString name="Ncaron">
          10 callsubr
          202 -20 hstem
          -99 callsubr
          10 44 rlineto
          -69 callsubr
          31 703 -98 callsubr
        </CharString>
        <CharString name="Ncommaaccent">
          184 -272 -21 293 24 callsubr
          9 -20 hstemhm
          hintmask 11110000
          -99 callsubr
          hintmask 11101000
          10 44 rlineto
          hintmask 11110000
          -69 callsubr
          -268 -241 -99 callgsubr
          -44 callsubr
        </CharString>
        <CharString name="Ntilde">
          10 callsubr
          75 26 callgsubr
          hintmask 11110100
          -99 callsubr
          10 44 rlineto
          -69 callsubr
          -241 565 2 callgsubr
          hintmask 11111010
          -73 callsubr
          hintmask 11110100
          -60 callgsubr
        </CharString>
        <CharString name="O">
          158 -12 47 558 55 -25 callsubr
          -103 callsubr
          endchar
        </CharString>
        <CharString name="OE">
          416 -12 57 -44 44 258 50 234 48 -48 62 -58 -20 hstemhm
          45 90 hintmask 10101010
          546 105 rmoveto
          26 191 76 7 rlineto
          51 82 -3 0 hvcurveto
          21 59 -3 5 rlineto
          0 -84 -11 -35 vhcurveto
          -99 1 32 194 rlineto
          37 6 3 2 62 hhcurveto
          114 25 -5 -46 -25 -9 -38 0 hvcurveto
          49 4 rlineto
          17 92 26 74 -55 callsubr
          hintmask 10110010
          -10 -70 -88 -4 -136 hhcurveto
          hintmask 10101010
          -79 -74 14 -66 hhcurveto
          -190 -155 -176 -220 -156 97 -109 138 hvcurveto
          hintmask 01100110
          68 69 13 98 hhcurveto
          93 199 -8 0 hvcurveto
          6 6 rlineto
          19 85 27 83 -34 callgsubr
          -45 -5 rlineto
          -110 -29 -20 -12 -149 hhcurveto
          -69 -6 6 54 7 hvcurveto
          -240 -65 rmoveto
          -106 -65 97 143 183 103 128 133 135 33 -25 -99 -12 hvcurveto
          -33 -259 rlineto
          -123 -17 -50 -45 -121 hhcurveto
          endchar
        </CharString>
        <CharString name="Oacute">
          -30 callgsubr
          193 -20 -25 callsubr
          -103 callsubr
          243 799 rmoveto
          -16 48 -9 -51 callgsubr
          -105 -60 -94 -49 vhcurveto
          6 -24 8 -5 rlineto
          105 40 101 34 -49 callsubr
        </CharString>
        <CharString name="Obreve">
          -30 callgsubr
          85 58 66 -20 -25 callsubr
          -103 callsubr
          100 803 -66 callsubr
        </CharString>
        <CharString name="Ocircumflex">
          -30 callgsubr
          198 -20 -25 callsubr
          -103 callsubr
          -28 725 -96 callsubr
        </CharString>
        <CharString name="Odieresis">
          -30 callgsubr
          77 93 -25 callsubr
          -103 callsubr
          175 737 -102 callsubr
        </CharString>
        <CharString name="Ograve">
          -30 callgsubr
          193 -20 -25 callsubr
          -103 callsubr
          -30 789 -94 callgsubr
        </CharString>
        <CharString name="Ohungarumlaut">
          -30 callgsubr
          189 -20 -25 callsubr
          -103 callsubr
          159 802 rmoveto
          -22 43 -9 4 44 callgsubr
          -53 vhcurveto
          9 -21 8 -5 -1 callsubr
          143 hmoveto
          -22 42 -9 5 44 callgsubr
          -54 vhcurveto
          10 -21 7 -4 -1 callsubr
          endchar
        </CharString>
        <CharString name="Omacron">
          -30 callgsubr
          82 48 callsubr
          -10 callgsubr
          hintmask 11011100
          -103 callsubr
          254 800 rmoveto
          hintmask 11101100
          -86 callsubr
        </CharString>
        <CharString name="Omega">
          309 1 55 -41 -21 595 60 hstemhm
          124 86 hintmask 10110000
          728 10 rmoveto
          10 72 30 92 0 vvcurveto
          -41 -5 rlineto
          -88 -25 -25 -25 -61 hhcurveto
          -101 hlineto
          121 80 82 133 134 vvcurveto
          145 -107 101 -152 -183 -152 -146 -182 -96 43 -100 75 -69 vhcurveto
          -87 hlineto
          -62 -19 27 91 -2 hvcurveto
          -39 -5 rlineto
          0 5 -87 -7 -72 vhcurveto
          hintmask 01110000
          14 -16 237 14 rlineto
          hintmask 10110000
          40 -7 10 23 rlineto
          -78 70 -44 114 111 vvcurveto
          163 103 107 138 108 67 -86 -125 -132 -51 -97 -153 -126 vhcurveto
          4 -21 41 6 rlineto
          hintmask 01110000
          244 -14 rlineto
          endchar
        </CharString>
        <CharString name="Oslash">
          156 -77 -21 86 47 558 55 60 -75 callsubr
          endchar
        </CharString>
        <CharString name="Oslashacute">
          156 -77 -21 86 47 558 55 193 -75 callsubr
          399 502 rmoveto
          -16 48 -9 -51 callgsubr
          -105 -60 -94 -49 vhcurveto
          6 -24 8 -5 rlineto
          105 40 101 34 -49 callsubr
        </CharString>
        <CharString name="Otilde">
          -30 callgsubr
          63 26 callgsubr
          -10 callgsubr
          hintmask 11010110
          -103 callsubr
          -22 711 2 callgsubr
          hintmask 11101110
          -73 callsubr
          hintmask 11010110
          -60 callgsubr
        </CharString>
        <CharString name="P">
          21 0 41 -28 -21 604 44 hstemhm
          457 78 hintmask 01110000
          115 598 rmoveto
          1 callsubr
          28 6 -39 callgsubr
          -52 -425 -7 -57 -15 -14 -58 -11 rlinecurve
          -12 -43 rlineto
          hintmask 10110000
          3 2 88 5 53 hhcurveto
          30 55 -2 -1 hvcurveto
          14 44 rlineto
          5 callgsubr
          1 vvcurveto
          0 -34 -4 -19 -33 -11 13 38 6 vhcurveto
          23 154 rlineto
          92 hlineto
          123 113 118 125 98 -73 53 -120 hvcurveto
          0 -84 -4 -26 vhcurveto
          -36 -71 4 2 hhcurveto
          90 -339 rmoveto
          13 95 16 102 17 84 rrcurveto
          13 2 -1 1 26 hhcurveto
          114 53 -40 -87 -104 -50 -65 -90 -14 hvcurveto
          endchar
        </CharString>
        <CharString name="Q">
          163 -214 73 129 47 558 55 -25 callsubr
          286 -12 rmoveto
          1 hlineto
          -172 206 55 -30 92 hhcurveto
          18 78 66 0 hvcurveto
          -3 15 -4 2 rlineto
          0 -32 -10 -46 -77 -77 36 99 -126 vhcurveto
          6 vlineto
          156 42 117 155 185 vvcurveto
          156 -101 110 -146 -193 -159 -178 -216 -157 99 -109 142 vhcurveto
          25 47 rmoveto
          -111 -73 99 151 175 103 133 138 114 75 -99 -151 -177 -104 -131 -142 hvcurveto
          endchar
        </CharString>
        <CharString name="R">
          78 -1 40 -34 -21 612 -20 64 -20 hstemhm
          443 79 hintmask 01111000
          -84 callsubr
          rlineto
          hintmask 10111000
          -7 -58 -16 -13 -61 -7 -14 -43 rcurveline
          0 62 4 47 -1 vhcurveto
          45 -1 55 -2 0 vvcurveto
          13 40 -1 3 rlineto
          -62 -7 10 73 10 hvcurveto
          22 154 rlineto
          9 52 rmoveto
          9 72 9 72 21 107 rrcurveto
          18 5 3 5 13 hhcurveto
          108 54 -40 -76 -138 -126 -31 2 1 hvcurveto
          endchar
        </CharString>
        <CharString name="Racute">
          82 -1 40 -34 -21 612 -20 64 -20 221 -76 callgsubr
          193 469 rmoveto
          -16 48 -9 -51 callgsubr
          -105 -60 -94 -49 vhcurveto
          6 -24 8 -5 rlineto
          105 40 101 34 -49 callsubr
        </CharString>
        <CharString name="Rcaron">
          82 -1 40 -34 -21 612 -20 64 -20 218 -76 callgsubr
          170 519 -98 callsubr
        </CharString>
        <CharString name="Rcommaaccent">
          82 -272 -21 292 40 0 237 320 -20 64 -20 hstemhm
          443 79 hintmask 11011100
          -84 callsubr
          -7 -58 -16 -13 -61 -7 rlinecurve
          -14 -43 rlineto
          0 62 4 47 -1 vhcurveto
          45 -1 55 -2 0 vvcurveto
          13 40 -1 3 rlineto
          -62 -7 10 73 10 hvcurveto
          hintmask 10111100
          22 154 rlineto
          9 52 rmoveto
          9 72 9 72 21 107 rrcurveto
          18 5 3 5 13 hhcurveto
          108 54 -40 -76 -138 -126 -31 2 1 hvcurveto
          -109 -425 -99 callgsubr
          -44 callsubr
        </CharString>
        <CharString name="S">
          0 -12 44 567 49 hstem
          96 74 191 81 vstem
          192 -12 rmoveto
          148 102 90 117 97 -119 44 -80 54 hvcurveto
          -41 29 -32 30 43 vvcurveto
          61 60 46 76 77 28 -19 -55 -30 -11 -44 0 vhcurveto
          5 -5 36 4 rlineto
          17 92 24 77 -34 callgsubr
          rlineto
          0 -67 24 -85 -131 -101 -89 -109 -86 85 -44 74 -44 vhcurveto
          57 -34 49 -35 -53 vvcurveto
          -73 -62 -49 -88 -105 -17 29 149 18 vhcurveto
          -41 -5 rlineto
          -12 -99 -22 -75 0 vvcurveto
          4 -10 rlineto
          0 66 -33 90 vhcurveto
          endchar
        </CharString>
        <CharString name="Sacute">
          2 -12 44 567 49 193 -20 hstem
          96 74 191 81 vstem
          192 -12 rmoveto
          148 102 90 117 97 -119 44 -80 54 hvcurveto
          -41 29 -32 30 43 vvcurveto
          61 60 46 76 77 28 -19 -55 -30 -11 -44 0 vhcurveto
          5 -5 36 4 rlineto
          17 92 24 77 -34 callgsubr
          rlineto
          0 -67 24 -85 -131 -101 -89 -109 -86 85 -44 74 -44 vhcurveto
          57 -34 49 -35 -53 vvcurveto
          -73 -62 -49 -88 -105 -17 29 149 18 vhcurveto
          -41 -5 rlineto
          -12 -99 -22 -75 0 vvcurveto
          4 -10 rlineto
          0 66 -33 90 vhcurveto
          287 799 rmoveto
          -16 48 -9 -51 callgsubr
          -105 -60 -94 -49 vhcurveto
          6 -24 8 -5 rlineto
          105 40 101 34 -49 callsubr
        </CharString>
        <CharString name="Scaron">
          2 -12 44 567 49 190 -20 hstem
          96 74 191 81 vstem
          192 -12 rmoveto
          148 102 90 117 97 -119 44 -80 54 hvcurveto
          -41 29 -32 30 43 vvcurveto
          61 60 46 76 77 28 -19 -55 -30 -11 -44 0 vhcurveto
          5 -5 36 4 rlineto
          17 92 24 77 -34 callgsubr
          rlineto
          0 -67 24 -85 -131 -101 -89 -109 -86 85 -44 74 -44 vhcurveto
          57 -34 49 -35 -53 vvcurveto
          -73 -62 -49 -88 -105 -17 29 149 18 vhcurveto
          -41 -5 rlineto
          -12 -99 -22 -75 0 vvcurveto
          4 -10 rlineto
          0 66 -33 90 vhcurveto
          274 849 -98 callsubr
        </CharString>
        <CharString name="Scedilla">
          2 -24 callgsubr
          149 44 567 49 hstemhm
          96 74 191 81 hintmask 01111110
          161 -85 rmoveto
          -75 callgsubr
          hintmask 10111110
          -57 callgsubr
          18 41 rlineto
          125 14 84 84 106 vvcurveto
          97 -119 44 -80 54 vhcurveto
          -41 29 -32 30 43 vvcurveto
          61 60 46 76 77 28 -19 -55 -30 -11 -44 0 vhcurveto
          5 -5 36 4 rlineto
          17 92 24 77 -34 callgsubr
          rlineto
          0 -67 24 -85 -131 -101 -89 -109 -86 85 -44 74 -44 vhcurveto
          57 -34 49 -35 -53 vvcurveto
          -73 -62 -49 -88 -105 -17 29 149 18 vhcurveto
          -41 -5 rlineto
          -12 -99 -22 -75 0 vvcurveto
          4 -10 rlineto
          0 66 -33 89 vhcurveto
          endchar
        </CharString>
        <CharString name="Scircumflex">
          2 -12 44 567 49 229 -20 hstem
          96 74 191 81 vstem
          192 -12 rmoveto
          148 102 90 117 97 -119 44 -80 54 hvcurveto
          -41 29 -32 30 43 vvcurveto
          61 60 46 76 77 28 -19 -55 -30 -11 -44 0 vhcurveto
          5 -5 36 4 rlineto
          17 92 24 77 -34 callgsubr
          rlineto
          0 -67 24 -85 -131 -101 -89 -109 -86 85 -44 74 -44 vhcurveto
          57 -34 49 -35 -53 vvcurveto
          -73 -62 -49 -88 -105 -17 29 149 18 vhcurveto
          -41 -5 rlineto
          -12 -99 -22 -75 0 vvcurveto
          4 -10 rlineto
          0 66 -33 90 vhcurveto
          5 714 -87 callgsubr
        </CharString>
        <CharString name="Scommaaccent">
          2 -24 callsubr
          55 0 44 567 49 hstemhm
          96 74 191 81 hintmask 10111100
          192 -12 rmoveto
          148 102 90 117 97 -119 44 -80 54 hvcurveto
          -41 29 -32 30 43 vvcurveto
          61 60 46 76 77 28 -19 -55 -30 -11 -44 0 vhcurveto
          5 -5 36 4 rlineto
          17 92 24 77 -34 callgsubr
          rlineto
          0 -67 24 -85 -131 -101 -89 -109 -86 85 -44 74 -44 vhcurveto
          57 -34 49 -35 -53 vvcurveto
          -73 -62 -49 -88 -105 -17 29 149 18 vhcurveto
          -41 -5 rlineto
          -12 -99 -22 -75 0 vvcurveto
          4 -10 rlineto
          0 66 -33 90 vhcurveto
          -49 -95 -99 callgsubr
          hintmask 11011100
          -44 callsubr
        </CharString>
        <CharString name="T">
          16 0 41 -24 -21 641 -20 31 -20 hstemhm
          hintmask 01010000
          -36 callgsubr
          hintmask 10010000
          0 83 4 46 46 94 -46 callsubr
          -70 callsubr
          rlineto
          hintmask 10100000
          24 callgsubr
          hintmask 10010000
          -61 callgsubr
          endchar
        </CharString>
        <CharString name="Tbar">
          19 0 41 -24 -21 313 46 282 -20 31 -20 hstemhm
          hintmask 01101000
          -36 callgsubr
          hintmask 10101000
          0 83 4 46 46 94 -46 callsubr
          14 43 -2 -30 callsubr
          -20 -3 -35 -33 -14 15 36 18 13 95 16 104 vhcurveto
          96 1 4 37 -13 13 -80 -4 16 102 17 101 9 43 rlinecurve
          142 -7 3 -3 3 -119 44 4 rcurveline
          0 -2 81 8 83 vhcurveto
          -8 7 rlineto
          hintmask 10110000
          24 callgsubr
          hintmask 10101000
          -61 callgsubr
          -30 -247 -97 1 -7 -39 9 -9 89 1 rlineto
          endchar
        </CharString>
        <CharString name="Tcaron">
          19 0 41 -24 -21 641 -20 221 -20 hstemhm
          hintmask 01110000
          -36 callgsubr
          hintmask 10110000
          0 83 4 46 46 94 -46 callsubr
          -70 callsubr
          24 callgsubr
          -61 callgsubr
          199 235 -98 callsubr
        </CharString>
        <CharString name="Tcedilla">
          19 -24 callgsubr
          161 41 596 -20 31 -20 hstemhm
          hintmask 01110100
          183 -85 rmoveto
          -75 callgsubr
          hintmask 10110100
          -57 callgsubr
          22 50 rlineto
          47 -1 57 -2 0 vvcurveto
          -70 callsubr
          rlineto
          hintmask 01111000
          24 callgsubr
          hintmask 01110100
          -61 callgsubr
          -53 -440 -14 -108 -8 -9 -90 -9 rlinecurve
          -12 -40 rlineto
          0 78 4 46 vhcurveto
          endchar
        </CharString>
        <CharString name="Thorn">
          16 0 44 -35 -21 466 49 91 43 3 3 callgsubr
          432 87 hintmask 10100110
          260 544 rmoveto
          6 38 15 12 54 7 10 45 rcurveline
          hintmask 10110010
          0 -69 -9 -44 vhcurveto
          hintmask 10101010
          -40 -74 3 -1 hhcurveto
          -13 -44 -53 callsubr
          hintmask 01110010
          0 26 2 14 29 5 -12 -42 -5 vhcurveto
          -52 -420 -7 -56 -19 -18 -61 -12 rlinecurve
          -12 -46 rlineto
          hintmask 10110010
          0 65 12 49 45 82 -26 callgsubr
          -34 -6 14 54 6 vhcurveto
          5 36 rlineto
          68 hlineto
          129 124 97 115 92 -66 51 -122 hvcurveto
          -78 hlineto
          -10 -57 rmoveto
          7 2 3 1 21 hhcurveto
          112 51 -36 -77 -86 -44 -52 -87 -11 hvcurveto
          -27 1 -46 8 -22 8 7 51 11 71 19 115 rrcurveto
          endchar
        </CharString>
        <CharString name="U">
          148 -12 53 555 40 10 47 callsubr
          222 546 rmoveto
          7 38 13 12 49 7 9 43 rcurveline
          hintmask 11000000
          0 -60 -10 -41 -36 -70 -63 callgsubr
          -12 -41 1 -4 -33 callgsubr
          12 30 -52 callsubr
          -41 -332 rlineto
          -2 -14 -1 -13 -13 vvcurveto
          -116 -1 65 -66 121 hhcurveto
          150 97 80 138 17 hvcurveto
          42 340 5 42 11 8 57 7 rlinecurve
          hintmask 10100000
          10 43 rlineto
          hintmask 11000000
          0 -53 -10 -41 -36 -71 -19 callgsubr
          rlineto
          -4 vlineto
          0 31 2 12 28 4 -8 -46 -3 vhcurveto
          0 -26 -257 -9 -70 vhcurveto
          -113 -13 -65 -61 -107 hhcurveto
          -92 -48 57 104 15 1 17 2 18 hvcurveto
          endchar
        </CharString>
        <CharString name="Uacute">
          -38 callsubr
          205 -20 hstem
          -107 callgsubr
          386 535 rmoveto
          -16 48 -9 -51 callgsubr
          -105 -60 -94 -49 vhcurveto
          6 -24 8 -5 rlineto
          105 40 101 34 -49 callsubr
        </CharString>
        <CharString name="Ubreve">
          -38 callsubr
          97 58 66 -20 hstem
          -107 callgsubr
          216 539 -66 callsubr
        </CharString>
        <CharString name="Ucircumflex">
          -38 callsubr
          210 -20 hstem
          -107 callgsubr
          95 461 -96 callsubr
        </CharString>
        <CharString name="Udieresis">
          -38 callsubr
          89 93 hstem
          -107 callgsubr
          298 473 -102 callsubr
        </CharString>
        <CharString name="Ugrave">
          -38 callsubr
          205 -20 hstem
          -107 callgsubr
          83 525 -94 callgsubr
        </CharString>
        <CharString name="Uhungarumlaut">
          -38 callsubr
          201 -20 hstem
          -107 callgsubr
          302 538 rmoveto
          -22 43 -9 4 44 callgsubr
          -53 vhcurveto
          9 -21 8 -5 -1 callsubr
          143 hmoveto
          -22 42 -9 5 44 callgsubr
          -54 vhcurveto
          10 -21 7 -4 -1 callsubr
          endchar
        </CharString>
        <CharString name="Umacron">
          -38 callsubr
          94 48 callsubr
          hintmask 11010000
          -107 callgsubr
          367 536 rmoveto
          hintmask 11100000
          -86 callsubr
        </CharString>
        <CharString name="Uogonek">
          145 -241 59 170 53 555 40 10 -20 hstemhm
          hintmask 11010000
          467 -159 rmoveto
          0 -40 -23 -37 -29 -20 19 29 37 21 29 111 113 vhcurveto
          41 41 28 57 8 63 42 340 rcurveline
          3 39 10 9 60 9 10 43 rcurveline
          hintmask 11100000
          0 -53 -10 -41 -36 -71 -19 callgsubr
          rlineto
          -4 vlineto
          0 31 2 12 28 4 -7 -47 -3 vhcurveto
          0 -26 -257 -9 -70 vhcurveto
          -114 -14 -65 -60 -106 hhcurveto
          -91 -49 56 105 15 1 17 2 18 hvcurveto
          44 294 6 38 14 12 49 7 rlinecurve
          hintmask 11010000
          9 43 rlineto
          hintmask 11100000
          0 -60 -10 -41 -36 -70 -63 callgsubr
          -12 -41 1 -4 -33 callgsubr
          12 29 6 -10 -44 -5 vhcurveto
          -41 -332 rlineto
          -2 -14 -1 -13 -13 vvcurveto
          -117 -1 66 -65 120 hhcurveto
          33 32 4 8 28 hvcurveto
          -72 -71 -30 -47 -40 vvcurveto
          -51 37 -32 59 -16 callsubr
          endchar
        </CharString>
        <CharString name="Uring">
          -38 callsubr
          38 164 hstem
          -107 callgsubr
          223 460 -77 callgsubr
        </CharString>
        <CharString name="Utilde">
          -38 callsubr
          112 34 callsubr
          hintmask 11011000
          -107 callgsubr
          76 474 23 callsubr
          hintmask 11101000
          -59 callgsubr
          hintmask 11011000
          -50 callsubr
        </CharString>
        <CharString name="V">
          77 4 -21 665 -20 hstem
          122 538 rmoveto
          51 -269 54 -286 0 vvcurveto
          58 22 268 542 20 38 11 8 40 2 rlinecurve
          13 45 rlineto
          0 -60 -4 -46 -63 -73 8 0 vhcurveto
          -11 -41 -53 callsubr
          51 hlineto
          43 19 -11 -25 -28 -151 -301 -68 -141 hvcurveto
          -8 hlineto
          0 -66 421 46 vvcurveto
          30 11 9 80 5 vhcurveto
          9 37 -2 7 rlineto
          0 -95 -12 -50 -32 -77 -63 callgsubr
          -12 -40 1 -4 50 -1 26 -18 7 -38 rlinecurve
          endchar
        </CharString>
        <CharString name="W">
          386 4 -21 665 -20 hstem
          -105 callgsubr
          endchar
        </CharString>
        <CharString name="Wacute">
          390 4 -21 858 -20 hstem
          -105 callgsubr
          148 804 rmoveto
          -16 48 -9 -51 callgsubr
          -105 -60 -94 -49 vhcurveto
          6 -24 8 -5 rlineto
          105 40 101 34 -49 callsubr
        </CharString>
        <CharString name="Wcircumflex">
          390 4 -21 863 -20 hstem
          -105 callgsubr
          -143 730 -96 callsubr
        </CharString>
        <CharString name="Wdieresis">
          390 4 -21 621 214 -93 93 hstemhm
          hintmask 11000000
          -105 callgsubr
          hintmask 10100000
          60 742 -102 callsubr
        </CharString>
        <CharString name="Wgrave">
          390 4 -21 858 -20 hstem
          -105 callgsubr
          -155 794 -94 callgsubr
        </CharString>
        <CharString name="X">
          120 13 -21 29 -21 644 -20 21 -20 -8 callsubr
          170 180 rmoveto
          -68 -75 -46 -46 -60 -18 -10 -38 rcurveline
          3 -7 rlineto
          0 57 4 36 36 68 -7 0 vhcurveto
          12 41 -2 3 rlineto
          -36 3 -16 8 16 vvcurveto
          20 10 16 51 59 vhcurveto
          108 125 83 -168 rlineto
          8 -17 6 -14 -11 vvcurveto
          -25 -26 -11 -55 -3 vhcurveto
          -8 -36 rlineto
          hintmask 10100000
          2 -7 rlineto
          hintmask 01100000
          0 94 8 54 44 74 -46 callsubr
          11 44 -61 6 -33 25 -28 52 rlinecurve
          -116 218 137 154 62 69 22 24 59 10 rlinecurve
          10 35 -3 -51 callgsubr
          -55 -4 -37 vhcurveto
          -35 -71 8 1 hhcurveto
          -9 -37 rlineto
          -1 1 -2 -1 vvcurveto
          36 -4 17 -7 -16 vvcurveto
          -29 -103 -109 -52 -64 vhcurveto
          -50 102 -34 74 18 vvcurveto
          22 24 11 57 4 vhcurveto
          7 33 rlineto
          hintmask 01010000
          -2 7 rlineto
          0 -53 -9 -77 -42 -95 4 0 vhcurveto
          -9 -36 rlineto
          -4 vlineto
          59 -8 38 -27 25 -48 103 -201 rcurveline
          endchar
        </CharString>
        <CharString name="Y">
          5 1 callgsubr
          21 -20 hstemhm
          hintmask 01010000
          195 567 rmoveto
          24 12 8 66 6 vhcurveto
          8 33 -2 7 rlineto
          0 -82 -9 -55 -44 -59 4 0 vhcurveto
          -11 -36 2 -4 76 -7 2 -26 29 -84 rlinecurve
          63 -182 18 -49 0 -26 -4 -40 rlinecurve
          -5 -45 -8 -75 -10 -20 -70 -15 -37 callsubr
          hintmask 10100000
          0 61 12 48 41 78 -46 callsubr
          14 43 -2 -30 callsubr
          -28 -3 -19 -35 -5 17 52 7 vhcurveto
          16 113 1 34 27 37 117 175 rcurveline
          65 97 9 21 68 12 11 35 rcurveline
          -3 -51 callgsubr
          -52 -4 -37 vhcurveto
          -35 -70 8 1 hhcurveto
          -11 -37 -53 callsubr
          39 -3 18 -9 -16 vvcurveto
          -13 -8 -20 -13 -20 vhcurveto
          -139 -218 rlineto
          -4 hlineto
          -2 -77 229 36 vvcurveto
          endchar
        </CharString>
        <CharString name="Yacute">
          13 1 callgsubr
          217 -20 -100 callsubr
          307 220 rmoveto
          -16 48 -9 -51 callgsubr
          -105 -60 -94 -49 vhcurveto
          6 -24 8 -5 rlineto
          105 40 101 34 -49 callsubr
        </CharString>
        <CharString name="Ycircumflex">
          13 1 callgsubr
          222 -20 -100 callsubr
          16 146 -96 callsubr
        </CharString>
        <CharString name="Ydieresis">
          13 1 callgsubr
          101 93 -100 callsubr
          219 158 -102 callsubr
        </CharString>
        <CharString name="Ygrave">
          13 1 callgsubr
          217 -20 -100 callsubr
          4 210 -94 callgsubr
        </CharString>
        <CharString name="Z">
          37 18 -21 596 40 15 -20 hstemhm
          hintmask 11000000
          447 13 rmoveto
          16 95 33 107 0 vvcurveto
          -43 -5 -36 -115 -46 -51 -66 -1 rlinecurve
          -199 -7 49 67 179 245 214 254 rlinecurve
          -7 28 -244 7 rlineto
          hintmask 10100000
          -167 11 -11 -9 rlineto
          -13 -91 -28 -101 0 vvcurveto
          44 4 23 102 36 35 88 2 rlinecurve
          170 6 -429 -568 8 -31 69 6 344 -6 rlineto
          endchar
        </CharString>
        <CharString name="Zacute">
          39 18 -21 596 40 208 -20 -77 callsubr
          78 790 rmoveto
          -16 48 -9 -51 callgsubr
          -105 -60 -94 -49 vhcurveto
          6 -24 8 -5 rlineto
          105 40 101 34 -49 callsubr
        </CharString>
        <CharString name="Zcaron">
          39 18 -21 596 40 205 -20 -77 callsubr
          55 840 -98 callsubr
        </CharString>
        <CharString name="Zdotaccent">
          39 18 -21 596 40 86 110 -77 callsubr
          -90 722 -80 callsubr
        </CharString>
        <CharString name="a">
          -22 0 215 -201 -21 514 -20 -106 callsubr
          endchar
        </CharString>
        <CharString name="a.sups">
          -69 callgsubr
        </CharString>
        <CharString name="aacute">
          -37 callgsubr
          708 -20 -106 callsubr
          279 432 rmoveto
          -16 48 -9 -51 callgsubr
          -105 -60 -94 -49 vhcurveto
          6 -24 8 -5 rlineto
          105 40 101 34 -49 callsubr
        </CharString>
        <CharString name="abreve">
          -37 callgsubr
          577 58 50 -17 callgsubr
          401 92 rmoveto
          -106 callgsubr
          rlineto
          hintmask 01110000
          2 -5 rlineto
          hintmask 10110000
          0 60 7 61 29 58 -29 callsubr
          9 35 -2 3 -42 4 -15 12 -8 40 rlinecurve
          -137 324 rmoveto
          7 hlineto
          34 -197 rlineto
          -2 -18 -32 -2 -20 hhcurveto
          -66 hlineto
          134 413 -91 callgsubr
        </CharString>
        <CharString name="acircumflex">
          -37 callgsubr
          713 -20 -106 callsubr
          3 358 -96 callsubr
        </CharString>
        <CharString name="acute">
          542 -21 194 -20 hstem
          366 672 -43 callgsubr
        </CharString>
        <CharString name="acute.cap">
          724 -21 138 -20 hstem
          406 787 rmoveto
          -16 48 -9 -51 callgsubr
          -105 -60 -94 -49 vhcurveto
          6 -24 8 -5 rlineto
          105 40 101 34 -49 callsubr
        </CharString>
        <CharString name="adieresis">
          -37 callgsubr
          592 93 -106 callsubr
          206 370 -102 callsubr
        </CharString>
        <CharString name="ae">
          27 callsubr
          68 -20 hstemhm
          313 79 hintmask 01110010
          237 34 rmoveto
          -6 -36 2 -5 rlineto
          hintmask 10110010
          -60 callsubr
          hintmask 10101110
          7 callgsubr
          hintmask 10110010
          -65 callgsubr
          endchar
        </CharString>
        <CharString name="aeacute">
          27 callsubr
          311 -20 hstemhm
          313 79 hintmask 01110110
          237 34 rmoveto
          -6 -36 2 -5 rlineto
          hintmask 10110110
          -60 callsubr
          7 callgsubr
          -65 callgsubr
          291 460 -43 callgsubr
        </CharString>
        <CharString name="agrave">
          -37 callgsubr
          708 -20 -106 callsubr
          2 422 -94 callgsubr
        </CharString>
        <CharString name="amacron">
          -37 callgsubr
          597 52 6 -20 -101 callsubr
          hintmask 10010000
          0 60 7 61 29 58 -29 callsubr
          9 35 -2 3 -42 4 -15 12 -8 40 rlinecurve
          -137 324 rmoveto
          7 hlineto
          34 -197 rlineto
          -2 -18 -32 -2 -20 hhcurveto
          -66 hlineto
          275 433 rmoveto
          hintmask 10100000
          -86 callsubr
        </CharString>
        <CharString name="ampersand">
          93 -12 59 357 60 165 -20 hstem
          602 217 rmoveto
          16 7 81 92 rlineto
          5 vlineto
          -21 20 rlineto
          -7 hlineto
          0 -52 -58 -15 vhcurveto
          -39 -107 25 -37 hhcurveto
          -16 -5 -82 -92 rlineto
          -5 vlineto
          23 -20 rlineto
          5 hlineto
          0 50 58 18 vhcurveto
          52 -8 rlineto
          -118 -25 -76 -71 -105 hhcurveto
          -88 -60 48 79 -19 hvcurveto
          246 144 93 70 72 86 rrcurveto
          13 16 32 38 15 vvcurveto
          27 -22 59 0 vhcurveto
          -19 hlineto
          -5 -5 -15 -98 -68 -90 -127 -91 rlinecurve
          -4 2 rlineto
          0 14 19 28 vvcurveto
          44 -29 26 -49 -98 -98 -114 -139 -135 77 -88 126 127 122 102 138 40 vhcurveto
          -433 8 rmoveto
          98 50 70 57 23 14 -15 -25 -48 -26 -29 -118 -74 vhcurveto
          endchar
        </CharString>
        <CharString name="aogonek">
          -17 -242 59 183 215 292 -20 hstem
          457 -160 -31 callgsubr
          42 23 30 65 63 vhcurveto
          40 -2 9 35 -2 3 rlineto
          -3 -2 0 1 -3 hvcurveto
          5 4 rlineto
          -25 hlineto
          -22 7 -9 14 -6 30 rrcurveto
          -106 callgsubr
          2 -5 rlineto
          0 60 7 61 vhcurveto
          5 11 callsubr
          -203 595 rmoveto
          7 hlineto
          34 -197 rlineto
          -2 -18 -32 -2 -20 hhcurveto
          -66 hlineto
          endchar
        </CharString>
        <CharString name="approxequal">
          -21 134 64 -55 -21 55 64 55 64 -21 49 callgsubr
          hintmask 10001000
          78 284 rmoveto
          0 45 55 23 vhcurveto
          hintmask 10010100
          43 127 -43 50 hhcurveto
          16 4 85 89 1 5 -20 -25 callgsubr
          -23 vhcurveto
          hintmask 01101000
          -43 -126 43 -51 11 callgsubr
          -14 -162 rmoveto
          0 45 55 23 vhcurveto
          hintmask 10010100
          43 127 -43 50 hhcurveto
          16 4 85 89 1 5 -20 -25 callgsubr
          -22 vhcurveto
          hintmask 01110100
          -44 -126 43 -51 11 callgsubr
          endchar
        </CharString>
        <CharString name="aring">
          -37 callgsubr
          541 164 -106 callsubr
          131 357 -77 callgsubr
        </CharString>
        <CharString name="aringacute">
          -37 callgsubr
          536 148 -35 -20 180 -20 hstemhm
          hintmask 10101000
          401 92 rmoveto
          -106 callgsubr
          rlineto
          hintmask 01101000
          2 -5 rlineto
          hintmask 10011000
          0 60 7 61 29 58 -29 callsubr
          9 35 -2 3 -42 4 -15 12 -8 40 rlinecurve
          -137 324 rmoveto
          7 hlineto
          34 -197 rlineto
          -2 -18 -32 -2 -20 hhcurveto
          -66 hlineto
          130 349 12 callgsubr
          hintmask 10101000
          8 callgsubr
          122 -16 callgsubr
        </CharString>
        <CharString name="asciicircum">
          -22 78 -21 424 -20 hstem
          292 481 rmoveto
          -48 -2 -107 -203 rlineto
          -49 -91 -53 -110 0 vvcurveto
          3 -9 49 -7 rlineto
          0 51 112 43 82 vhcurveto
          76 154 rlineto
          6 hlineto
          46 -168 rlineto
          24 -82 29 -99 0 vvcurveto
          11 -1 43 30 rlineto
          0 -34 106 -24 82 vhcurveto
          -22 73 -34 125 -49 callsubr
        </CharString>
        <CharString name="asciitilde">
          -21 214 64 -55 -21 55 64 12 -20 -8 callsubr
          66 202 rmoveto
          0 45 55 23 vhcurveto
          hintmask 10010000
          44 128 -43 52 hhcurveto
          16 4 85 89 rlineto
          5 vlineto
          -19 -25 callgsubr
          -23 vhcurveto
          hintmask 01100000
          -44 -128 43 -52 11 callgsubr
          endchar
        </CharString>
        <CharString name="asterisk">
          -72 438 -21 320 -20 hstem
          124 666 rmoveto
          -9 -4 rlineto
          -9 -30 0 -38 0 vvcurveto
          0 55 -12 51 -17 vhcurveto
          6 5 6 33 rlineto
          -45 34 -55 29 0 vvcurveto
          5 -193 rmoveto
          1 -9 rlineto
          26 -18 36 -12 0 vvcurveto
          0 28 49 32 43 vhcurveto
          -3 7 -29 16 rlineto
          -47 -32 -44 -44 0 vvcurveto
          185 -55 rmoveto
          9 -1 rlineto
          25 19 22 30 0 vvcurveto
          0 -37 42 -31 44 vhcurveto
          -8 -1 -24 -23 rlineto
          16 -54 28 -56 0 vvcurveto
          109 159 rmoveto
          4 9 rlineto
          -10 29 -22 31 0 vvcurveto
          0 -51 -23 -52 -16 vhcurveto
          -1 -8 14 -29 rlineto
          56 -2 62 9 0 vvcurveto
          -117 153 rmoveto
          -7 7 rlineto
          -31 -36 -12 0 hvcurveto
          0 5 -56 -54 vvcurveto
          6 -4 34 5 rlineto
          18 53 11 61 -49 callsubr
        </CharString>
        <CharString name="at">
          294 -209 43 154 66 352 54 97 56 hstem
          24 71 107 70 vstem
          468 -12 rmoveto
          212 110 154 162 173 -138 136 -201 -261 -166 -207 -218 -208 137 -177 261 -12 hvcurveto
          26 36 rlineto
          7 vlineto
          -247 14 -106 165 193 vvcurveto
          188 128 163 203 177 118 -101 -176 -134 -71 -92 -146 vhcurveto
          -4 4 rlineto
          26 186 58 199 0 vvcurveto
          -8 12 -31 15 -5 -1 -9 -25 -100 16 rlineto
          -107 -122 -166 -170 -80 26 -56 54 hvcurveto
          61 43 60 71 66 125 6 -2 rcurveline
          0 -43 -189 -19 vvcurveto
          -19 12 -10 24 vhcurveto
          -167 81 rmoveto
          -17 -12 49 55 123 65 110 63 41 47 -25 -8 13 hvcurveto
          -178 -77 -88 -126 -35 hhcurveto
          endchar
        </CharString>
        <CharString name="atilde">
          -37 callgsubr
          578 26 callgsubr
          hintmask 10101000
          401 92 rmoveto
          -106 callgsubr
          rlineto
          hintmask 01101000
          2 -5 rlineto
          hintmask 10010000
          0 60 7 61 29 58 -29 callsubr
          9 35 -2 3 -42 4 -15 12 -8 40 rlinecurve
          -137 324 rmoveto
          7 hlineto
          34 -197 rlineto
          -2 -18 -32 -2 -20 hhcurveto
          -66 hlineto
          -2 344 2 callgsubr
          hintmask 10101000
          -73 callsubr
          hintmask 10010000
          -60 callgsubr
        </CharString>
        <CharString name="b">
          -9 -8 46 -26 -21 30 -21 460 -20 21 40 -4 -20 hstemhm
          366 80 hintmask 00111010
          129 hmoveto
          hintmask 10011010
          38 44 -7 -1 33 hvcurveto
          110 92 73 89 52 -40 40 -67 16 hvcurveto
          66 29 40 47 58 vvcurveto
          68 -58 37 -94 vhcurveto
          hintmask 01010110
          0 -63 -4 -29 -29 -62 -26 callsubr
          -47 callsubr
          -9 -32 -4 vhcurveto
          -40 -322 -5 -44 -14 -14 -50 -9 rlinecurve
          -9 -39 rlineto
          hintmask 00111010
          0 55 9 41 vhcurveto
          147 231 rmoveto
          60 -11 30 -32 -47 vvcurveto
          hintmask 10011010
          -62 -43 -41 -67 -63 -22 14 38 4 vhcurveto
          21 139 rlineto
          7 48 rmoveto
          9 58 10 59 9 50 rrcurveto
          13 3 2 4 12 hhcurveto
          82 39 -27 -54 -89 -83 -21 0 -12 -71 7 0 hvcurveto
          endchar
        </CharString>
        <CharString name="b.sups">
          -187 345 46 104 -20 170 -20 189 -20 hstem
          43 380 rmoveto
          8 -13 rlineto
          0 40 -22 55 79 73 95 104 61 -30 40 -45 vhcurveto
          -35 -28 -29 -42 -40 -80 rrcurveto
          -3 hlineto
          23 146 38 164 9 callgsubr
          -24 -57 -350 0 hvcurveto
          168 203 rmoveto
          13 11 -32 -36 -65 -31 -59 -34 -17 -30 10 5 -15 hvcurveto
          104 43 42 73 18 hhcurveto
          endchar
        </CharString>
        <CharString name="backslash">
          -191 -89 -21 785 -20 hstem
          89 665 rmoveto
          0 40 -288 21 -162 vhcurveto
          21 -165 20 -160 0 vvcurveto
          49 hlineto
          7 8 rlineto
          0 -29 176 -19 152 vhcurveto
          -55 449 rlineto
          -46 hlineto
          endchar
        </CharString>
        <CharString name="bar">
          -152 -248 -21 1076 -20 hstem
          277 807 rmoveto
          -61 -11 -64 -520 rlineto
          -23 -179 -44 -360 0 vvcurveto
          8 -6 59 11 rlineto
          0 46 377 21 172 vhcurveto
          20 166 48 344 -49 callsubr
        </CharString>
        <CharString name="braceleft">
          -210 -112 -21 782 -20 hstem
          130 83 vstem
          47 247 rmoveto
          47 -11 36 -24 -44 -47 -63 -85 -66 vvcurveto
          -56 37 -47 69 30 25 8 0 vhcurveto
          11 28 -3 -51 callgsubr
          -29 -6 -19 -37 -15 26 31 vhcurveto
          50 51 99 60 vvcurveto
          51 -27 26 -32 13 vhcurveto
          1 6 rlineto
          38 12 46 32 79 39 -7 60 37 vvcurveto
          48 20 41 48 17 27 -5 0 vhcurveto
          11 30 7 callgsubr
          0 -30 6 -25 -87 -51 -62 -70 vhcurveto
          -50 19 -65 -41 vvcurveto
          -50 -49 -29 -50 -14 vhcurveto
          endchar
        </CharString>
        <CharString name="braceright">
          -210 -112 -21 782 -20 hstem
          94 83 vstem
          259 269 rmoveto
          -46 11 -36 24 44 47 63 85 66 vvcurveto
          56 -37 47 -69 -30 -25 -8 0 vhcurveto
          -11 -28 2 -6 rlineto
          0 29 6 20 37 14 -26 -31 vhcurveto
          -50 -50 -99 -60 vvcurveto
          -51 27 -26 31 -13 vhcurveto
          -6 vlineto
          -38 -12 -46 -32 -79 -39 6 -60 -37 vvcurveto
          -48 -20 -41 -48 -16 -27 5 0 vhcurveto
          -11 -30 2 -5 rlineto
          0 30 -6 25 86 52 62 70 vhcurveto
          50 -19 65 41 vvcurveto
          50 49 29 50 14 vhcurveto
          endchar
        </CharString>
        <CharString name="bracketleft">
          -210 -116 -21 777 -20 hstem
          224 -137 rmoveto
          10 30 -3 7 -108 24 80 655 112 24 10 31 -4 6 -179 -11 rlineto
          0 -24 -279 -12 -100 vhcurveto
          -13 -100 -44 -276 -49 callsubr
        </CharString>
        <CharString name="bracketright">
          -210 -116 -21 777 -20 hstem
          81 640 rmoveto
          -10 -30 3 -7 108 -24 -80 -655 -112 -24 -10 -31 3 -6 180 11 rlineto
          0 24 279 12 100 vhcurveto
          13 100 44 276 -49 callsubr
        </CharString>
        <CharString name="breve">
          558 58 66 -20 hstem
          240 616 -66 callsubr
        </CharString>
        <CharString name="breve.cap">
          710 58 50 -20 hstem
          258 768 -91 callgsubr
        </CharString>
        <CharString name="brokenbar">
          -152 -248 -21 1076 -20 hstem
          137 166 rmoveto
          -53 -429 8 -6 60 11 rlineto
          0 28 239 24 194 vhcurveto
          -3 3 rlineto
          28 198 rmoveto
          23 176 35 249 0 vvcurveto
          -10 6 -61 -11 -17 -142 -18 -142 -18 -142 rlinecurve
          4 -3 rlineto
          endchar
        </CharString>
        <CharString name="bullet">
          -181 117 221 hstem
          149 117 rmoveto
          70 53 57 67 52 -34 45 -59 -69 -53 -58 -67 -52 32 -44 60 hvcurveto
          endchar
        </CharString>
        <CharString name="c">
          22 callsubr
          -95 callsubr
          endchar
        </CharString>
        <CharString name="c.sups">
          -261 343 52 204 48 hstem
          164 599 rmoveto
          17 15 -9 -20 13 hvcurveto
          13 2 25 53 -3 8 rlineto
          8 -14 -22 6 -23 hhcurveto
          -79 -74 -95 -102 -66 31 -41 51 41 47 35 47 23 hvcurveto
          -16 21 -10 1 rlineto
          -31 -15 -26 -21 -23 hhcurveto
          -25 -16 29 47 66 34 62 36 hvcurveto
          endchar
        </CharString>
        <CharString name="cacute">
          22 callsubr
          194 -20 -95 callsubr
          213 656 rmoveto
          -16 48 -9 -51 callgsubr
          -105 -60 -94 -49 vhcurveto
          6 -24 8 -5 rlineto
          105 40 101 34 -49 callsubr
        </CharString>
        <CharString name="caron">
          547 -21 184 -20 hstem
          102 686 rmoveto
          57 -71 63 -89 0 vvcurveto
          13 hlineto
          0 85 89 75 71 vhcurveto
          -13 23 -8 1 -53 -43 -53 -37 -29 -21 rlinecurve
          -25 21 -42 36 -43 44 -8 -1 rcurveline
          endchar
        </CharString>
        <CharString name="caron.alt">
          496 -21 234 -20 hstem
          285 709 rmoveto
          -71 -13 callgsubr
          10 -2 28 14 rlineto
          32 102 27 110 -49 callsubr
        </CharString>
        <CharString name="caron.cap">
          725 -21 134 -20 hstem
          393 837 -98 callsubr
        </CharString>
        <CharString name="ccaron">
          22 callsubr
          191 -20 -95 callsubr
          220 706 -98 callsubr
        </CharString>
        <CharString name="ccedilla">
          8 -24 callgsubr
          153 45 418 52 hstemhm
          47 85 hintmask 01111100
          216 -85 rmoveto
          -75 callgsubr
          hintmask 10111100
          -57 callgsubr
          19 42 rlineto
          80 5 54 25 0 vvcurveto
          6 8 rlineto
          12 57 24 74 0 vvcurveto
          -46 -4 rlineto
          -83 -29 -45 -37 -68 hhcurveto
          -91 -54 71 112 144 77 91 113 68 33 -21 -42 -15 -7 -33 -11 callsubr
          74 23 60 -55 callsubr
          0 -81 19 -65 -176 -127 -129 -178 -124 79 -78 122 -6 vhcurveto
          endchar
        </CharString>
        <CharString name="ccircumflex">
          22 callsubr
          230 -20 -95 callsubr
          -62 571 -87 callgsubr
        </CharString>
        <CharString name="cdotaccent">
          22 callsubr
          72 110 -95 callsubr
          77 588 -80 callsubr
        </CharString>
        <CharString name="cedilla">
          -124 -24 callgsubr
          184 -20 hstemhm
          hintmask 01110000
          107 -85 rmoveto
          -75 callgsubr
          hintmask 10110000
          -57 callgsubr
          33 73 rlineto
          -42 hlineto
          endchar
        </CharString>
        <CharString name="cent">
          -163 -133 -21 812 -20 hstem
          34 70 vstem
          312 649 rmoveto
          -4 9 -28 -4 -41 -192 rlineto
          -107 -17 -98 -145 -147 vvcurveto
          -96 39 -62 65 -6 vhcurveto
          -29 -136 4 -7 27 3 30 141 52 10 55 46 34 63 rlinecurve
          -15 24 -14 1 -22 -47 -40 -34 -37 -6 rlinecurve
          75 352 16 -7 15 -12 13 -18 rlinecurve
          14 3 34 67 -5 11 -17 11 -27 8 -29 2 rlinecurve
          -168 -281 rmoveto
          111 60 108 63 3 vhcurveto
          -76 -353 rlineto
          -29 15 -18 48 68 vvcurveto
          endchar
        </CharString>
        <CharString name="circumflex">
          548 -21 176 -20 hstem
          103 528 -87 callgsubr
        </CharString>
        <CharString name="circumflex.cap">
          733 -21 134 -20 hstem
          125 713 -96 callsubr
        </CharString>
        <CharString name="colon">
          -279 -12 119 161 119 hstem
          79 -12 rmoveto
          -72 callgsubr
          34 280 rmoveto
          -72 callgsubr
          endchar
        </CharString>
        <CharString name="comma">
          42 callgsubr
          -20 hstem
          33 -55 callgsubr
          endchar
        </CharString>
        <CharString name="commaaccent">
          -272 43 callgsubr
          83 -9 callsubr
          -44 callsubr
        </CharString>
        <CharString name="copyright">
          158 -12 40 -40 167 276 167 -40 40 hstemhm
          hintmask 10010000
          47 261 rmoveto
          -152 107 -121 150 175 157 154 183 152 -108 121 -149 -175 -157 -154 -183 vhcurveto
          41 4 rmoveto
          159 136 134 150 128 93 -105 -132 -159 -136 -134 -150 -128 -93 105 132 vhcurveto
          254 -140 rmoveto
          63 42 21 0 hvcurveto
          4 5 rlineto
          8 37 16 49 0 vvcurveto
          -30 -2 rlineto
          hintmask 01100000
          -55 -19 -30 -25 -45 hhcurveto
          -60 -35 47 74 95 50 60 75 45 21 -14 -27 -10 -4 -22 0 hvcurveto
          30 3 rlineto
          9 48 15 40 3 callsubr
          -30 callsubr
          -53 12 -43 -116 -83 -85 -117 -85 56 -53 86 vhcurveto
          endchar
        </CharString>
        <CharString name="currency">
          -81 194 -21 40 48 197 48 51 -20 hstem
          86 343 rmoveto
          -23 5 -25 9 -18 vhcurveto
          -32 -35 -34 -30 -1 hhcurveto
          19 -39 10 -3 rlineto
          0 35 31 38 36 vhcurveto
          -17 21 26 -10 31 hhcurveto
          30 30 10 17 25 hvcurveto
          55 -66 44 30 4 11 rlineto
          0 -29 32 -31 34 vhcurveto
          19 27 14 31 36 vvcurveto
          25 -6 26 -11 19 vhcurveto
          76 69 -23 40 -12 3 -75 -75 rlineto
          15 -20 -26 9 -28 hhcurveto
          -29 -28 -9 -15 -23 hvcurveto
          -29 35 -27 34 0 vvcurveto
          -43 -26 -3 -12 rlineto
          0 29 -33 30 -36 vhcurveto
          -23 -29 -14 -33 -39 vvcurveto
          48 6 rmoveto
          59 50 50 56 48 35 -39 -49 -60 -51 -49 -56 -48 -34 39 49 vhcurveto
          endchar
        </CharString>
        <CharString name="d">
          67 10 callgsubr
          hstemhm
          464 85 hintmask 10100100
          248 -9 rmoveto
          167 134 135 169 124 -98 82 -141 hvcurveto
          hintmask 10011100
          0 -77 -4 -37 -30 -56 -63 callgsubr
          -10 -37 1 -4 rlineto
          0 18 1 10 22 4 -8 -34 -4 vhcurveto
          -39 -321 -6 -44 -14 -13 -50 -9 rlinecurve
          -9 -40 rlineto
          hintmask 01100100
          0 54 9 40 vhcurveto
          hintmask 10100100
          41 80 -9 0 hvcurveto
          12 466 rmoveto
          133 71 -62 -114 -146 -79 -98 -122 -65 -21 11 40 26 23 140 32 185 hvcurveto
          14 2 6 4 20 hhcurveto
          endchar
        </CharString>
        <CharString name="d.sups">
          -182 343 64 193 43 171 -20 hstem
          244 407 rmoveto
          20 136 55 262 -54 callgsubr
          20 7 -8 -20 -2 hvcurveto
          -16 -116 -45 9 rlineto
          -74 -77 -108 -102 -57 24 -33 40 hvcurveto
          37 26 33 42 39 71 5 -1 rcurveline
          -3 -15 -21 -89 -12 vvcurveto
          -14 9 -8 17 19 25 19 57 57 vhcurveto
          -9 19 -10 1 rlineto
          -33 -39 -2 -1 -5 hhcurveto
          -136 2 rmoveto
          -9 -7 26 33 67 33 67 34 18 26 -10 -9 15 hvcurveto
          -95 -39 -50 -79 -21 hhcurveto
          endchar
        </CharString>
        <CharString name="dagger">
          -53 -72 -21 691 -20 hstem
          218 308 rmoveto
          -63 -393 10 -8 61 9 43 395 rlineto
          12 93 rmoveto
          37 186 -10 8 -60 -9 -18 -188 rlineto
          59 -68 rmoveto
          158 -5 16 62 -6 9 -159 -13 rlineto
          -84 hmoveto
          -156 5 -16 -62 6 -11 157 15 rlineto
          endchar
        </CharString>
        <CharString name="daggerdbl">
          -53 -72 -21 691 -20 hstem
          191 90 rmoveto
          -36 -175 10 -8 61 9 17 177 rlineto
          20 23 rmoveto
          157 -5 17 33 callgsubr
          -17 -62 7 -11 156 15 rlineto
          43 219 rmoveto
          -18 -150 53 4 19 150 rlineto
          9 92 rmoveto
          34 159 -10 8 -60 -9 -15 -161 rlineto
          60 -67 rmoveto
          158 -5 16 33 callgsubr
          -16 -62 6 -11 156 15 rlineto
          endchar
        </CharString>
        <CharString name="dcaron">
          67 10 callgsubr
          221 -20 hstemhm
          464 85 hintmask 10100110
          248 -9 rmoveto
          167 134 135 169 124 -98 82 -141 hvcurveto
          hintmask 10011110
          0 -77 -4 -37 -30 -56 -63 callgsubr
          -10 -37 1 -4 rlineto
          0 18 1 10 22 4 -8 -34 -4 vhcurveto
          -39 -321 -6 -44 -14 -13 -50 -9 rlinecurve
          -9 -40 rlineto
          hintmask 01100110
          0 54 9 40 vhcurveto
          hintmask 10100110
          41 80 -9 0 hvcurveto
          12 466 rmoveto
          133 71 -62 -114 -146 -79 -98 -122 -65 -21 11 40 26 23 140 32 185 hvcurveto
          14 2 6 4 20 hhcurveto
          203 240 -98 callsubr
        </CharString>
        <CharString name="dcroat">
          -78 callgsubr
        </CharString>
        <CharString name="degree">
          -217 397 42 168 42 hstem
          60 510 rmoveto
          -63 45 -50 62 72 65 63 76 63 -44 50 -62 -73 -65 -63 -76 vhcurveto
          42 4 rmoveto
          50 39 43 47 41 34 -34 -41 -50 -40 -43 -47 -41 -33 34 41 vhcurveto
          endchar
        </CharString>
        <CharString name="dieresis">
          566 93 hstem
          309 566 rmoveto
          14 callsubr
          -160 hmoveto
          14 callsubr
          endchar
        </CharString>
        <CharString name="dieresis.cap">
          725 93 hstem
          328 725 -102 callsubr
        </CharString>
        <CharString name="divide">
          -21 29 119 87 56 87 119 hstem
          cntrmask 11100000
          472 297 rmoveto
          0 -129 -6 -77 -18 callsubr
          87 vhcurveto
          218 1 14 51 rlineto
          -265 -258 rmoveto
          41 28 32 37 28 -16 22 -33 -40 -28 -32 -37 -26 15 -24 33 hvcurveto
          43 349 rmoveto
          41 28 32 37 28 -16 22 -33 -40 -28 -32 -37 -26 14 -24 34 hvcurveto
          endchar
        </CharString>
        <CharString name="dollar">
          -79 -133 -21 146 42 425 47 152 -20 hstem
          327 649 rmoveto
          -4 9 -28 -4 -32 -148 rlineto
          -103 -7 -75 -67 -84 vvcurveto
          -64 60 -33 57 -32 vhcurveto
          -39 -185 -63 5 -10 28 13 98 rlinecurve
          -41 -4 rlineto
          -10 -74 -18 -61 0 vvcurveto
          3 -9 rlineto
          0 48 -23 68 -3 vhcurveto
          -29 -138 4 -7 27 3 30 143 rlineto
          116 6 79 66 90 vvcurveto
          66 -70 34 -61 34 vhcurveto
          37 170 rlineto
          43 -3 17 -16 -36 vvcurveto
          -21 -8 -32 0 vhcurveto
          5 -4 36 -57 callsubr
          0 -50 17 -65 3 vhcurveto
          5 -386 rmoveto
          -50 -44 -34 -63 -3 vhcurveto
          37 169 rlineto
          39 -23 31 -24 -35 vvcurveto
          -143 261 rmoveto
          41 41 32 54 4 vhcurveto
          -33 -155 -2 2 rlineto
          -34 22 -26 22 32 vvcurveto
          endchar
        </CharString>
        <CharString name="dotaccent">
          602 110 hstem
          233 602 rmoveto
          36 30 30 35 23 -14 22 -29 -36 -29 -30 -35 -23 13 -22 29 hvcurveto
          endchar
        </CharString>
        <CharString name="dotaccent.cap">
          719 110 hstem
          248 719 -80 callsubr
        </CharString>
        <CharString name="dotbelowcomb">
          -129 -192 119 hstem
          135 -192 -28 callsubr
          endchar
        </CharString>
        <CharString name="dotlessi">
          -51 callsubr
          25 -20 hstemhm
          hintmask 10100100
          -72 callsubr
          hintmask 10110000
          -35 callsubr
          hintmask 10101000
          -91 callsubr
          hintmask 01100100
          -94 callsubr
          endchar
        </CharString>
        <CharString name="dotlessj">
          -59 callsubr
        </CharString>
        <CharString name="e">
          -63 callsubr
          67 -17 callgsubr
          173 71 rmoveto
          26 12 53 11 78 vhcurveto
          2 13 25 3 23 hhcurveto
          42 66 -2 0 hvcurveto
          17 51 -3 -30 callsubr
          -68 -8 -28 vhcurveto
          -23 -39 1 -17 hhcurveto
          24 145 rlineto
          27 4 4 2 48 hhcurveto
          91 20 -4 -35 -19 -7 -29 0 hvcurveto
          45 -67 callgsubr
          hintmask 10101100
          7 callgsubr
          hintmask 10110000
          -7 -52 -63 -3 -123 hhcurveto
          -50 -67 3 0 -42 callsubr
          hintmask 01101100
          -47 callsubr
          -8 -34 -4 vhcurveto
          -40 -320 -6 -45 -15 -15 -47 -6 rlinecurve
          -10 -40 rlineto
          hintmask 10110000
          0 54 8 62 80 159 -5 0 vhcurveto
          5 5 rlineto
          16 68 22 66 -34 callgsubr
          -42 -4 rlineto
          -84 -23 -16 -10 -119 hhcurveto
          -43 -13 3 27 hvcurveto
          endchar
        </CharString>
        <CharString name="e.sups">
          -247 343 52 204 48 hstem
          247 591 rmoveto
          35 -23 21 -38 -78 -76 -96 -100 -66 32 -42 51 42 48 35 46 24 vhcurveto
          -16 21 -11 1 rlineto
          -32 -17 -25 -19 -25 hhcurveto
          -27 -17 29 44 2 hvcurveto
          110 35 44 34 54 vvcurveto
          -82 8 rmoveto
          15 8 -9 -16 -30 -28 -22 -65 -21 hvcurveto
          56 9 30 42 31 hhcurveto
          endchar
        </CharString>
        <CharString name="eacute">
          -63 callsubr
          261 -20 hstemhm
          hintmask 10110100
          -104 callgsubr
          hintmask 01101100
          -47 callsubr
          -8 -34 -4 vhcurveto
          -40 -320 -6 -45 -15 -15 -47 -6 rlinecurve
          -10 -40 rlineto
          hintmask 10110100
          0 54 8 62 80 159 -5 0 vhcurveto
          5 5 rlineto
          16 68 22 66 -34 callgsubr
          -42 -4 rlineto
          -84 -23 -16 -10 -119 hhcurveto
          -43 -13 3 27 hvcurveto
          252 576 rmoveto
          -16 48 -9 -51 callgsubr
          -105 -60 -94 -49 vhcurveto
          6 -24 8 -5 rlineto
          105 40 101 34 -49 callsubr
        </CharString>
        <CharString name="ebreve">
          -63 callsubr
          130 58 50 -20 hstemhm
          hintmask 10110110
          -104 callgsubr
          hintmask 01101110
          -47 callsubr
          -8 -34 -4 vhcurveto
          -40 -320 -6 -45 -15 -15 -47 -6 rlinecurve
          -10 -40 rlineto
          hintmask 10110110
          0 54 8 62 80 159 -5 0 vhcurveto
          5 5 rlineto
          16 68 22 66 -34 callgsubr
          -42 -4 rlineto
          -84 -23 -16 -10 -119 hhcurveto
          -43 -13 3 27 hvcurveto
          140 557 -91 callgsubr
        </CharString>
        <CharString name="ecaron">
          -63 callsubr
          258 -20 hstemhm
          hintmask 10110100
          -104 callgsubr
          hintmask 01101100
          -47 callsubr
          -8 -34 -4 vhcurveto
          -40 -320 -6 -45 -15 -15 -47 -6 rlinecurve
          -10 -40 rlineto
          hintmask 10110100
          0 54 8 62 80 159 -5 0 vhcurveto
          5 5 rlineto
          16 68 22 66 -34 callgsubr
          -42 -4 rlineto
          -84 -23 -16 -10 -119 hhcurveto
          -43 -13 3 27 hvcurveto
          275 626 -98 callsubr
        </CharString>
        <CharString name="ecircumflex">
          -63 callsubr
          266 -20 hstemhm
          hintmask 10110100
          -104 callgsubr
          hintmask 01101100
          -47 callsubr
          -8 -34 -4 vhcurveto
          -40 -320 -6 -45 -15 -15 -47 -6 rlinecurve
          -10 -40 rlineto
          hintmask 10110100
          0 54 8 62 80 159 -5 0 vhcurveto
          5 5 rlineto
          16 68 22 66 -34 callgsubr
          -42 -4 rlineto
          -84 -23 -16 -10 -119 hhcurveto
          -43 -13 3 27 hvcurveto
          8 502 -96 callsubr
        </CharString>
        <CharString name="edieresis">
          -63 callsubr
          145 93 hstemhm
          hintmask 10110100
          -104 callgsubr
          hintmask 01101100
          -47 callsubr
          -8 -34 -4 vhcurveto
          -40 -320 -6 -45 -15 -15 -47 -6 rlinecurve
          -10 -40 rlineto
          hintmask 10110100
          0 54 8 62 80 159 -5 0 vhcurveto
          5 5 rlineto
          16 68 22 66 -34 callgsubr
          -42 -4 rlineto
          -84 -23 -16 -10 -119 hhcurveto
          -43 -13 3 27 hvcurveto
          211 514 -102 callsubr
        </CharString>
        <CharString name="edotaccent">
          -63 callsubr
          139 110 hstemhm
          hintmask 10110100
          -104 callgsubr
          hintmask 01101100
          -47 callsubr
          -8 -34 -4 vhcurveto
          -40 -320 -6 -45 -15 -15 -47 -6 rlinecurve
          -10 -40 rlineto
          hintmask 10110100
          0 54 8 62 80 159 -5 0 vhcurveto
          5 5 rlineto
          16 68 22 66 -34 callgsubr
          -42 -4 rlineto
          -84 -23 -16 -10 -119 hhcurveto
          -43 -13 3 27 hvcurveto
          131 508 -80 callsubr
        </CharString>
        <CharString name="egrave">
          -63 callsubr
          261 -20 hstemhm
          hintmask 10110100
          -104 callgsubr
          hintmask 01101100
          -47 callsubr
          -8 -34 -4 vhcurveto
          -40 -320 -6 -45 -15 -15 -47 -6 rlinecurve
          -10 -40 rlineto
          hintmask 10110100
          0 54 8 62 80 159 -5 0 vhcurveto
          5 5 rlineto
          16 68 22 66 -34 callgsubr
          -42 -4 rlineto
          -84 -23 -16 -10 -119 hhcurveto
          -43 -13 3 27 hvcurveto
          6 566 -94 callgsubr
        </CharString>
        <CharString name="eight">
          6 callgsubr
          68 -43 81 120 100 14 callgsubr
          -66 39 -70 -109 -86 -56 callsubr
        </CharString>
        <CharString name="eight.dnom">
          -192 13 35 callgsubr
          72 -90 callgsubr
        </CharString>
        <CharString name="eight.lf">
          6 callgsubr
          73 -43 81 120 95 14 callgsubr
          -71 39 -70 -109 -81 -56 callsubr
        </CharString>
        <CharString name="eight.numr">
          -192 280 35 callgsubr
          339 -90 callgsubr
        </CharString>
        <CharString name="eight.sinf">
          -192 -107 35 callgsubr
          -48 -90 callgsubr
        </CharString>
        <CharString name="eight.sups">
          -192 364 35 callgsubr
          423 -90 callgsubr
        </CharString>
        <CharString name="eight.tf">
          -57 -12 43 521 46 hstemhm
          36 74 215 73 -59 77 hintmask 11110000
          36 110 rmoveto
          -79 71 -43 80 118 93 89 104 67 -45 40 -49 31 vhcurveto
          hintmask 11101000
          45 24 67 50 86 vvcurveto
          80 -70 39 -68 -108 -79 -88 -90 -64 39 -38 47 -29 vhcurveto
          -48 -23 -93 -54 -102 vvcurveto
          173 -79 rmoveto
          -60 -39 50 55 82 65 38 35 15 hvcurveto
          hintmask 11110000
          57 -33 58 -30 -61 vvcurveto
          -66 -57 -50 -59 vhcurveto
          -45 425 rmoveto
          49 40 47 57 vhcurveto
          hintmask 11101000
          45 33 -32 -60 -70 -39 -35 -30 -18 hvcurveto
          -53 33 -53 30 56 vvcurveto
          endchar
        </CharString>
        <CharString name="eight.tosf">
          -67 -12 43 521 46 hstemhm
          34 74 210 73 -58 76 hintmask 11110000
          34 109 rmoveto
          -78 65 -43 78 117 97 89 105 66 -44 40 -48 31 vhcurveto
          hintmask 11101000
          44 24 66 50 87 vvcurveto
          79 -63 39 -68 -106 -84 -88 -91 -63 39 -38 45 -29 vhcurveto
          -47 -23 -91 -54 -103 vvcurveto
          171 -78 rmoveto
          -59 -38 50 55 82 63 38 34 15 hvcurveto
          hintmask 11110000
          56 -33 57 -30 -61 vvcurveto
          -66 -56 -50 -57 vhcurveto
          -44 425 rmoveto
          49 40 47 55 vhcurveto
          hintmask 11101000
          45 32 -32 -59 -71 -38 -35 -30 -18 hvcurveto
          -52 33 -52 30 56 vvcurveto
          endchar
        </CharString>
        <CharString name="ellipsis">
          126 -12 119 hstem
          284 -12 rmoveto
          -72 callgsubr
          203 hmoveto
          -72 callgsubr
          -405 hmoveto
          -72 callgsubr
          endchar
        </CharString>
        <CharString name="emacron">
          -63 callsubr
          150 48 callsubr
          hintmask 10110100
          -104 callgsubr
          hintmask 01101100
          -47 callsubr
          -8 -34 -4 vhcurveto
          -40 -320 -6 -45 -15 -15 -47 -6 rlinecurve
          -10 -40 rlineto
          hintmask 10110010
          0 54 8 62 80 159 -5 0 vhcurveto
          5 5 rlineto
          16 68 22 66 -34 callgsubr
          -42 -4 rlineto
          -84 -23 -16 -10 -119 hhcurveto
          -43 -13 3 27 hvcurveto
          281 577 rmoveto
          hintmask 10110100
          -86 callsubr
        </CharString>
        <CharString name="emdash">
          372 226 55 20 callsubr
          887 287 rmoveto
          hintmask 10000000
          -14 -260 -6 -152 -164 -281 1 -4 hhcurveto
          30 callsubr
          hintmask 10000000
          85 485 2 308 hhcurveto
          14 51 rlineto
          endchar
        </CharString>
        <CharString name="endash">
          -68 226 55 20 callsubr
          448 287 rmoveto
          hintmask 10000000
          -6 -41 -121 0 -44 hhcurveto
          -86 -144 1 0 hvcurveto
          30 callsubr
          hintmask 10000000
          42 243 6 callsubr
        </CharString>
        <CharString name="eng">
          84 -101 -21 143 -21 459 -20 59 3 callgsubr
          hintmask 11110000
          168 498 rmoveto
          -20 -51 4 0 hvcurveto
          -10 -34 3 -5 53 -7 12 -10 -4 -31 rlinecurve
          -48 -316 -8 -47 -13 -14 -36 -4 rlinecurve
          -10 -40 rlineto
          0 42 6 32 41 55 -46 callsubr
          12 40 -2 -30 callsubr
          -31 -2 -7 -20 -5 8 24 3 vhcurveto
          42 306 rlineto
          5 hlineto
          0 96 -164 110 -208 vhcurveto
          -18 -42 -31 -28 -56 -23 -3 -7 rcurveline
          13 -27 104 33 48 55 17 101 rlinecurve
          50 347 4 31 16 13 38 5 rlinecurve
          hintmask 11101000
          9 41 rlineto
          hintmask 11110000
          0 -49 -6 -34 -25 -57 -63 callgsubr
          -12 -39 -53 callsubr
          0 16 1 12 19 6 -10 -24 -2 vhcurveto
          -36 -291 rlineto
          -5 hlineto
          0 -119 201 -85 166 vhcurveto
          0 -47 -3 -16 vhcurveto
          endchar
        </CharString>
        <CharString name="eogonek">
          -19 -241 59 182 41 -24 -21 237 45 175 44 -37 -20 67 -20 hstemhm
          hintmask 10111000
          395 -159 -31 callgsubr
          41 22 30 62 59 vhcurveto
          21 14 -1 0 hvcurveto
          hintmask 11011000
          5 5 rlineto
          16 68 22 66 -34 callgsubr
          -42 -4 rlineto
          -84 -23 -16 -10 -119 hhcurveto
          -43 -13 3 27 26 12 53 11 78 hvcurveto
          2 13 25 3 23 hhcurveto
          42 66 -2 0 hvcurveto
          17 51 -3 -30 callsubr
          -68 -8 -28 vhcurveto
          -23 -39 1 -17 hhcurveto
          24 145 rlineto
          27 4 4 2 48 hhcurveto
          91 20 -4 -35 -19 -7 -29 0 hvcurveto
          45 -67 callgsubr
          hintmask 11010110
          7 callgsubr
          hintmask 11011000
          -7 -52 -63 -3 -123 hhcurveto
          -50 -67 3 0 -42 callsubr
          hintmask 11010110
          -47 callsubr
          -8 -34 -4 vhcurveto
          -40 -320 -6 -45 -15 -15 -47 -6 rlinecurve
          -10 -40 rlineto
          0 54 8 62 43 67 -1 -1 52 vhcurveto
          -61 -56 -45 -49 -51 -48 callgsubr
          endchar
        </CharString>
        <CharString name="equal">
          -21 158 56 -36 -21 158 56 6 47 callsubr
          463 220 rmoveto
          0 -130 -6 -77 -85 -144 1 0 vhcurveto
          30 callsubr
          hintmask 10010000
          0 134 1 86 vhcurveto
          218 1 14 51 rlineto
          15 167 rmoveto
          hintmask 10100000
          0 -130 -6 -76 -18 callsubr
          86 vhcurveto
          219 1 14 51 rlineto
          endchar
        </CharString>
        <CharString name="estimated">
          290 9 -21 663 -20 hstem
          180 311 rmoveto
          597 8 hlineto
          184 -165 148 -203 -203 -166 -148 -184 -183 166 -148 203 118 107 51 78 67 vhcurveto
          -54 hlineto
          -67 -57 -85 -42 -95 hhcurveto
          -89 -81 37 60 -56 hvcurveto
          -5 6 -4 7 8 vvcurveto
          181 vlineto
          3 2 1 3 vhcurveto
          463 205 rmoveto
          -182 vlineto
          -3 -2 -2 -3 vhcurveto
          -458 hlineto
          -3 -2 2 3 hvcurveto
          178 vlineto
          9 4 8 6 6 vhcurveto
          59 57 79 37 89 hhcurveto
          87 79 -36 -57 57 hvcurveto
          6 -6 4 -7 -9 vvcurveto
          endchar
        </CharString>
        <CharString name="eth">
          -78 callgsubr
        </CharString>
        <CharString name="exclam">
          -233 -12 119 587 -20 hstem
          84 -12 -28 callsubr
          16 222 rmoveto
          10 -8 29 7 109 474 -8 11 -84 -18 -9 -10 rlineto
          endchar
        </CharString>
        <CharString name="exclamdown">
          -234 -221 -21 587 119 hstem
          191 464 rmoveto
          -42 -28 -32 -37 -28 17 -22 32 41 28 32 37 26 -15 24 -33 hvcurveto
          -16 -222 rmoveto
          -10 8 -29 -7 -109 -474 8 -11 84 18 9 10 rlineto
          endchar
        </CharString>
        <CharString name="f">
          -78 0 40 -28 -21 228 46 188 44 -37 -20 67 -17 callgsubr
          194 214 rmoveto
          2 14 23 3 24 hhcurveto
          37 60 -2 0 hvcurveto
          16 51 7 callgsubr
          0 -60 -8 -24 vhcurveto
          -79 hlineto
          25 159 rlineto
          27 4 4 2 48 hhcurveto
          77 19 -4 -34 -20 -7 -31 0 hvcurveto
          44 3 -7 callgsubr
          21 63 0 vvcurveto
          hintmask 10101100
          -3 5 rlineto
          hintmask 10110000
          -7 -49 -67 -3 -106 hhcurveto
          -50 -67 3 0 -42 callsubr
          hintmask 01101100
          -47 callsubr
          -8 -34 -4 vhcurveto
          -40 -320 -6 -45 -14 -14 -49 -9 rlinecurve
          -9 -39 rlineto
          hintmask 10110000
          0 54 9 44 42 77 -46 callsubr
          11 41 7 callgsubr
          0 -38 -3 -17 -27 -7 15 37 6 vhcurveto
          endchar
        </CharString>
        <CharString name="f.sups">
          -313 199 41 363 215 -47 47 hstemhm
          hintmask 11000000
          32 602 rmoveto
          45 -2 6 -4 -17 -218 -2 -26 0 -29 -4 -33 rlinecurve
          -30 -3 -19 -20 -23 hhcurveto
          -28 -17 19 32 hvcurveto
          -10 hlineto
          -9 -13 -14 -30 -5 -18 rrcurveto
          -18 7 28 -13 30 hhcurveto
          58 48 49 68 8 hvcurveto
          31 284 6 3 rlineto
          85 hlineto
          5 31 -3 2 rlineto
          -89 hlineto
          8 69 rlineto
          hintmask 10100000
          45 6 17 21 33 hhcurveto
          16 21 -7 -15 24 hvcurveto
          13 2 24 51 -3 7 rlineto
          6 -16 -27 3 -23 hhcurveto
          -72 -67 -60 -76 -9 hvcurveto
          -5 -45 -52 -8 -4 -24 rlineto
          endchar
        </CharString>
        <CharString name="fi">
          229 0 40 -28 -21 228 46 188 44 -37 -20 60 -20 27 -17 callgsubr
          194 214 rmoveto
          2 14 23 3 24 hhcurveto
          37 60 -2 0 hvcurveto
          16 51 7 callgsubr
          0 -60 -8 -24 vhcurveto
          -79 hlineto
          25 159 rlineto
          27 4 4 2 48 hhcurveto
          77 19 -4 -34 -20 -7 -31 0 hvcurveto
          44 3 -7 callgsubr
          21 63 0 vvcurveto
          hintmask 10101010
          -3 5 rlineto
          hintmask 10110000
          -7 -49 -67 -3 -106 hhcurveto
          hintmask 01101100
          -50 -67 3 0 -42 callsubr
          -47 callsubr
          -8 -34 -4 vhcurveto
          -40 -320 -6 -45 -14 -14 -49 -9 rlinecurve
          -9 -39 rlineto
          hintmask 10110000
          0 54 9 44 42 77 -46 callsubr
          11 41 7 callgsubr
          0 -38 -3 -17 -27 -7 15 37 6 vhcurveto
          481 330 rmoveto
          5 29 12 9 43 5 9 40 rcurveline
          -35 callsubr
          hintmask 01101100
          -91 callsubr
          hintmask 10110000
          -94 callsubr
          endchar
        </CharString>
        <CharString name="five">
          -94 -105 70 457 69 47 -20 hstem
          260 80 vstem
          340 141 rmoveto
          86 -91 41 -119 25 vhcurveto
          22 129 rlineto
          111 97 -2 callsubr
          -14 -7 -37 -2 rlinecurve
          -183 17 callsubr
          137 -25 48 -32 -58 vvcurveto
          -85 -87 -59 -106 -26 -25 3 6 -26 vhcurveto
          -6 -6 rlineto
          -59 -5 20 -14 37 hhcurveto
          122 182 119 127 hvcurveto
          endchar
        </CharString>
        <CharString name="five.dnom">
          -227 -8 -36 callsubr
          140 -87 callsubr
        </CharString>
        <CharString name="five.lf">
          -103 40 callgsubr
          269 79 vstem
          348 223 rmoveto
          86 -69 46 -147 11 vhcurveto
          27 149 rlineto
          111 97 -2 callsubr
          -13 -7 -38 -2 rlinecurve
          -183 -8 -9 -8 rlineto
          0 -22 -131 -25 -123 vhcurveto
          7 -11 rlineto
          128 -3 60 -35 -70 vvcurveto
          -82 -77 -59 -100 -25 -25 3 6 -26 vhcurveto
          -7 -6 rlineto
          -53 -3 14 -20 42 hhcurveto
          127 159 123 112 hvcurveto
          endchar
        </CharString>
        <CharString name="five.numr">
          -227 259 -36 callsubr
          407 -87 callsubr
        </CharString>
        <CharString name="five.sinf">
          -227 -128 -36 callsubr
          20 -87 callsubr
        </CharString>
        <CharString name="five.sups">
          -227 343 -36 callsubr
          491 -87 callsubr
        </CharString>
        <CharString name="five.tf">
          -57 40 callgsubr
          298 79 vstem
          377 222 rmoveto
          87 -74 46 -158 11 vhcurveto
          28 149 rlineto
          119 105 -8 0 hvcurveto
          6 6 40 118 -35 -4 -15 -30 -13 -7 -41 -2 rlinecurve
          -194 -8 -10 -8 rlineto
          0 -22 -131 -26 -123 vhcurveto
          8 -11 rlineto
          138 -3 65 -35 -71 vvcurveto
          -81 -83 -59 -108 -26 -27 3 6 -28 vhcurveto
          -6 -6 rlineto
          -53 -3 15 -20 44 hhcurveto
          134 167 122 112 hvcurveto
          endchar
        </CharString>
        <CharString name="five.tosf">
          -67 -105 70 457 69 47 -20 hstem
          277 80 vstem
          357 140 rmoveto
          87 -96 41 -123 25 vhcurveto
          22 129 rlineto
          116 102 -2 callsubr
          -15 -7 -38 -2 rlinecurve
          -191 17 callsubr
          144 -25 50 -32 -58 vvcurveto
          -85 -91 -59 -111 -27 -26 3 6 -27 vhcurveto
          -6 -6 rlineto
          -59 -5 21 -14 38 hhcurveto
          125 189 119 126 hvcurveto
          endchar
        </CharString>
        <CharString name="fl">
          348 0 41 -29 -21 228 46 188 44 -37 -20 60 -20 27 -17 callgsubr
          194 214 rmoveto
          2 14 23 3 24 hhcurveto
          37 60 -2 0 hvcurveto
          16 51 7 callgsubr
          0 -60 -8 -24 vhcurveto
          -79 hlineto
          25 159 rlineto
          27 4 4 2 48 hhcurveto
          77 19 -4 -34 -20 -7 -31 0 hvcurveto
          44 3 -7 callgsubr
          21 63 0 vvcurveto
          hintmask 10101010
          -3 5 rlineto
          hintmask 10110000
          -7 -49 -67 -3 -106 hhcurveto
          hintmask 01101100
          -50 -67 3 0 -42 callsubr
          -47 callsubr
          -8 -34 -4 vhcurveto
          -40 -320 -6 -45 -14 -14 -49 -9 rlinecurve
          -9 -39 rlineto
          hintmask 10110000
          0 54 9 44 42 77 -46 callsubr
          11 41 7 callgsubr
          0 -38 -3 -17 -27 -7 15 37 6 vhcurveto
          406 -92 rmoveto
          -88 callsubr
          27 callgsubr
          hintmask 10101100
          -80 callgsubr
          47 callgsubr
        </CharString>
        <CharString name="florin">
          -138 -159 41 423 53 197 43 hstem
          109 -43 rmoveto
          -54 -5 -24 -2 callgsubr
          76 56 82 8 vhcurveto
          30 328 128 -3 10 53 -3 3 -130 -3 6 69 rlineto
          64 5 1 65 55 hhcurveto
          40 39 -32 -35 16 hvcurveto
          13 hlineto
          9 10 9 44 20 vvcurveto
          21 -52 15 -45 -76 -64 -57 -84 -8 vhcurveto
          -10 -97 -70 -10 -7 -34 4 -6 rlineto
          61 -1 4 -1 -32 vvcurveto
          endchar
        </CharString>
        <CharString name="foundryicon">
          276 -59 152 52 157 42 180 -87 87 hstemhm
          hintmask 11100000
          328 344 rmoveto
          45 33 -31 -42 hvcurveto
          -178 -74 136 vlineto
          38 -14 18 -29 -18 -6 -3 -9 vhcurveto
          -180 -74 vlineto
          hintmask 11010000
          344 74 -116 vlineto
          -6 2 -3 4 3 3 2 2 3 vhcurveto
          hintmask 11100000
          155 4 rmoveto
          89 56 rlineto
          21 -28 hlineto
          -6 4 -4 6 vhcurveto
          58 -36 -58 hlineto
          -7 -3 -4 -6 hvcurveto
          -90 vlineto
          -40 12 -17 29 8 9 1 3 9 vhcurveto
          -25 vlineto
          -63 -37 rlineto
          -45 -33 31 42 hvcurveto
          132 vlineto
          7 -3 3 -7 vhcurveto
          -26 hlineto
          -255 -361 rmoveto
          423 hlineto
          52 28 28 52 hvcurveto
          423 vlineto
          52 -28 28 -52 vhcurveto
          -423 hlineto
          -52 -28 -28 -52 hvcurveto
          -423 vlineto
          -52 28 -28 52 vhcurveto
          endchar
        </CharString>
        <CharString name="four">
          -76 28 callsubr
          -12 89 rmoveto
          74 88 -2 -2 74 hvcurveto
          -11 -78 -17 -21 callgsubr
          51 -2 35 -1 0 vvcurveto
          15 55 -5 8 rlineto
          -89 hlineto
          43 352 -32 10 rlineto
          hintmask 11100000
          -1 -2 -1 -1 hhcurveto
          -311 -378 -2 -12 -4 -13 -2 -12 rlinecurve
          262 278 41 callsubr
          -161 hlineto
          endchar
        </CharString>
        <CharString name="four.dnom">
          -206 14 20 callgsubr
          107 rmoveto
          148 -3 rlineto
          -6 -47 -11 -58 0 vvcurveto
          4 -6 62 7 5 -51 callgsubr
          2 49 6 48 vhcurveto
          51 -2 11 44 -4 7 rlineto
          -52 hlineto
          25 219 -39 6 -4 -1 -192 -235 rlineto
          157 136 rmoveto
          6 hlineto
          -15 -125 rlineto
          -91 hlineto
          endchar
        </CharString>
        <CharString name="four.lf">
          -78 33 callsubr
          -3 183 rmoveto
          236 -4 rlineto
          -10 -78 -18 -21 callgsubr
          87 -3 14 55 -5 8 rlineto
          -88 hlineto
          43 352 -33 10 -4 -1 -310 -378 rlineto
          253 241 41 callsubr
          -161 hlineto
          endchar
        </CharString>
        <CharString name="four.numr">
          -206 281 20 callgsubr
          374 rmoveto
          148 -3 rlineto
          -6 -47 -11 -58 0 vvcurveto
          4 -6 62 7 5 -51 callgsubr
          2 49 6 48 vhcurveto
          51 -2 11 44 -4 7 rlineto
          -52 hlineto
          25 219 -39 6 -4 -1 -192 -235 rlineto
          157 136 rmoveto
          6 hlineto
          -15 -125 rlineto
          -91 hlineto
          endchar
        </CharString>
        <CharString name="four.sinf">
          -206 -106 -21 113 46 225 -20 hstem
          10 -13 rmoveto
          148 -3 rlineto
          -6 -47 -11 -58 0 vvcurveto
          4 -6 62 7 5 -51 callgsubr
          2 49 6 48 vhcurveto
          51 -2 11 44 -4 7 rlineto
          -52 hlineto
          25 219 -39 6 -4 -1 -192 -235 rlineto
          157 136 rmoveto
          6 hlineto
          -15 -125 rlineto
          -91 hlineto
          endchar
        </CharString>
        <CharString name="four.sups">
          -206 365 20 callgsubr
          458 rmoveto
          148 -3 rlineto
          -6 -47 -11 -58 0 vvcurveto
          4 -6 62 7 5 -51 callgsubr
          2 49 6 48 vhcurveto
          51 -2 11 44 -4 7 rlineto
          -52 hlineto
          25 219 -39 6 -4 -1 -192 -235 rlineto
          157 136 rmoveto
          6 hlineto
          -15 -125 rlineto
          -91 hlineto
          endchar
        </CharString>
        <CharString name="four.tf">
          -57 33 callsubr
          1 183 rmoveto
          243 -4 rlineto
          -10 -78 -18 -103 0 vvcurveto
          5 -9 73 12 6 7 rlineto
          0 5 88 9 81 vhcurveto
          90 -3 14 55 -5 8 rlineto
          -91 hlineto
          43 352 -32 10 -5 -1 -318 -378 rlineto
          260 241 rmoveto
          10 hlineto
          -29 -224 rlineto
          -167 hlineto
          endchar
        </CharString>
        <CharString name="four.tosf">
          -67 28 callsubr
          -11 89 rmoveto
          75 90 -2 -2 75 hvcurveto
          -11 -78 -17 -21 callgsubr
          52 -2 36 -1 0 vvcurveto
          15 55 -5 8 rlineto
          -91 hlineto
          43 352 -31 10 rlineto
          hintmask 11100000
          -1 -2 -1 -1 hhcurveto
          -316 -378 -2 -12 -4 -13 -2 -12 rlinecurve
          266 278 41 callsubr
          -165 hlineto
          endchar
        </CharString>
        <CharString name="fraction">
          -382 -74 -21 773 -20 hstem
          277 659 -39 callsubr
        </CharString>
        <CharString name="franc">
          -76 0 42 -42 166 -155 -21 30 -21 130 150 -49 49 177 46 -41 -20 72 -20 hstemhm
          hintmask 1000101000000000
          176 90 rmoveto
          6 39 rlineto
          91 hlineto
          8 30 rlineto
          hintmask 0100011000000000
          -4 7 rlineto
          -91 hlineto
          11 62 81 5 rlineto
          36 41 -4 1 hvcurveto
          20 51 -5 8 rlineto
          0 -67 -10 -21 -22 -34 0 1 -21 vhcurveto
          13 79 5 33 1 57 25 5 rlinecurve
          1 7 11 1 16 hhcurveto
          79 17 -5 -31 -18 -7 -35 0 hvcurveto
          50 3 rlineto
          14 73 21 63 0 vvcurveto
          hintmask 1000100110000000
          -4 7 rlineto
          hintmask 1000101000000000
          -5 -52 -65 -6 -65 hhcurveto
          -48 hlineto
          -49 -68 3 0 hvcurveto
          -11 -37 1 -8 rlineto
          hintmask 0100010110000000
          0 23 1 9 21 3 -7 -30 -3 vhcurveto
          -33 -258 rlineto
          -64 hlineto
          -9 -30 rlineto
          hintmask 0010101000000000
          5 -7 rlineto
          64 hlineto
          -9 -70 -4 -15 -62 -11 -10 -43 rcurveline
          hintmask 1000101000000000
          0 58 10 39 vhcurveto
          hintmask 0001101000000000
          13 16 -1 18 hhcurveto
          34 37 -2 1 hvcurveto
          13 38 -1 8 rlineto
          hintmask 1000101000000000
          1 -36 -3 -18 -23 -5 11 37 4 vhcurveto
          endchar
        </CharString>
        <CharString name="g">
          -3 callgsubr
          -96 callgsubr
          endchar
        </CharString>
        <CharString name="g.sups">
          -195 199 48 353 43 7 -20 hstemhm
          hintmask 11000000
          128 415 rmoveto
          -12 -9 28 34 61 31 62 31 18 24 -9 -9 18 hvcurveto
          -100 -44 -40 -67 -17 hhcurveto
          -14 -62 rmoveto
          28 20 19 24 43 75 6 -1 rcurveline
          -15 -125 rlineto
          -62 -8 -38 -37 -52 hhcurveto
          -33 -36 23 20 10 51 28 35 25 hvcurveto
          136 4 rmoveto
          3 30 3 86 4 35 4 32 15 44 25 48 -6 9 rcurveline
          hintmask 10100000
          -37 9 -6 -3 -6 -15 rlineto
          hintmask 11000000
          -60 11 rlineto
          -70 -75 -103 -96 -40 13 -31 24 -12 hvcurveto
          -1 -5 -48 -27 -45 -27 -22 -15 rlinecurve
          -1 -5 rlineto
          -43 -4 52 -40 60 hhcurveto
          73 96 86 72 9 hvcurveto
          endchar
        </CharString>
        <CharString name="gbreve">
          -3 callgsubr
          63 58 50 -20 -96 callgsubr
          79 637 -91 callgsubr
        </CharString>
        <CharString name="gcircumflex">
          -3 callgsubr
          230 -20 -96 callgsubr
          -67 571 -87 callgsubr
        </CharString>
        <CharString name="gcommaaccent">
          38 -24 callsubr
          58 0 44 0 161 0 43 0 217 0 51 hstemhm
          46 83 hintmask 11011011
          260 -9 rmoveto
          103 72 35 0 hvcurveto
          6 7 rlineto
          0 -1 16 8 vvcurveto
          15 7 54 5 29 vhcurveto
          5 36 12 22 16 10 -1 20 rcurveline
          -1 -36 -3 -34 vhcurveto
          -46 -56 2 1 hhcurveto
          -13 -41 -53 callsubr
          52 hlineto
          34 6 -7 -34 -4 hvcurveto
          -11 -92 rlineto
          0 -43 -28 -61 -92 -54 72 112 vhcurveto
          hintmask 10101011
          145 79 92 114 69 33 -21 -41 -16 -7 -31 0 vhcurveto
          44 4 rlineto
          15 73 23 58 -55 callsubr
          0 -81 19 -65 -175 -129 -131 -178 -128 85 -79 129 vhcurveto
          -63 -98 -99 callgsubr
          hintmask 11010101
          -44 callsubr
        </CharString>
        <CharString name="gdotaccent">
          -3 callgsubr
          72 110 -96 callgsubr
          72 588 -80 callsubr
        </CharString>
        <CharString name="germandbls">
          375 -9 43 425 48 hstem
          301 79 362 79 vstem
          169 -9 rmoveto
          125 86 69 94 78 -97 34 -65 40 hvcurveto
          -103 callgsubr
          441 hmoveto
          125 86 69 94 78 -97 34 -65 40 hvcurveto
          -103 callgsubr
          endchar
        </CharString>
        <CharString name="grave">
          542 -21 193 -20 hstem
          115 660 rmoveto
          0 84 -63 84 -76 vhcurveto
          9 2 20 19 rlineto
          -72 78 -78 94 0 vvcurveto
          -10 -2 -38 -41 rlineto
          endchar
        </CharString>
        <CharString name="grave.cap">
          -124 724 -21 138 -20 hstem
          116 777 -94 callgsubr
        </CharString>
        <CharString name="greater">
          -23 91 -21 394 -20 hstem
          456 295 rmoveto
          0 -114 52 -66 32 vhcurveto
          -74 35 -94 50 0 vvcurveto
          -35 -40 rlineto
          -11 vlineto
          0 89 -43 74 -36 vhcurveto
          151 -70 -1 -6 -153 -60 rlineto
          -83 -34 -112 -39 0 vvcurveto
          2 -50 8 -5 rlineto
          0 110 42 92 39 vhcurveto
          204 86 8 47 rlineto
          endchar
        </CharString>
        <CharString name="greaterequal">
          -22 -73 55 -36 -21 hstemhm
          hintmask 10000000
          456 295 rmoveto
          -1 -1 -112 53 -65 32 -38 18 rcurveline
          -66 31 -66 37 -1 vvcurveto
          -34 -40 rlineto
          -1 -4 1 -3 -4 vvcurveto
          0 89 -43 74 -36 vhcurveto
          150 -70 rlineto
          -6 vlineto
          -154 -60 rlineto
          -82 -34 -112 -39 0 vvcurveto
          1 -50 9 -5 rlineto
          0 109 42 92 39 vhcurveto
          205 86 7 47 rlineto
          -29 -296 29 callgsubr
          -17 -49 rlineto
          hintmask 01000000
          5 -9 rlineto
          hintmask 10000000
          41 242 6 callsubr
        </CharString>
        <CharString name="guillemotleft">
          -96 36 callgsubr
          387 400 -45 callsubr
          -180 15 -45 callsubr
          endchar
        </CharString>
        <CharString name="guillemotright">
          -96 36 callgsubr
          228 46 -44 callgsubr
          -139 -15 -44 callgsubr
          endchar
        </CharString>
        <CharString name="guilsinglleft">
          -256 36 callgsubr
          206 400 -45 callsubr
          endchar
        </CharString>
        <CharString name="guilsinglright">
          -256 36 callgsubr
          46 46 -44 callgsubr
          endchar
        </CharString>
        <CharString name="h">
          107 -33 callsubr
          232 43 185 -27 callsubr
          28 -20 hstemhm
          hintmask 10110100
          -15 callgsubr
          hintmask 10111000
          0 -61 -7 -37 -1 vhcurveto
          -27 -57 2 1 -42 callsubr
          0 16 1 10 23 6 -8 -33 -5 vhcurveto
          -18 -137 rlineto
          -5 -43 -30 -2 -39 -42 -42 1 -42 hhcurveto
          20 122 9 52 5 9 46 6 rlinecurve
          hintmask 10110100
          7 40 rlineto
          hintmask 10111000
          -32 callgsubr
          hintmask 01110100
          4 2 75 5 46 hhcurveto
          28 44 -2 0 hvcurveto
          12 39 rlineto
          1 48 callgsubr
          0 -19 -2 -16 -19 -6 4 16 -3 vhcurveto
          -3 16 7 33 3 26 13 91 rcurveline
          0 104 8 24 vhcurveto
          112 hlineto
          -14 -114 -8 -66 -14 -14 -47 -1 rlinecurve
          -11 -38 rlineto
          -1 40 2 30 vhcurveto
          27 hlineto
          37 61 -2 0 hvcurveto
          11 39 rlineto
          5 callgsubr
          0 vhcurveto
          0 -19 -2 -15 -21 -8 8 26 32 30 187 22 131 vhcurveto
          endchar
        </CharString>
        <CharString name="h.sups">
          -169 365 -21 232 71 167 -20 hstem
          248 408 rmoveto
          10 45 40 92 39 vvcurveto
          36 -26 27 -36 vhcurveto
          -35 -21 -41 -53 -39 -79 -7 callsubr
          19 7 -7 -18 -1 hvcurveto
          -2 -33 -58 -366 0 vvcurveto
          -31 callsubr
          6 49 rlineto
          95 7 callsubr
          19 29 21 54 53 28 callgsubr
        </CharString>
        <CharString name="hbar">
          107 -33 callsubr
          232 43 -43 155 -38 148 -37 -20 65 -20 hstemhm
          hintmask 10100110
          -15 callgsubr
          hintmask 10101000
          0 -61 -7 -37 -1 vhcurveto
          -27 -57 2 1 -42 callsubr
          hintmask 10010110
          0 16 1 10 23 6 -8 -33 -5 vhcurveto
          -4 -31 rlineto
          -1 -35 -37 0 -31 hhcurveto
          -131 hlineto
          2 11 9 52 5 9 46 6 rlinecurve
          7 40 rlineto
          hintmask 10101000
          0 -57 -8 -35 -30 -58 -26 callsubr
          hintmask 10010110
          0 16 1 9 24 4 39 callgsubr
          -4 -32 rlineto
          -48 -37 1 0 hvcurveto
          -6 -33 8 -7 rlineto
          78 hlineto
          -28 -229 -6 -61 -8 -17 -58 -11 rlinecurve
          -10 -39 rlineto
          hintmask 01101000
          4 2 75 5 46 hhcurveto
          28 44 -2 0 hvcurveto
          12 39 rlineto
          1 48 callgsubr
          0 -19 -2 -16 -19 -6 4 16 -3 vhcurveto
          -3 16 7 33 3 26 13 91 rcurveline
          0 104 8 24 vhcurveto
          112 hlineto
          -14 -114 -8 -66 -14 -14 -47 -1 rlinecurve
          -11 -38 rlineto
          -1 40 2 30 vhcurveto
          27 hlineto
          37 61 -2 0 hvcurveto
          11 39 rlineto
          5 callgsubr
          0 vhcurveto
          0 -19 -2 -15 -21 -8 8 26 26 20 132 20 119 vhcurveto
          84 1 3 31 -11 10 rlineto
          0 -29 -1 -41 -1 vhcurveto
          -196 -40 rmoveto
          117 hlineto
          -9 -67 rlineto
          -5 -43 -30 -2 -39 -42 -42 1 -42 hhcurveto
          12 73 rlineto
          endchar
        </CharString>
        <CharString name="hcircumflex">
          107 -33 callsubr
          232 43 185 -27 callsubr
          286 -20 hstemhm
          hintmask 10111100
          -15 callgsubr
          0 -61 -7 -37 -1 vhcurveto
          -27 -57 2 1 -42 callsubr
          0 16 1 10 23 6 -8 -33 -5 vhcurveto
          -18 -137 rlineto
          -5 -43 -30 -2 -39 -42 -42 1 -42 hhcurveto
          20 122 9 52 5 9 46 6 rlinecurve
          7 40 rlineto
          -32 callgsubr
          hintmask 01111100
          4 2 75 5 46 hhcurveto
          28 44 -2 0 hvcurveto
          12 39 rlineto
          1 48 callgsubr
          0 -19 -2 -16 -19 -6 4 16 -3 vhcurveto
          -3 16 7 33 3 26 13 91 rcurveline
          0 104 8 24 vhcurveto
          112 hlineto
          -14 -114 -8 -66 -14 -14 -47 -1 rlinecurve
          -11 -38 rlineto
          -1 40 2 30 vhcurveto
          27 hlineto
          37 61 -2 0 hvcurveto
          11 39 rlineto
          5 callgsubr
          0 vhcurveto
          0 -19 -2 -15 -21 -8 8 26 32 30 187 22 131 vhcurveto
          -304 166 -87 callgsubr
        </CharString>
        <CharString name="hungarumlaut">
          555 -21 171 -20 hstem
          295 664 rmoveto
          -33 38 -9 -23 callsubr
          -74 -83 -66 -68 vhcurveto
          16 -18 9 -2 rlineto
          79 66 76 55 0 vvcurveto
          130 9 rmoveto
          -33 38 -9 -23 callsubr
          -74 -83 -66 -68 vhcurveto
          16 -18 9 -2 rlineto
          79 66 76 55 -49 callsubr
        </CharString>
        <CharString name="hungarumlaut.cap">
          706 -21 152 -20 hstem
          328 790 rmoveto
          -22 43 -9 4 44 callgsubr
          -53 vhcurveto
          9 -21 8 -5 -1 callsubr
          143 hmoveto
          -22 42 -9 5 44 callgsubr
          -54 vhcurveto
          10 -21 7 -4 -1 callsubr
          endchar
        </CharString>
        <CharString name="hyphen">
          -196 231 -21 89 -20 hstem
          279 299 rmoveto
          0 -18 -4 -46 -5 vhcurveto
          -168 -20 -13 -52 6 -8 234 26 11 54 rlineto
          endchar
        </CharString>
        <CharString name="i">
          -51 callsubr
          25 -20 hstemhm
          hintmask 10100100
          -72 callsubr
          hintmask 10110000
          -35 callsubr
          hintmask 10101000
          -91 callsubr
          hintmask 01100100
          -94 callsubr
          endchar
        </CharString>
        <CharString name="i.sups">
          -313 364 -21 373 84 hstem
          111 407 rmoveto
          15 111 33 112 -21 callsubr
          8 -7 -18 hvcurveto
          -37 vlineto
          -188 -24 -10 18 15 callsubr
          15 311 rmoveto
          28 21 22 29 19 -12 14 -21 -29 -20 -22 -28 -19 11 -15 22 hvcurveto
          endchar
        </CharString>
        <CharString name="iacute">
          -51 callsubr
          221 -20 hstemhm
          hintmask 10110100
          -72 callsubr
          -35 callsubr
          hintmask 10101100
          -91 callsubr
          hintmask 01110100
          -94 callsubr
          107 225 rmoveto
          -16 48 -9 -51 callgsubr
          -105 -60 -94 -49 vhcurveto
          6 -24 8 -5 rlineto
          105 40 101 34 -49 callsubr
        </CharString>
        <CharString name="ibreve">
          -50 callgsubr
          168 -131 -20 23 -20 90 58 50 -20 hstemhm
          hintmask 10010110
          -72 callsubr
          -35 callsubr
          hintmask 10001110
          -33 -60 3 -4 5 callsubr
          38 callsubr
          -1 vvcurveto
          hintmask 10100010
          0 21 1 11 24 4 -9 -32 -4 vhcurveto
          -40 -322 -5 -43 -16 -15 -49 -9 rlinecurve
          -10 -39 rlineto
          hintmask 01010110
          -94 callsubr
          -20 206 -91 callgsubr
        </CharString>
        <CharString name="icircumflex">
          -51 callsubr
          226 -20 hstemhm
          hintmask 10110100
          -72 callsubr
          -35 callsubr
          hintmask 10101100
          -91 callsubr
          hintmask 01110100
          -94 callsubr
          -151 151 -96 callsubr
        </CharString>
        <CharString name="idieresis">
          -50 callgsubr
          218 -181 -20 23 -20 105 93 -73 callgsubr
          hintmask 01010100
          -94 callsubr
          52 163 -102 callsubr
        </CharString>
        <CharString name="idotaccent">
          -50 callgsubr
          229 -192 -20 23 -20 99 110 -73 callgsubr
          hintmask 01010100
          -94 callsubr
          -28 157 -80 callsubr
        </CharString>
        <CharString name="igrave">
          -51 callsubr
          221 -20 hstemhm
          hintmask 10110100
          -72 callsubr
          -35 callsubr
          hintmask 10101100
          -91 callsubr
          hintmask 01110100
          -94 callsubr
          -143 215 -94 callgsubr
        </CharString>
        <CharString name="ij">
          59 -93 -21 135 -21 460 -27 callsubr
          21 -20 22 -20 25 -20 hstemhm
          hintmask 11100010
          -72 callsubr
          hintmask 11110000
          -35 callsubr
          hintmask 11100100
          -91 callsubr
          -94 callsubr
          221 -331 -65 callsubr
          hintmask 11101000
          0 -60 -6 -38 vhcurveto
          hintmask 11110000
          -43 callsubr
          endchar
        </CharString>
        <CharString name="imacron">
          -50 callgsubr
          182 -145 -20 23 -20 110 52 6 -20 -73 callgsubr
          hintmask 01010010
          -94 callsubr
          121 226 rmoveto
          hintmask 10010100
          -86 callsubr
        </CharString>
        <CharString name="infinity">
          -21 117 60 167 56 hstem
          159 400 rmoveto
          -70 -71 -71 -98 -59 33 -55 61 62 36 54 35 20 hvcurveto
          -49 19 30 -40 58 hhcurveto
          70 70 70 99 58 -32 56 -61 -61 -37 -52 -35 -21 hvcurveto
          49 -20 -32 38 -54 hhcurveto
          -29 -223 rmoveto
          -47 -25 32 43 56 38 36 37 48 20 -53 -56 19 hvcurveto
          -25 -15 -28 -33 -47 hhcurveto
          234 163 rmoveto
          48 25 -33 -42 -56 -38 -36 -37 -47 -20 53 58 -20 hvcurveto
          24 16 28 32 45 hhcurveto
          endchar
        </CharString>
        <CharString name="integral">
          -121 -158 41 673 43 hstem
          148 -42 rmoveto
          -54 -3 -26 -2 callgsubr
          77 56 86 5 vhcurveto
          31 513 rlineto
          39 2 24 20 28 hhcurveto
          36 35 -32 -35 14 hvcurveto
          13 hlineto
          8 10 10 44 20 vvcurveto
          21 -47 15 -40 -76 -67 -63 -71 -4 vhcurveto
          endchar
        </CharString>
        <CharString name="iogonek">
          -200 -242 57 205 -21 22 -21 460 13 callsubr
          hintmask 11010010
          231 -163 rmoveto
          0 -39 -22 -35 -29 -19 19 27 43 24 30 69 65 vhcurveto
          17 14 -1 0 hvcurveto
          12 39 -2 -23 callsubr
          -21 -2 -19 -20 -9 8 25 33 31 188 23 130 vhcurveto
          5 29 12 9 43 5 9 40 rcurveline
          hintmask 11011000
          -35 callsubr
          hintmask 10110100
          -91 callsubr
          0 55 9 41 vhcurveto
          35 hlineto
          -64 -59 -50 -50 -53 vvcurveto
          -51 37 -29 55 vhcurveto
          49 16 52 45 -49 callsubr
        </CharString>
        <CharString name="itilde">
          -51 callsubr
          106 -20 42 34 callsubr
          hintmask 1011011010000000
          -72 callsubr
          -35 callsubr
          hintmask 1010111010000000
          -91 callsubr
          hintmask 0111010110000000
          -94 callsubr
          -158 164 23 callsubr
          hintmask 1011011010000000
          -59 callgsubr
          hintmask 1011010110000000
          -50 callsubr
        </CharString>
        <CharString name="j">
          -59 callsubr
        </CharString>
        <CharString name="j.sups">
          -323 219 -21 518 84 hstem
          107 363 rmoveto
          17 123 37 144 0 vvcurveto
          -7 9 rlineto
          0 -69 -4 -44 25 callsubr
          19 8 -8 -17 -22 -32 -182 0 hvcurveto
          -11 -85 -19 -34 -48 -35 -2 -6 rcurveline
          14 -16 66 32 42 52 11 81 rlinecurve
          23 353 rmoveto
          27 22 22 29 20 -13 13 -20 -28 -21 -21 -29 -21 12 -13 21 hvcurveto
          endchar
        </CharString>
        <CharString name="jcircumflex">
          -227 -93 -21 574 -20 58 -20 259 -20 hstem
          102 91 -65 callsubr
          0 -60 -6 -38 vhcurveto
          -43 callsubr
          -72 143 -87 callgsubr
        </CharString>
        <CharString name="k">
          15 10 -21 32 -21 460 -27 callsubr
          28 -20 hstemhm
          hintmask 01101000
          -64 callsubr
          hintmask 10110000
          -83 callgsubr
          endchar
        </CharString>
        <CharString name="k.sups">
          -203 359 -21 238 71 167 -20 hstem
          215 342 rmoveto
          8 -4 56 18 rlineto
          9 vlineto
          0 -37 49 -35 56 vhcurveto
          60 36 32 41 39 vvcurveto
          35 -26 26 -37 vhcurveto
          -35 -21 -41 -54 -39 -78 -7 callsubr
          18 7 -7 -17 -24 -60 -376 0 hvcurveto
          -31 callsubr
          6 48 rlineto
          96 40 45 67 24 hhcurveto
          11 7 -8 -13 -32 -33 -24 -44 -22 hvcurveto
          -3 -10 rlineto
          endchar
        </CharString>
        <CharString name="kcommaaccent">
          15 -24 callsubr
          67 10 -21 471 -27 callsubr
          28 -20 hstemhm
          hintmask 11010100
          -64 callsubr
          hintmask 10111000
          -83 callgsubr
          -25 -365 -99 callgsubr
          hintmask 11010100
          -44 callsubr
        </CharString>
        <CharString name="kgreenlandic">
          15 10 -21 32 -21 460 -27 callsubr
          28 -20 hstemhm
          hintmask 01101000
          -64 callsubr
          hintmask 10110000
          -83 callgsubr
          endchar
        </CharString>
        <CharString name="l">
          -81 -22 callsubr
          153 hmoveto
          -88 callsubr
          hintmask 10110000
          27 callgsubr
          hintmask 01101000
          -80 callgsubr
          hintmask 10100100
          47 callgsubr
        </CharString>
        <CharString name="l.sups">
          -322 364 -21 471 -20 hstem
          103 407 rmoveto
          19 144 56 254 9 callgsubr
          hvcurveto
          -23 -58 -349 -14 vvcurveto
          -16 9 -9 17 15 callsubr
          endchar
        </CharString>
        <CharString name="lacute">
          -81 0 41 -28 -21 468 -27 callsubr
          23 -20 221 -20 hstemhm
          hintmask 10110100
          153 hmoveto
          -88 callsubr
          27 callgsubr
          hintmask 01101100
          -80 callgsubr
          hintmask 10110100
          42 callsubr
          204 647 rmoveto
          -16 48 -9 -51 callgsubr
          -105 -60 -94 -49 vhcurveto
          6 -24 8 -5 rlineto
          105 40 101 34 -49 callsubr
        </CharString>
        <CharString name="lcaron">
          -66 -22 callsubr
          428 496 rmoveto
          -64 -11 rlineto
          0 9 -85 -2 -87 vhcurveto
          9 -2 26 12 rlineto
          17 81 11 85 0 vvcurveto
          -281 -489 rmoveto
          -88 callsubr
          hintmask 10110000
          27 callgsubr
          hintmask 01101000
          -80 callgsubr
          hintmask 10100100
          47 callgsubr
        </CharString>
        <CharString name="lcommaaccent">
          -81 -24 callsubr
          67 0 41 419 13 callsubr
          hintmask 10110010
          153 hmoveto
          -88 callsubr
          hintmask 11011000
          27 callgsubr
          hintmask 10110100
          -80 callgsubr
          42 callsubr
          10 -9 callsubr
          hintmask 11010010
          -44 callsubr
        </CharString>
        <CharString name="ldot">
          -48 0 41 -28 -21 281 119 68 13 callsubr
          hintmask 10110010
          153 hmoveto
          -88 callsubr
          hintmask 10111000
          27 callgsubr
          hintmask 01110100
          -80 callgsubr
          hintmask 10110010
          42 callsubr
          220 273 -32 callsubr
        </CharString>
        <CharString name="less">
          -23 91 -21 394 -20 hstem
          40 239 rmoveto
          0 113 -52 66 -32 vhcurveto
          74 -35 94 -50 0 vvcurveto
          35 40 rlineto
          11 vlineto
          15 callgsubr
          112 39 3 callsubr
          50 -8 5 rlineto
          0 -110 -42 -91 -39 vhcurveto
          -205 -86 -8 -47 rlineto
          endchar
        </CharString>
        <CharString name="lessequal">
          -23 -73 55 -36 -21 539 47 callsubr
          40 239 rmoveto
          2 111 -53 -31 66 hvcurveto
          37 -18 rlineto
          66 -31 66 -37 1 vvcurveto
          34 40 1 4 -1 3 1 4 rlinecurve
          15 callgsubr
          111 39 0 vvcurveto
          -1 50 -8 5 rlineto
          0 -110 -43 -92 -38 vhcurveto
          -205 -86 -7 -47 rlineto
          399 -262 29 callgsubr
          30 callsubr
          hintmask 10100000
          41 243 2 152 hhcurveto
          14 51 rlineto
          endchar
        </CharString>
        <CharString name="logicalnot">
          -21 51 -21 205 56 6 47 callsubr
          443 297 rmoveto
          hintmask 11000000
          0 -101 -6 -76 -18 callsubr
          87 vhcurveto
          133 1 rlineto
          -11 -88 -15 -112 31 callgsubr
          7 66 9 70 vhcurveto
          6 47 15 63 -49 callsubr
        </CharString>
        <CharString name="lozenge">
          -20 -73 -21 745 -20 hstem
          63 262 rmoveto
          57 -164 58 -185 10 -7 48 2 107 189 94 174 2 26 -55 162 -59 185 -10 7 -48 -2 -107 -189 -95 -177 rlineto
          140 156 rmoveto
          75 143 rlineto
          6 hlineto
          48 -156 48 -146 -84 -162 -75 -143 rlineto
          -6 hlineto
          -48 156 -47 145 rlineto
          endchar
        </CharString>
        <CharString name="lslash">
          -81 -22 callsubr
          153 hmoveto
          78 134 -7 0 hvcurveto
          38 callgsubr
          81 23 74 0 vvcurveto
          -1 5 callgsubr
          2 vvcurveto
          -43 -5 rlineto
          -97 -27 -19 -15 -88 hhcurveto
          -47 -11 7 30 16 11 80 13 81 hvcurveto
          141 66 -7 32 -7 4 -120 -57 6 37 6 35 5 24 rlinecurve
          12 59 4 3 47 7 8 40 rcurveline
          hintmask 10110000
          27 callgsubr
          hintmask 01101000
          -32 -56 3 -5 5 callsubr
          rlineto
          1 -2 1 -1 -1 vvcurveto
          -34 callsubr
          22 6 -7 -34 -4 vhcurveto
          -19 -148 -86 -41 7 -32 8 -2 66 31 -16 -129 -6 -45 -14 -15 -41 -6 -29 callgsubr
          hintmask 10100100
          47 callgsubr
        </CharString>
        <CharString name="m">
          181 7 -21 29 -21 27 -21 497 -20 21 -20 24 -20 hstemhm
          hintmask 01000100
          325 -9 rmoveto
          67 140 67 137 61 125 rrcurveto
          5 hlineto
          0 -12 -293 -3 -28 vhcurveto
          -4 -23 -15 -12 -32 -4 -9 -39 rcurveline
          hintmask 00100100
          2 56 6 32 hhcurveto
          30 45 -2 0 hvcurveto
          12 38 rlineto
          1 48 callgsubr
          0 -13 -1 -9 -26 -6 14 60 2 vhcurveto
          2 105 10 181 3 26 2 26 17 11 46 5 8 33 rcurveline
          1 48 callgsubr
          hintmask 01001000
          0 -60 -4 -25 vhcurveto
          -19 -1 -37 4 -5 -2 rrcurveto
          -94 -212 -77 -159 0 vvcurveto
          -4 hlineto
          0 -44 157 -41 216 vhcurveto
          hintmask 01010000
          0 -35 -4 -25 -26 -63 4 0 vhcurveto
          -9 -31 -53 callsubr
          44 -3 18 -11 -22 vvcurveto
          -19 -60 -264 -11 -55 vhcurveto
          -10 -41 -14 -14 -33 -4 -9 -39 rcurveline
          hintmask 00100100
          0 39 6 31 26 54 -46 callsubr
          13 39 rlineto
          -1 1 -1 0 1 vvcurveto
          -31 hlineto
          -15 -7 6 13 15 65 321 0 hvcurveto
          5 hlineto
          hintmask 10000100
          31 -130 32 -134 33 -143 rrcurveto
          endchar
        </CharString>
        <CharString name="m.sups">
          -8 365 -21 232 71 hstem
          409 408 rmoveto
          11 46 41 92 40 vvcurveto
          36 -25 25 -36 vhcurveto
          -36 -22 -43 -55 -38 -76 -2 1 rcurveline
          0 21 71 20 vvcurveto
          35 -26 26 -35 vhcurveto
          -35 -21 -39 -53 -39 -79 -3 -41 callgsubr
          49 rlineto
          96 39 42 66 23 hhcurveto
          11 8 -9 -14 -24 -42 -175 0 hvcurveto
          -31 callsubr
          6 38 rlineto
          102 43 47 71 24 hhcurveto
          11 8 -10 -14 hvcurveto
          -38 -49 -112 -35 vvcurveto
          -15 9 -8 17 19 30 21 54 53 vhcurveto
          -9 19 -10 2 rlineto
          -31 -36 -5 -3 -5 hhcurveto
          endchar
        </CharString>
        <CharString name="macron">
          595 52 -32 -21 59 -20 -8 callsubr
          383 653 rmoveto
          hintmask 10000000
          0 -77 -6 -48 -57 -91 1 0 vhcurveto
          -15 -45 18 callgsubr
          81 1 57 vhcurveto
          136 1 13 47 rlineto
          endchar
        </CharString>
        <CharString name="macron.cap">
          730 52 -32 -21 59 -20 -8 callsubr
          398 788 rmoveto
          hintmask 10000000
          0 -77 -6 -48 -56 -91 1 0 vhcurveto
          -16 -45 18 callgsubr
          82 1 56 vhcurveto
          137 1 13 47 rlineto
          endchar
        </CharString>
        <CharString name="minus">
          -21 235 56 20 callsubr
          472 297 rmoveto
          hintmask 10000000
          0 -129 -6 -77 -86 -143 1 0 vhcurveto
          -17 -49 18 callgsubr
          133 1 87 vhcurveto
          218 1 14 51 rlineto
          endchar
        </CharString>
        <CharString name="mu">
          -7 -221 -21 230 71 405 -20 hstem
          96 445 rmoveto
          -6 -7 rlineto
          0 1 -58 -7 -52 vhcurveto
          -38 -255 rlineto
          -23 -161 -28 -142 0 vvcurveto
          5 -12 68 15 6 7 rlineto
          0 0 91 9 51 vhcurveto
          15 89 5 3 rlineto
          -15 16 22 -11 30 hhcurveto
          41 9 63 48 28 22 5 -2 rcurveline
          -51 -3 30 -26 50 hhcurveto
          34 61 80 0 hvcurveto
          -12 16 rlineto
          0 -30 -25 -30 -22 -12 14 24 41 49 284 16 30 vhcurveto
          -5 12 -88 -18 -5 -7 rlineto
          0 -1 -59 -4 -34 vhcurveto
          -28 -233 rlineto
          -1 -62 -56 -50 hhcurveto
          -49 -20 29 49 25 43 250 20 42 hvcurveto
          -4 12 rlineto
          endchar
        </CharString>
        <CharString name="multiply">
          -21 101 -21 369 -20 hstem
          404 449 rmoveto
          0 -90 -90 -61 -58 vhcurveto
          -52 62 -64 79 0 vvcurveto
          -47 -26 -3 -11 rlineto
          0 68 -82 53 -62 vhcurveto
          -67 -62 -81 -74 0 vvcurveto
          22 -42 10 -3 rlineto
          0 83 79 68 63 vhcurveto
          116 -138 45 30 5 12 rlineto
          0 -73 78 -49 57 vhcurveto
          153 143 -26 42 rlineto
          endchar
        </CharString>
        <CharString name="n">
          44 callsubr
          27 -20 hstemhm
          hintmask 11110000
          -98 callgsubr
          hintmask 11101000
          8 40 rlineto
          hintmask 11110000
          -18 callgsubr
          endchar
        </CharString>
        <CharString name="n.sups">
          -161 365 -21 232 71 hstem
          256 408 rmoveto
          10 45 39 93 38 vvcurveto
          37 -25 26 -36 vhcurveto
          -35 -21 -41 -53 -39 -79 -4 -41 callgsubr
          48 rlineto
          96 7 callsubr
          20 30 23 52 51 28 callgsubr
        </CharString>
        <CharString name="nacute">
          44 callsubr
          224 -20 hstem
          -98 callgsubr
          8 40 rlineto
          -18 callgsubr
          56 519 rmoveto
          -16 48 -9 -51 callgsubr
          -105 -60 -94 -49 vhcurveto
          6 -24 8 -5 rlineto
          105 40 101 34 -49 callsubr
        </CharString>
        <CharString name="nbspace">
          -315 endchar
        </CharString>
        <CharString name="ncaron">
          44 callsubr
          221 -20 hstem
          -98 callgsubr
          8 40 rlineto
          -18 callgsubr
          50 569 -98 callsubr
        </CharString>
        <CharString name="ncommaaccent">
          83 -272 -21 314 -21 460 -27 callsubr
          27 -20 hstemhm
          hintmask 11110000
          -98 callgsubr
          hintmask 11101000
          8 40 rlineto
          hintmask 11110000
          -18 callgsubr
          -220 -235 -99 callgsubr
          -44 callsubr
        </CharString>
        <CharString name="nine">
          -70 -84 12 callsubr
          44 77 210 39 callsubr
          371 109 322 vvcurveto
          102 -54 77 -96 40 callsubr
          45 callgsubr
          -206 -73 0 vvcurveto
          194 278 rmoveto
          -62 -37 52 61 82 47 54 68 61 29 callsubr
          -42 hhcurveto
          endchar
        </CharString>
        <CharString name="nine.dnom">
          -206 14 -4 callgsubr
          24 -85 callsubr
        </CharString>
        <CharString name="nine.lf">
          -70 10 12 callsubr
          56 76 211 80 vstem
          38 24 rmoveto
          7 -30 7 -5 rlineto
          0 371 109 322 vvcurveto
          102 -55 77 -95 40 callsubr
          55 32 20 28 vhcurveto
          3 -3 rlineto
          -74 -195 -205 -73 0 vvcurveto
          194 278 rmoveto
          -62 -38 53 61 81 47 54 69 61 34 -53 -82 -20 -3 -27 -8 -30 hvcurveto
          -11 -17 -41 -26 -42 hhcurveto
          endchar
        </CharString>
        <CharString name="nine.numr">
          -206 281 -4 callgsubr
          291 -85 callsubr
        </CharString>
        <CharString name="nine.sinf">
          -206 -106 -4 callgsubr
          -96 -85 callsubr
        </CharString>
        <CharString name="nine.sups">
          -206 365 -4 callgsubr
          375 -85 callsubr
        </CharString>
        <CharString name="nine.tf">
          -57 10 12 callsubr
          59 76 217 80 vstem
          41 24 rmoveto
          7 -30 7 -5 rlineto
          0 377 109 321 vvcurveto
          103 -56 77 -97 -126 -94 -98 -110 -71 47 -77 103 29 56 32 20 29 vhcurveto
          3 -3 rlineto
          -75 -195 -210 -73 0 vvcurveto
          197 278 rmoveto
          -64 -39 53 61 81 48 54 71 63 35 -53 -82 -20 -3 -27 -8 -30 hvcurveto
          -11 -18 -42 -26 -43 hhcurveto
          endchar
        </CharString>
        <CharString name="nine.tosf">
          -67 -84 12 callsubr
          44 77 212 39 callsubr
          373 109 322 vvcurveto
          102 -54 77 -97 -124 -94 -98 -110 -71 47 -77 101 29 45 callgsubr
          -208 -73 0 vvcurveto
          195 278 rmoveto
          -62 -38 52 61 82 48 54 68 62 29 callsubr
          -43 hhcurveto
          endchar
        </CharString>
        <CharString name="notequal">
          -21 45 -21 134 56 101 56 135 -20 hstem
          482 377 rmoveto
          0 -107 -5 -78 -1 vhcurveto
          48 125 -7 10 rlineto
          -27 hlineto
          -51 -135 rlineto
          -86 -127 1 0 hvcurveto
          -17 -49 5 -9 rlineto
          0 119 1 85 vhcurveto
          -37 -101 rlineto
          -81 -94 1 0 hvcurveto
          -17 -49 5 -9 rlineto
          0 86 1 79 vhcurveto
          -46 -126 5 -8 rlineto
          28 hlineto
          50 134 rlineto
          20 hlineto
          72 72 1 72 hhcurveto
          14 51 -4 10 rlineto
          -1 -154 -5 -71 vhcurveto
          38 101 rlineto
          66 65 1 65 hhcurveto
          15 51 rlineto
          endchar
        </CharString>
        <CharString name="ntilde">
          83 -8 -21 50 -21 460 175 -138 -20 94 26 callgsubr
          hintmask 11011010
          -98 callgsubr
          8 40 rlineto
          0 -48 -7 -34 -28 -52 4 0 vhcurveto
          -12 -38 -53 callsubr
          hintmask 11100010
          -47 callgsubr
          -222 431 rmoveto
          hintmask 11010100
          0 43 45 23 vhcurveto
          hintmask 11011010
          -73 callsubr
          hintmask 11010100
          -60 callgsubr
        </CharString>
        <CharString name="numbersign">
          -27 56 -21 173 46 108 44 167 -20 hstem
          66 362 rmoveto
          104 1 -18 -52 -19 -57 -104 1 -19 -37 2 -10 106 1 -56 -168 6 -6 41 8 55 166 35 1 66 -1 -56 -168 7 -6 40 8 54 165 98 -1 22 36 -3 9 rlineto
          -102 hlineto
          24 71 13 39 100 -1 23 36 -3 9 rlineto
          -103 hlineto
          56 161 -7 6 -41 -5 -55 -162 -50 1 rlineto
          -50 hlineto
          56 160 -7 6 -41 -5 -54 -160 -103 1 -19 -37 rlineto
          138 -49 rmoveto
          14 40 37 1 64 -1 -17 -52 -20 -59 -52 1 rlineto
          -50 hlineto
          endchar
        </CharString>
        <CharString name="o">
          -27 callgsubr
          -42 callgsubr
          -100 callgsubr
          endchar
        </CharString>
        <CharString name="o.sups">
          -49 callgsubr
        </CharString>
        <CharString name="oacute">
          -27 callgsubr
          194 -20 -42 callgsubr
          -100 callgsubr
          210 656 rmoveto
          -16 48 -9 -51 callgsubr
          -105 -60 -94 -49 vhcurveto
          6 -24 8 -5 rlineto
          105 40 101 34 -49 callsubr
        </CharString>
        <CharString name="obreve">
          -27 callgsubr
          63 58 50 -20 -42 callgsubr
          -100 callgsubr
          95 637 -91 callgsubr
        </CharString>
        <CharString name="ocircumflex">
          -27 callgsubr
          199 -20 -42 callgsubr
          -100 callgsubr
          -51 582 -96 callsubr
        </CharString>
        <CharString name="odieresis">
          -27 callgsubr
          78 93 -42 callgsubr
          -100 callgsubr
          152 594 -102 callsubr
        </CharString>
        <CharString name="oe">
          246 -9 50 412 43 -41 -20 71 -20 21 -20 hstemhm
          37 82 hintmask 11000100
          451 88 rmoveto
          21 140 62 5 rlineto
          41 66 -2 0 hvcurveto
          17 50 -3 5 rlineto
          0 -68 -8 -28 vhcurveto
          -80 1 25 145 rlineto
          27 4 3 2 48 hhcurveto
          91 19 -5 -35 -19 -7 -29 -11 callsubr
          72 21 4 callsubr
          hintmask 10101100
          7 callgsubr
          hintmask 11000100
          -8 -60 -74 -3 -109 hhcurveto
          hintmask 10110100
          -65 -61 10 -54 hhcurveto
          -158 -123 -132 -174 -125 81 -84 115 hvcurveto
          55 57 10 78 hhcurveto
          81 160 -6 0 hvcurveto
          6 5 rlineto
          16 69 20 66 0 vvcurveto
          -1 4 -42 -4 rlineto
          -84 -24 -16 -10 -117 hhcurveto
          -55 -5 5 42 5 hvcurveto
          -197 -51 rmoveto
          -84 -51 71 108 143 80 96 104 105 26 -20 -73 -9 hvcurveto
          -25 -201 rlineto
          -90 -14 -38 -34 -94 hhcurveto
          endchar
        </CharString>
        <CharString name="ogonek">
          -241 59 224 -20 hstem
          232 -159 -31 callgsubr
          50 34 33 98 93 vhcurveto
          -41 hlineto
          -83 -76 -72 -60 -64 -48 callgsubr
          endchar
        </CharString>
        <CharString name="ograve">
          -27 callgsubr
          194 -20 -42 callgsubr
          -100 callgsubr
          -45 646 -94 callgsubr
        </CharString>
        <CharString name="ohungarumlaut">
          -27 callgsubr
          190 -20 -42 callgsubr
          -100 callgsubr
          124 659 rmoveto
          -22 43 -9 4 44 callgsubr
          -53 vhcurveto
          9 -21 8 -5 -1 callsubr
          143 hmoveto
          -22 42 -9 5 44 callgsubr
          -54 vhcurveto
          10 -21 7 -4 -1 callsubr
          endchar
        </CharString>
        <CharString name="omacron">
          -27 callgsubr
          83 48 callsubr
          47 81 326 85 hintmask 11011100
          -100 callgsubr
          229 657 rmoveto
          hintmask 11101100
          -86 callsubr
        </CharString>
        <CharString name="one">
          -167 0 44 -35 -21 517 -20 -8 callsubr
          235 404 rmoveto
          9 46 9 16 28 22 -4 17 rcurveline
          -2 -2 -2 -16 -97 hvcurveto
          -8 -50 -57 -7 -1 hhcurveto
          -9 -42 2 -3 rlineto
          0 32 6 20 32 19 -6 -51 -7 vhcurveto
          -28 -228 -10 -88 -19 -20 -71 -6 rlinecurve
          -11 -46 rlineto
          hintmask 10100000
          0 74 12 50 47 81 -26 callgsubr
          -30 -11 11 34 26 23 159 21 130 vhcurveto
          endchar
        </CharString>
        <CharString name="one.dnom">
          -267 14 -21 28 -21 377 47 callsubr
          184 311 -89 callgsubr
          hintmask 01100000
          -22 callgsubr
        </CharString>
        <CharString name="one.lf">
          -167 0 44 -35 -21 610 -20 -8 callsubr
          249 497 rmoveto
          8 46 11 16 27 22 -4 17 rcurveline
          -1 -4 -2 -16 -98 hvcurveto
          -9 -50 -57 -6 -1 hhcurveto
          -9 -42 3 -3 rlineto
          0 31 6 20 33 18 -6 -51 -6 vhcurveto
          -43 -349 -8 -64 -30 -17 -59 -5 rlinecurve
          -12 -46 rlineto
          hintmask 10100000
          0 75 12 50 47 81 -26 callgsubr
          -30 -11 11 34 34 36 256 21 118 vhcurveto
          endchar
        </CharString>
        <CharString name="one.numr">
          -267 281 -21 330 -20 74 -20 hstem
          184 578 -89 callgsubr
          -22 callgsubr
        </CharString>
        <CharString name="one.sinf">
          -267 -120 -20 34 -21 384 -20 -8 callsubr
          184 191 -89 callgsubr
          hintmask 10100000
          -22 callgsubr
        </CharString>
        <CharString name="one.sups">
          -267 365 -21 384 -20 hstem
          184 662 -89 callgsubr
          -22 callgsubr
        </CharString>
        <CharString name="one.tf">
          -57 9 -21 33 -21 598 47 callsubr
          301 497 rmoveto
          8 46 13 16 31 22 -4 17 rcurveline
          -1 3 -2 -16 -115 hvcurveto
          -9 -60 -68 -6 3 hhcurveto
          -9 -42 3 -3 rlineto
          0 37 6 24 38 23 -6 -51 -6 vhcurveto
          -44 -349 -8 -64 -36 -17 -69 -5 rlinecurve
          -12 -46 rlineto
          hintmask 01100000
          0 84 12 56 55 94 -46 callsubr
          14 46 -1 -30 callsubr
          -34 -3 -27 -37 -13 12 34 37 36 253 22 117 vhcurveto
          endchar
        </CharString>
        <CharString name="one.tosf">
          -67 9 -21 33 -21 505 47 callsubr
          281 404 rmoveto
          10 46 9 16 33 22 -4 17 rcurveline
          -3 6 -2 -16 -113 hvcurveto
          -8 -59 -68 -7 4 hhcurveto
          -9 -42 2 -3 rlineto
          0 37 6 24 37 23 -6 -51 -7 vhcurveto
          -29 -228 -10 -88 -21 -20 -83 -6 rlinecurve
          -11 -46 rlineto
          hintmask 01100000
          0 82 12 56 54 92 -46 callsubr
          14 46 -1 -30 callsubr
          -33 -3 -27 -36 -13 11 35 28 22 157 22 129 vhcurveto
          endchar
        </CharString>
        <CharString name="onedotenleader">
          -278 -12 119 hstem
          83 -12 rmoveto
          -72 callgsubr
          endchar
        </CharString>
        <CharString name="onehalf">
          206 -74 -21 95 51 539 -20 108 -20 hstem
          556 659 -82 callgsubr
          -377 -67 -89 callgsubr
          -76 callsubr
          216 -585 rmoveto
          -92 callgsubr
        </CharString>
        <CharString name="onequarter">
          178 -74 -21 200 47 438 -20 108 -20 hstem
          556 659 -82 callgsubr
          -377 -67 -89 callgsubr
          -76 callsubr
          200 -471 rmoveto
          148 -3 rlineto
          -6 -47 -11 -58 0 vvcurveto
          4 -6 62 7 5 -51 callgsubr
          2 49 6 48 vhcurveto
          51 -2 11 44 -4 7 rlineto
          -52 hlineto
          25 219 -39 6 -4 -1 -192 -235 rlineto
          157 136 rmoveto
          6 hlineto
          -15 -125 rlineto
          -91 hlineto
          endchar
        </CharString>
        <CharString name="ordfeminine">
          -69 callgsubr
        </CharString>
        <CharString name="ordmasculine">
          -49 callgsubr
        </CharString>
        <CharString name="oslash">
          57 -56 -21 68 46 417 53 46 -74 callsubr
          endchar
        </CharString>
        <CharString name="oslashacute">
          57 -56 -21 68 46 417 53 219 -74 callsubr
          329 454 rmoveto
          -16 48 -9 -51 callgsubr
          -105 -60 -94 -49 vhcurveto
          6 -24 8 -5 rlineto
          105 40 101 34 -49 callsubr
        </CharString>
        <CharString name="otilde">
          -27 callgsubr
          64 26 callgsubr
          47 81 326 85 hintmask 11010110
          -100 callgsubr
          -48 568 2 callgsubr
          hintmask 11101110
          -73 callsubr
          hintmask 11010110
          -60 callgsubr
        </CharString>
        <CharString name="p">
          -46 15 -21 27 -21 457 44 -41 -27 callsubr
          23 -20 hstemhm
          383 77 hintmask 10011010
          99 463 rmoveto
          -12 callgsubr
          -34 -4 vhcurveto
          -40 -321 -5 -44 -13 -12 -46 -8 rlinecurve
          -10 -39 rlineto
          hintmask 01100010
          2 1 77 4 43 hhcurveto
          25 52 -2 0 hvcurveto
          12 39 rlineto
          1 48 callgsubr
          0 -27 -2 -15 -27 -9 10 32 5 vhcurveto
          16 107 rlineto
          75 hlineto
          102 94 92 100 74 -58 48 -107 hvcurveto
          hintmask 10011010
          0 -73 -4 -23 vhcurveto
          hintmask 10010110
          -31 -55 3 -3 hhcurveto
          88 -262 rmoveto
          10 71 12 74 13 62 rrcurveto
          hintmask 10100010
          11 1 0 1 20 hhcurveto
          88 41 -30 -64 -76 -37 -48 -70 -12 hvcurveto
          endchar
        </CharString>
        <CharString name="p.sups">
          -179 224 -21 144 46 254 -20 hstem
          -5 203 rmoveto
          0 71 4 74 vhcurveto
          5 29 rlineto
          4 -28 vlineto
          -24 -6 6 24 3 hvcurveto
          13 87 61 -10 rlineto
          68 74 103 97 60 -29 40 -46 hvcurveto
          -33 -26 -28 -41 -42 -82 -3 1 rcurveline
          8 46 11 42 15 44 -6 8 rcurveline
          -14 callsubr
          19 7 -7 -17 -23 -37 -241 -9 -40 hvcurveto
          -8 -31 -8 -9 -20 -2 rrcurveto
          218 352 rmoveto
          13 12 -31 -36 -59 -30 -66 -29 -20 -30 10 8 -18 hvcurveto
          105 42 43 69 17 hhcurveto
          endchar
        </CharString>
        <CharString name="paragraph">
          32 -105 47 650 49 -4 47 callsubr
          316 134 rmoveto
          -140 -17 -23 -52 -80 hhcurveto
          -54 -32 46 90 11 hvcurveto
          -15 hlineto
          -24 -25 -24 -42 -31 vvcurveto
          -59 56 -26 62 151 39 96 163 20 vhcurveto
          10 77 34 259 16 59 7 36 16 12 58 -3 2 4 rcurveline
          11 42 rlineto
          0 -85 -3 -36 vhcurveto
          hintmask 11000000
          -26 -51 4 -48 hhcurveto
          -135 -94 -100 -124 -131 95 -64 113 -10 hvcurveto
          2 15 rlineto
          -29 49 -15 50 67 vvcurveto
          118 39 81 76 25 0 -1 -13 vhcurveto
          endchar
        </CharString>
        <CharString name="parenleft">
          -210 -125 -21 795 -20 hstem
          73 163 rmoveto
          -30 -242 169 -67 0 vvcurveto
          4 hlineto
          25 26 rlineto
          5 vlineto
          0 -127 70 28 223 vhcurveto
          21 173 rlineto
          25 207 137 58 0 vvcurveto
          2 4 -10 29 rlineto
          -5 hlineto
          0 -188 -68 -30 -245 vhcurveto
          endchar
        </CharString>
        <CharString name="parenright">
          -206 -125 -21 795 -20 hstem
          232 340 rmoveto
          29 242 -169 67 0 vvcurveto
          -4 hlineto
          -24 -26 -1 -5 rlineto
          0 127 -70 -27 -223 vhcurveto
          -21 -173 rlineto
          -26 -207 -137 -58 0 vvcurveto
          -1 -4 10 -29 rlineto
          4 hlineto
          0 188 68 30 245 vhcurveto
          endchar
        </CharString>
        <CharString name="partialdiff">
          -19 -12 49 362 54 288 -20 hstem
          37 83 249 85 vstem
          349 427 rmoveto
          0 -42 26 -30 -126 -114 -124 -151 -98 51 -92 117 136 113 132 172 213 -140 155 -175 81 vhcurveto
          -10 -4 -20 -33 120 -62 87 -85 35 -128 rlinecurve
          18 -152 rmoveto
          -161 -58 -79 -74 -76 -41 73 92 126 55 71 85 69 28 -34 -13 9 vhcurveto
          2 -19 1 -33 -23 vvcurveto
          endchar
        </CharString>
        <CharString name="percent">
          140 -64 callgsubr
          112 -41 callsubr
        </CharString>
        <CharString name="period">
          -278 -12 119 hstem
          83 -12 rmoveto
          -72 callgsubr
          endchar
        </CharString>
        <CharString name="periodcentered">
          -278 168 119 hstem
          105 168 -32 callsubr
        </CharString>
        <CharString name="perthousand">
          459 -64 callgsubr
          334 64 rmoveto
          -43 -43 0 callgsubr
          30 -40 -52 -84 -58 -17 -38 hvcurveto
          -15 -64 rmoveto
          102 59 97 97 65 -40 64 -80 -94 -66 -83 -107 -77 47 -56 72 hvcurveto
          -207 -41 callsubr
        </CharString>
        <CharString name="pi">
          70 -81 -21 90 64 393 50 10 -20 hstemhm
          hintmask 11100000
          406 131 rmoveto
          38 18 77 28 144 vhcurveto
          46 9 18 9 85 hhcurveto
          7 7 16 46 rlineto
          hintmask 11010000
          -5 7 rlineto
          hintmask 11100000
          0 -86 -10 -56 vhcurveto
          hintmask 11010000
          -57 -163 10 -109 hhcurveto
          -15 -7 -71 -98 rlineto
          -7 vlineto
          23 -18 7 1 rlineto
          0 36 66 30 25 10 -8 -28 -48 -69 -432 -9 -16 vhcurveto
          5 -12 74 16 5 7 rlineto
          0 3 53 6 48 vhcurveto
          10 80 32 208 15 82 rrcurveto
          46 8 6 4 63 hhcurveto
          75 4 -3 -51 -6 hvcurveto
          -38 -269 rlineto
          -90 -13 32 -41 78 hhcurveto
          8 42 46 11 2 hvcurveto
          -5 7 rlineto
          -54 -24 24 55 hvcurveto
          endchar
        </CharString>
        <CharString name="plus">
          -21 51 -21 205 56 209 -20 hstem
          299 500 rmoveto
          -53 -8 -25 -201 rlineto
          -83 -101 1 0 hvcurveto
          -17 -49 5 -9 rlineto
          0 105 1 84 vhcurveto
          -11 -88 -15 -111 31 callgsubr
          12 106 11 88 vhcurveto
          193 1 14 51 -5 10 rlineto
          0 -118 -6 -77 vhcurveto
          10 80 21 123 -49 callsubr
        </CharString>
        <CharString name="plusminus">
          -21 -73 58 -39 -21 323 56 199 -17 callgsubr
          299 503 rmoveto
          -52 -8 -25 -191 rlineto
          -83 -101 1 0 hvcurveto
          -16 -49 4 -9 rlineto
          0 105 1 84 vhcurveto
          -10 -86 -14 -103 31 callgsubr
          11 99 11 85 vhcurveto
          63 65 1 64 hhcurveto
          14 51 -4 10 rlineto
          0 -119 -6 -77 vhcurveto
          10 80 20 113 0 vvcurveto
          126 -509 rmoveto
          -1 -33 -1 -42 -1 vhcurveto
          -2 -42 -51 -1 -38 -85 -142 1 -2 hhcurveto
          -16 -49 rlineto
          hintmask 01110000
          4 -9 rlineto
          hintmask 10110000
          42 242 6 callsubr
        </CharString>
        <CharString name="product">
          173 0 44 -35 -21 596 53 -49 -20 78 -20 hstemhm
          hintmask 10011000
          592 538 rmoveto
          7 38 14 12 55 7 10 51 rcurveline
          hintmask 10100000
          -4 -3 -110 -5 -37 hhcurveto
          -296 hlineto
          -40 -75 3 0 hvcurveto
          -13 -50 1 -4 rlineto
          hintmask 01011000
          0 26 2 14 23 8 -8 -26 -38 -37 -258 -16 -138 vhcurveto
          -8 -58 -20 -16 -59 -12 -12 -46 rcurveline
          hintmask 10100000
          5 3 97 7 52 hhcurveto
          41 47 -4 1 1 hvcurveto
          14 46 -2 -30 callsubr
          -27 -3 -23 -11 -7 2 4 -7 vhcurveto
          -8 5 -3 13 20 vvcurveto
          38 35 222 33 190 vhcurveto
          40 7 20 6 101 hhcurveto
          99 22 -3 -35 -36 -36 -253 -16 -137 hvcurveto
          -7 -58 -20 -16 -60 -12 rrcurveto
          hintmask 01100000
          -11 -46 rlineto
          hintmask 10100000
          0 64 12 50 45 81 -26 callgsubr
          -26 -10 11 33 38 36 222 32 190 vhcurveto
          endchar
        </CharString>
        <CharString name="q">
          61 -170 68 93 46 417 53 -42 callgsubr
          248 -9 rmoveto
          -137 167 44 -24 74 hhcurveto
          17 70 55 0 hvcurveto
          -3 18 -4 -23 callsubr
          -27 -8 -38 -62 -63 28 72 -97 vhcurveto
          4 vlineto
          124 35 89 117 144 vvcurveto
          125 -83 84 -122 -162 -125 -134 -173 -126 82 -83 119 vhcurveto
          21 46 rmoveto
          -85 -56 70 111 139 77 97 105 87 57 -71 -110 -141 -77 -95 -108 hvcurveto
          endchar
        </CharString>
        <CharString name="q.sups">
          -195 221 -21 400 43 24 -20 hstem
          171 278 rmoveto
          -7 -36 -6 -6 -36 -4 -6 -32 rcurveline
          0 65 7 82 vhcurveto
          5 30 -1 3 rlineto
          -24 hlineto
          -14 -4 7 18 67 59 291 16 27 hvcurveto
          -4 10 -38 7 -7 -3 -12 -32 -58 11 rlineto
          -73 -77 -105 -98 -59 28 -38 42 hvcurveto
          32 26 32 43 38 70 5 -1 rcurveline
          -18 -99 rlineto
          -75 25 rmoveto
          -11 -10 30 34 65 33 64 34 18 24 -10 -9 17 hvcurveto
          -104 -45 -42 -70 -18 hhcurveto
          endchar
        </CharString>
        <CharString name="question">
          -161 -12 119 519 68 hstem
          286 71 vstem
          101 203 rmoveto
          8 -4 63 17 4 8 -8 95 4 9 rlineto
          87 59 98 34 121 vvcurveto
          84 -86 64 -112 4 vhcurveto
          -14 -4 -39 -53 1 -11 rlineto
          108 -7 71 -35 -73 vvcurveto
          -45 -30 -30 -36 -23 vhcurveto
          -123 -76 -4 -14 rlineto
          16 -335 -28 callsubr
          endchar
        </CharString>
        <CharString name="questiondown">
          -161 -242 68 519 119 hstem
          -9 70 vstem
          247 249 rmoveto
          -9 4 -62 -17 -4 -8 8 -95 -4 -9 rlineto
          -87 -59 -98 -34 -121 vvcurveto
          -84 86 -64 112 -4 vhcurveto
          14 4 38 53 -1 11 rlineto
          -107 7 -72 35 73 vvcurveto
          45 31 30 35 23 vhcurveto
          123 76 5 14 rlineto
          -17 335 rmoveto
          -41 -28 -32 -37 -28 16 -22 33 40 29 32 37 26 -15 24 -34 hvcurveto
          endchar
        </CharString>
        <CharString name="quotedbl">
          -220 -28 callgsubr
          113 8 rmoveto
          -71 -13 callgsubr
          11 -2 27 14 rlineto
          33 102 27 110 -49 callsubr
        </CharString>
        <CharString name="quotedblbase">
          -124 -106 43 callgsubr
          29 59 -99 callgsubr
          -79 callsubr
          153 -14 -99 callgsubr
          -44 callsubr
        </CharString>
        <CharString name="quotedblleft">
          -185 21 callsubr
          389 463 -54 callsubr
          -148 14 -54 callsubr
          endchar
        </CharString>
        <CharString name="quotedblright">
          -185 21 callsubr
          288 609 -99 callgsubr
          -79 callsubr
          -152 -14 -99 callgsubr
          -44 callsubr
        </CharString>
        <CharString name="quoteleft">
          -336 21 callsubr
          177 463 -54 callsubr
          endchar
        </CharString>
        <CharString name="quoteright">
          -336 21 callsubr
          73 609 -99 callgsubr
          -44 callsubr
        </CharString>
        <CharString name="quotesinglbase">
          42 callgsubr
          -20 hstem
          28 -55 callgsubr
          endchar
        </CharString>
        <CharString name="quotesingle">
          -338 -28 callgsubr
          endchar
        </CharString>
        <CharString name="r">
          -1 callgsubr
          hstemhm
          374 78 hintmask 10110100
          -74 callgsubr
          hintmask 01101100
          -85 callgsubr
          hintmask 10110100
          -40 callgsubr
          endchar
        </CharString>
        <CharString name="r.sups">
          -256 367 -21 220 69 10 -20 hstemhm
          hintmask 11000000
          49 354 rmoveto
          -31 callsubr
          8 64 rlineto
          85 33 41 52 36 hhcurveto
          13 9 -6 0 hvcurveto
          7 3 rlineto
          3 11 2 9 8 vvcurveto
          hintmask 10100000
          23 -8 18 -16 13 vhcurveto
          -26 -49 -60 -72 -31 hvcurveto
          -3 hlineto
          11 56 19 4 callsubr
          -6 9 rlineto
          hintmask 11000000
          -14 callsubr
          20 6 -7 -19 -24 -34 -199 0 hvcurveto
          endchar
        </CharString>
        <CharString name="racute">
          -1 callgsubr
          224 -20 hstemhm
          374 78 hintmask 10110110
          -74 callgsubr
          hintmask 01101110
          -85 callgsubr
          hintmask 10110110
          -40 callgsubr
          165 396 rmoveto
          -16 48 -9 -51 callgsubr
          -105 -60 -94 -49 vhcurveto
          6 -24 8 -5 rlineto
          105 40 101 34 -49 callsubr
        </CharString>
        <CharString name="radical">
          -21 9 -21 754 -20 hstem
          91 366 rmoveto
          22 -84 67 -294 0 vvcurveto
          67 20 303 734 rlineto
          -45 hlineto
          -17 -13 -257 -641 rlineto
          -6 hlineto
          0 -61 284 1 75 vhcurveto
          -6 8 -42 -2 rlineto
          -22 -1 -59 -3 0 vvcurveto
          -9 -33 3 -4 26 1 26 -8 9 -39 rlinecurve
          endchar
        </CharString>
        <CharString name="rcaron">
          -1 callgsubr
          221 -20 hstemhm
          374 78 hintmask 10110110
          -74 callgsubr
          hintmask 01101110
          -85 callgsubr
          hintmask 10110110
          -40 callgsubr
          159 446 -98 callsubr
        </CharString>
        <CharString name="rcommaaccent">
          2 -272 -21 302 -21 32 -21 37 174 250 -20 21 40 -4 -20 hstemhm
          374 78 hintmask 11011101
          -74 callgsubr
          hintmask 10111011
          -85 callgsubr
          hintmask 11011101
          -40 callgsubr
          -96 -358 -99 callgsubr
          -44 callsubr
        </CharString>
        <CharString name="registered">
          -58 324 -21 110 208 -127 -20 123 114 hstemhm
          hintmask 10110000
          62 485 rmoveto
          -101 73 -81 100 117 105 102 124 101 -72 81 -100 -117 -106 -102 -124 vhcurveto
          35 4 rmoveto
          102 88 85 96 82 60 -67 -84 -102 -88 -85 -96 -82 -60 67 84 vhcurveto
          61 -78 rmoveto
          hintmask 11000000
          0 26 2 17 vhcurveto
          12 hlineto
          13 18 -1 0 hvcurveto
          4 17 -2 4 rlineto
          -16 -5 3 12 hvcurveto
          hintmask 10110000
          9 4 23 3 14 vhcurveto
          24 hlineto
          20 -55 rlineto
          -23 9 10 -9 13 hhcurveto
          26 12 0 17 2 hvcurveto
          -3 4 rlineto
          -13 -11 11 21 -11 hvcurveto
          -22 43 rlineto
          27 12 27 19 38 vvcurveto
          hintmask 11000000
          31 -27 18 -45 vhcurveto
          0 -18 -1 -12 -1 vhcurveto
          -11 hlineto
          -12 -28 1 -1 hhcurveto
          -5 -17 -53 callsubr
          10 hlineto
          9 2 -3 -15 -2 hvcurveto
          -13 -111 -4 -29 -2 -7 -23 -2 rlinecurve
          84 157 rmoveto
          hintmask 10110000
          6 1 1 2 5 hhcurveto
          28 17 -9 -24 -32 -24 -11 -11 -4 hvcurveto
          1 -9 -11 2 -7 hhcurveto
          endchar
        </CharString>
        <CharString name="ring">
          544 164 hstem
          237 582 -77 callgsubr
        </CharString>
        <CharString name="ring.cap">
          674 164 hstem
          253 712 -77 callgsubr
        </CharString>
        <CharString name="s">
          -67 -9 43 425 48 hstem
          301 79 vstem
          169 -9 rmoveto
          125 86 69 94 78 -97 34 -65 40 hvcurveto
          -103 callgsubr
          endchar
        </CharString>
</ttFont>
